<svg width="25" height="25" viewBox="0 0 25 25" fill="none" xmlns="http://www.w3.org/2000/svg"><path d="M10.883 18.945h2.515a.39.39 0 0 0 .39-.39v-5.66h1.306a.39.39 0 0 0 .389-.35l.22-2.138a.39.39 0 0 0-.388-.43h-1.527V9.11c0-.179.057-.192.143-.192h1.352a.39.39 0 0 0 .39-.39V6.452a.39.39 0 0 0-.389-.39l-1.864-.008c-1.306 0-2.003.574-2.358 1.056-.495.674-.57 1.462-.57 1.873v.993h-.805a.39.39 0 0 0-.39.39v2.137a.39.39 0 0 0 .39.391h.806v5.66c0 .215.175.39.39.39zm-.805-6.831v-1.356h.805a.39.39 0 0 0 .39-.39V8.983c0-.253.042-.898.418-1.41.36-.49.942-.738 1.727-.738l1.474.006v1.295h-.961c-.46 0-.924.301-.924.974v1.256c0 .216.175.39.39.39h1.485l-.14 1.357h-1.345a.39.39 0 0 0-.39.39v5.66h-1.733v-5.66a.39.39 0 0 0-.39-.39h-.806z" fill="#A38B39"/><path d="M21.339 3.661A12.418 12.418 0 0 0 12.5 0C9.161 0 6.022 1.3 3.661 3.661A12.418 12.418 0 0 0 0 12.5c0 3.34 1.3 6.478 3.661 8.84C6.022 23.7 9.161 25 12.5 25c3.34 0 6.478-1.3 8.839-3.66A12.424 12.424 0 0 0 25 12.5c0-3.339-1.3-6.478-3.661-8.839zm-.552 17.126a11.642 11.642 0 0 1-8.287 3.432c-3.13 0-6.073-1.219-8.286-3.432A11.642 11.642 0 0 1 .78 12.5C.78 9.37 2 6.427 4.213 4.214A11.642 11.642 0 0 1 12.5.78c3.13 0 6.073 1.22 8.287 3.433a11.642 11.642 0 0 1 3.432 8.286c0 3.13-1.22 6.074-3.433 8.287z" fill="#A38B39"/><path d="M20.998 5.613a.39.39 0 1 0-.607.492 10.178 10.178 0 0 1 2.265 6.395 10.09 10.09 0 0 1-2.974 7.181 10.09 10.09 0 0 1-7.182 2.975c-2.503 0-4.908-.918-6.77-2.586a.39.39 0 0 0-.522.582 10.919 10.919 0 0 0 7.292 2.785c2.922 0 5.668-1.138 7.734-3.203a10.866 10.866 0 0 0 3.203-7.734c0-2.502-.866-4.948-2.44-6.887zM2.344 12.5C2.344 6.9 6.9 2.344 12.5 2.344c2.503 0 4.907.918 6.77 2.586a.39.39 0 1 0 .522-.582A10.918 10.918 0 0 0 12.5 1.563a10.866 10.866 0 0 0-7.734 3.203A10.866 10.866 0 0 0 1.562 12.5c0 2.502.867 4.948 2.44 6.887a.39.39 0 1 0 .607-.493A10.178 10.178 0 0 1 2.344 12.5z" fill="#A38B39"/></svg>