<svg width="15" height="15" viewBox="0 0 15 15" fill="none" xmlns="http://www.w3.org/2000/svg"><path d="M6.53 11.367h1.508c.13 0 .235-.105.235-.234V7.737h.783c.12 0 .221-.09.234-.21l.132-1.283a.234.234 0 0 0-.233-.258h-.916v-.52c0-.107.034-.115.086-.115h.81c.13 0 .235-.105.235-.234V3.872a.234.234 0 0 0-.234-.235l-1.118-.004c-.784 0-1.202.345-1.415.634-.297.404-.341.877-.341 1.123v.596h-.484a.234.234 0 0 0-.234.234v1.283c0 .13.105.234.234.234h.484v3.396c0 .13.104.234.234.234zm-.483-4.099v-.813h.483c.13 0 .234-.105.234-.235v-.83c0-.152.025-.538.25-.845.217-.294.566-.443 1.037-.443l.884.003v.777h-.577c-.276 0-.554.181-.554.585v.753c0 .13.105.235.234.235h.89l-.083.813h-.807a.234.234 0 0 0-.234.235v3.395h-1.04V7.503a.234.234 0 0 0-.234-.235h-.483z" fill="#333"/><path d="M12.803 2.197A7.451 7.451 0 0 0 7.5 0a7.45 7.45 0 0 0-5.303 2.197A7.45 7.45 0 0 0 0 7.5a7.45 7.45 0 0 0 2.197 5.304A7.451 7.451 0 0 0 7.5 15a7.45 7.45 0 0 0 5.303-2.196A7.45 7.45 0 0 0 15 7.5a7.45 7.45 0 0 0-2.197-5.303zm-.331 10.275a6.985 6.985 0 0 1-4.972 2.06 6.985 6.985 0 0 1-4.972-2.06A6.985 6.985 0 0 1 .468 7.5c0-1.878.732-3.644 2.06-4.972A6.985 6.985 0 0 1 7.5.468c1.878 0 3.644.732 4.972 2.06a6.985 6.985 0 0 1 2.06 4.972 6.985 6.985 0 0 1-2.06 4.972z" fill="#333"/><path d="M12.599 3.368a.234.234 0 1 0-.364.295A6.107 6.107 0 0 1 13.594 7.5a6.054 6.054 0 0 1-1.785 4.309 6.054 6.054 0 0 1-4.31 1.785 6.084 6.084 0 0 1-4.061-1.552.234.234 0 0 0-.313.35 6.551 6.551 0 0 0 4.375 1.67 6.52 6.52 0 0 0 4.64-1.922 6.52 6.52 0 0 0 1.922-4.64c0-1.501-.52-2.969-1.463-4.132zM1.406 7.5A6.1 6.1 0 0 1 7.5 1.406a6.08 6.08 0 0 1 4.062 1.552.234.234 0 1 0 .313-.35A6.551 6.551 0 0 0 7.5.939 6.52 6.52 0 0 0 2.86 2.86 6.52 6.52 0 0 0 .938 7.5c0 1.501.52 2.969 1.463 4.132a.234.234 0 1 0 .364-.295A6.107 6.107 0 0 1 1.406 7.5z" fill="#333"/></svg>