<svg width="25" height="25" viewBox="0 0 25 25" fill="none" xmlns="http://www.w3.org/2000/svg"><path d="M21.339 3.661A12.418 12.418 0 0 0 12.5 0C9.161 0 6.022 1.3 3.661 3.661A12.418 12.418 0 0 0 0 12.5c0 3.34 1.3 6.478 3.661 8.84C6.022 23.7 9.161 25 12.5 25c3.339 0 6.478-1.3 8.839-3.66A12.426 12.426 0 0 0 25 12.5c0-3.339-1.3-6.478-3.661-8.839zm-.553 17.126a11.641 11.641 0 0 1-8.286 3.432c-3.13 0-6.073-1.22-8.286-3.432A11.641 11.641 0 0 1 .78 12.5C.78 9.37 2 6.427 4.213 4.214A11.642 11.642 0 0 1 12.5.78c3.13 0 6.073 1.22 8.286 3.433A11.642 11.642 0 0 1 24.22 12.5c0 3.13-1.22 6.073-3.433 8.287z" fill="#A38B39"/><path d="M20.998 5.613a.39.39 0 1 0-.607.492 10.181 10.181 0 0 1 2.265 6.395 10.09 10.09 0 0 1-2.974 7.181 10.09 10.09 0 0 1-7.182 2.975c-2.503 0-4.908-.918-6.77-2.586a.39.39 0 0 0-.522.582 10.919 10.919 0 0 0 7.292 2.785 10.87 10.87 0 0 0 7.734-3.203 10.867 10.867 0 0 0 3.203-7.734c0-2.502-.866-4.948-2.44-6.887zM2.344 12.5C2.344 6.9 6.9 2.344 12.5 2.344c2.503 0 4.907.918 6.77 2.585a.39.39 0 1 0 .521-.582A10.918 10.918 0 0 0 12.5 1.562a10.866 10.866 0 0 0-7.734 3.204A10.865 10.865 0 0 0 1.562 12.5c0 2.502.867 4.948 2.44 6.886a.39.39 0 0 0 .55.058.39.39 0 0 0 .057-.55A10.178 10.178 0 0 1 2.344 12.5z" fill="#A38B39"/><path d="M15.784 6.234H9.242a3.012 3.012 0 0 0-3.008 3.009v6.541a3.012 3.012 0 0 0 3.008 3.008h6.542a3.011 3.011 0 0 0 3.008-3.008V9.243a3.011 3.011 0 0 0-3.008-3.009zM18 15.784A2.219 2.219 0 0 1 15.784 18H9.242a2.218 2.218 0 0 1-2.215-2.216V9.243c0-1.222.994-2.216 2.215-2.216h6.542c1.222 0 2.216.994 2.216 2.216v6.541z" fill="#A38B39"/><path d="M16.023 8.53a.483.483 0 1 0 .001.965.483.483 0 0 0 0-.966zm-3.512.904a3.081 3.081 0 0 0-3.077 3.078 3.082 3.082 0 0 0 3.078 3.078 3.082 3.082 0 0 0 3.078-3.079 3.082 3.082 0 0 0-3.079-3.077zm0 5.364a2.289 2.289 0 0 1-2.285-2.287 2.288 2.288 0 0 1 2.285-2.285 2.288 2.288 0 0 1 2.286 2.285 2.289 2.289 0 0 1-2.286 2.287z" fill="#A38B39"/></svg>