<svg width="16" height="16" viewBox="0 0 16 16" fill="none" xmlns="http://www.w3.org/2000/svg"><path d="M8.001 9.602c.883 0 1.602-.719 1.602-1.602 0-.349-.114-.67-.302-.934a1.6 1.6 0 0 0-1.299-.668 1.6 1.6 0 0 0-1.299.668 1.602 1.602 0 0 0 1.298 2.535zM11.5 6.04V4.498h-.201l-1.342.005.005 1.542L11.5 6.04z" fill="#3A3A3A"/><path d="M8 0C3.589 0 0 3.589 0 8c0 4.41 3.589 8 8 8 4.41 0 8-3.59 8-8 0-4.411-3.588-8-8-8zm4.55 7.066v3.726a1.76 1.76 0 0 1-1.759 1.758H5.21a1.76 1.76 0 0 1-1.759-1.758V5.209c0-.97.789-1.758 1.759-1.758h5.582c.97 0 1.759.788 1.759 1.758v1.857z" fill="#3A3A3A"/><path d="M10.488 8A2.492 2.492 0 0 1 8 10.489a2.491 2.491 0 0 1-2.306-3.423H4.336v3.725c0 .482.39.872.872.872h5.582c.48 0 .872-.39.872-.872V7.066h-1.359c.118.288.185.604.185.934z" fill="#3A3A3A"/></svg>