<svg width="15" height="15" viewBox="0 0 15 15" fill="none" xmlns="http://www.w3.org/2000/svg"><path d="M9.626 11c-.292 0-.643-.073-1.03-.219-.848-.32-1.77-.952-2.598-1.78-.827-.826-1.46-1.75-1.779-2.598-.291-.77-.292-1.404-.002-1.693.042-.042.084-.087.128-.133.264-.278.57-.594.959-.576.273.011.537.18.809.517.8.995.439 1.35.021 1.76l-.073.074c-.069.068-.198.384 1.002 1.584.393.392.727.68.993.853.169.109.469.274.592.15l.074-.074c.41-.417.765-.776 1.76.023.337.27.506.535.517.809.017.396-.299.695-.577.96l-.132.126c-.144.145-.374.217-.664.217zm-4.35-6.765c-.281 0-.536.268-.76.504l-.133.137c-.216.216-.193.782.056 1.444.309.818.921 1.711 1.726 2.516.804.804 1.697 1.417 2.514 1.725.662.25 1.229.272 1.445.056a8.04 8.04 0 0 1 .136-.132c.242-.23.516-.49.504-.78-.008-.198-.153-.411-.43-.634-.828-.666-1.06-.43-1.444-.041l-.075.076c-.183.184-.482.143-.887-.12-.28-.183-.627-.48-1.031-.883-.996-.997-1.315-1.606-1.003-1.918l.075-.075c.39-.384.626-.616-.04-1.445-.223-.276-.436-.42-.635-.43h-.018z" fill="#333" stroke="#333" stroke-width=".25"/><path d="M12.803 2.197A7.45 7.45 0 0 0 7.5 0a7.45 7.45 0 0 0-5.303 2.197A7.45 7.45 0 0 0 0 7.5a7.45 7.45 0 0 0 2.197 5.303A7.45 7.45 0 0 0 7.5 15a7.45 7.45 0 0 0 5.303-2.197A7.45 7.45 0 0 0 15 7.5a7.45 7.45 0 0 0-2.197-5.303zm-.331 10.275a6.985 6.985 0 0 1-4.972 2.06 6.985 6.985 0 0 1-4.972-2.06A6.985 6.985 0 0 1 .468 7.5c0-1.878.732-3.644 2.06-4.972A6.985 6.985 0 0 1 7.5.468c1.878 0 3.644.732 4.972 2.06a6.985 6.985 0 0 1 2.06 4.972 6.985 6.985 0 0 1-2.06 4.972z" fill="#333"/><path d="M12.599 3.368a.234.234 0 1 0-.364.295A6.107 6.107 0 0 1 13.594 7.5a6.054 6.054 0 0 1-1.785 4.309A6.054 6.054 0 0 1 7.5 13.593a6.083 6.083 0 0 1-4.062-1.551.234.234 0 0 0-.313.35 6.551 6.551 0 0 0 4.375 1.67 6.52 6.52 0 0 0 4.64-1.922 6.52 6.52 0 0 0 1.922-4.64c0-1.501-.52-2.969-1.463-4.132zM1.406 7.5A6.1 6.1 0 0 1 7.5 1.406a6.08 6.08 0 0 1 4.062 1.552.234.234 0 1 0 .313-.35A6.55 6.55 0 0 0 7.5.938 6.52 6.52 0 0 0 2.86 2.86 6.52 6.52 0 0 0 .938 7.5c0 1.501.52 2.969 1.463 4.132a.234.234 0 0 0 .33.034.235.235 0 0 0 .034-.33A6.106 6.106 0 0 1 1.406 7.5z" fill="#333"/></svg>