<svg width="92" height="72" viewBox="0 0 92 72" fill="none" xmlns="http://www.w3.org/2000/svg">
<path d="M72.9022 65.0767L72.8698 65.0176L72.8321 65.0391C71.8396 65.6197 70.8471 66.168 69.6712 66.7218L69.5957 66.754L69.6658 66.7917C70.4695 67.211 70.367 67.8776 70.3616 67.9045L70.3509 67.9798L70.421 67.9475C72.1147 67.1196 72.6811 66.3078 72.8591 65.7702C73.0047 65.3348 72.9022 65.0767 72.9022 65.0767Z" fill="#CDA176"/>
<path d="M79.9469 66.0456C79.9415 66.0348 79.4614 65.137 79.5369 64.2715L79.5423 64.2285H79.4992C78.0806 64.1371 76.9802 64.4328 76.9694 64.4328L76.9316 64.4435L76.937 64.4811C76.9424 64.4973 77.2769 66.1316 79.4291 66.1316C79.5801 66.1316 79.7419 66.1208 79.9145 66.1047L79.9738 66.0993L79.9469 66.0456Z" fill="#CDA176"/>
<path d="M14.3882 64.4381C14.3774 64.4327 13.2878 64.1371 11.8692 64.2285H11.826L11.8314 64.2715C11.9016 65.1316 11.4269 66.0348 11.4215 66.0455L11.3945 66.0993L11.4539 66.1047C11.6211 66.1208 11.7829 66.1262 11.9339 66.1316C14.0538 66.1907 14.4152 64.508 14.4206 64.4865L14.4259 64.4489L14.3882 64.4381Z" fill="#CDA176"/>
<path d="M21.6704 66.712C20.5484 66.1851 19.5505 65.6583 18.5149 65.0508L18.4771 65.0293L18.4556 65.0669C18.4502 65.0777 17.8245 66.3894 20.926 67.9431L21.0015 67.9807L20.9853 67.9001C20.9799 67.8732 20.8667 67.2012 21.665 66.7819L21.7351 66.7442L21.6704 66.712Z" fill="#CDA176"/>
<path d="M70.3891 60.4482C70.5293 61.2922 70.7613 62.0019 71.031 62.5986C71.4625 62.6739 73.9545 63.0609 76.5059 62.2169L75.9125 59.1848C84.3703 57.4323 88.1353 63.0824 88.1353 63.0824C83.8309 62.7921 84.3703 63.5233 84.3703 63.5233C85.3466 66.8349 84.6616 67.2273 84.6616 67.2273C83.2429 64.9748 81.1177 64.3404 79.4564 64.2383C78.027 64.1469 76.9374 64.4479 76.9374 64.4479C76.9374 64.4479 77.2826 66.4048 79.9742 66.0876C79.9742 66.0876 77.1855 68.9477 70.3675 67.9746C73.5068 66.3941 72.8919 65.0501 72.8811 65.0339C71.8239 65.6522 70.7451 66.2166 69.6555 66.7274C58.587 71.9313 46.4074 71.8615 45.6739 71.8561C44.9403 71.8668 32.7661 71.9313 21.6922 66.7274C20.6026 66.2166 19.5238 65.6522 18.4666 65.0339C18.4558 65.0501 17.8463 66.3941 20.9856 67.9746C14.1676 68.9423 11.3789 66.093 11.3789 66.093C14.0651 66.4102 14.4049 64.4479 14.4049 64.4479C14.4049 64.4479 13.3154 64.1469 11.8859 64.2383C10.2246 64.3404 8.09937 64.9748 6.68076 67.2273C6.68076 67.2273 5.99572 66.8349 6.97203 63.5233C6.97203 63.5233 7.51143 62.7921 3.20703 63.0824C3.20703 63.0824 6.97203 57.4323 15.4298 59.1848L14.8365 62.2169C17.3824 63.0663 19.8798 62.6792 20.3113 62.5986C20.581 62.0019 20.8184 61.2922 20.9532 60.4482C20.964 60.4482 43.8615 74.3505 70.3891 60.4482Z" fill="#A18529"/>
<path d="M63.9501 9.59617C63.9501 9.59617 61.7979 6.30068 59.7105 9.69831C60.8702 10.1015 61.7008 11.2036 61.7008 12.5046C61.7008 14.1443 60.3793 15.4775 58.7503 15.4775C57.1214 15.4775 55.7998 14.1443 55.7998 12.5046C55.7998 11.1391 56.7168 9.99399 57.9574 9.64455C58.0329 8.5586 57.6769 6.52109 56.6898 5.06957C56.6898 5.06957 53.9551 6.0265 52.5742 7.97799C53.2701 8.58548 53.7124 9.48327 53.7124 10.4832C53.7124 12.3111 52.2398 13.7948 50.422 13.7948C48.6043 13.7948 47.1317 12.3111 47.1317 10.4832C47.1317 8.65537 48.6043 7.17159 50.422 7.17159C50.6809 7.17159 50.9345 7.20385 51.1772 7.26298C51.1125 6.59098 50.6594 4.06426 47.601 5.04807C47.601 5.04807 47.4392 0.682753 45.7293 0C44.0194 0.682753 43.8576 5.04807 43.8576 5.04807C40.7992 4.06426 40.3461 6.59098 40.2813 7.26298C40.5241 7.20385 40.7776 7.17159 41.0365 7.17159C42.8543 7.17159 44.3268 8.65537 44.3268 10.4832C44.3268 12.3111 42.8543 13.7948 41.0365 13.7948C39.2187 13.7948 37.7462 12.3111 37.7462 10.4832C37.7462 9.48327 38.1885 8.58548 38.8843 7.97799C37.5034 6.0265 34.7687 5.06957 34.7687 5.06957C33.7816 6.52109 33.4202 8.5586 33.5011 9.64455C34.7471 9.99399 35.6587 11.1391 35.6587 12.5046C35.6587 14.1443 34.3372 15.4775 32.7082 15.4775C31.0792 15.4775 29.7577 14.1443 29.7577 12.5046C29.7577 11.2036 30.5884 10.0961 31.7481 9.69831C29.6606 6.30068 27.5084 9.59617 27.5084 9.59617C26.0089 7.04794 22.3086 7.94574 22.3086 7.94574L27.0391 18.6762C27.0391 18.6762 36.0201 16.1656 45.7239 16.1656C55.4978 16.1656 64.4086 18.6762 64.4086 18.6762L69.1391 7.94574C69.1445 7.94574 65.4497 7.04794 63.9501 9.59617Z" fill="#A18529"/>
<path d="M63.8759 20.2254C56.0168 17.5427 45.7143 17.7954 45.7143 17.7954C45.7143 17.7954 35.4118 17.5427 27.5528 20.2254C27.5528 20.2254 33.0007 30.7731 26.7383 48.6214C26.7383 48.6214 29.8668 55.2393 37.1325 58.6047C44.3982 61.9754 45.3691 62.9109 45.7089 63.9108C46.0541 62.9109 47.025 61.9754 54.2853 58.6047C61.551 55.2339 64.6796 48.6214 64.6796 48.6214C58.4279 30.7731 63.8759 20.2254 63.8759 20.2254Z" fill="#3D4543"/>
<path d="M61.5344 21.3441C54.4252 18.9196 45.6869 19.2206 45.6869 19.2206C45.6869 19.2206 37.035 18.9034 29.9257 21.3334C29.9257 21.3334 34.2301 32.3166 28.5664 48.4607C28.5664 48.4607 31.3982 53.4443 37.9681 56.4925C44.538 59.5407 45.4172 60.3901 45.7301 61.2932C46.0429 60.3901 46.9221 59.5407 53.492 56.4925C60.0619 53.4443 62.8937 48.4607 62.8937 48.4607C57.23 32.3166 61.5344 21.3441 61.5344 21.3441Z" fill="#6BA43A"/>
<path d="M91.0829 37.2927C90.7971 36.3572 89.6481 35.8089 88.4291 35.6046C86.4441 35.2605 84.6317 36.9163 84.8799 38.9055C85.0309 40.1204 85.7213 40.6043 86.2985 41.5881C86.9404 42.6848 86.4064 44.1256 85.2359 44.8029C84.3351 45.3244 83.7903 45.1201 83.5853 44.9965C83.526 44.9642 83.5206 44.8943 83.5044 44.8298C83.0189 43.2654 81.0124 41.9913 81.0124 41.9913C79.2 40.615 78.8332 39.7119 78.515 39.1528C78.1967 38.5936 78.4179 37.9808 78.7847 37.4969C79.0652 37.1206 79.2593 37.798 79.3349 38.1313C79.3564 38.2335 79.3834 38.599 79.4859 38.5721C79.5992 38.5453 79.8958 38.2711 80.0792 38.0829C80.473 37.6743 80.2356 35.9487 81.2767 36.5723C81.87 36.9271 82.3447 36.9002 82.6414 36.8088C82.787 36.7658 82.814 36.5776 82.7007 36.4755C82.3825 36.1852 82.2908 35.6906 82.2746 35.61C82.2746 35.6046 82.2746 35.5938 82.2746 35.5885C82.2692 35.4433 82.1991 33.7445 82.1991 33.0886C82.1991 32.4059 82.6414 32.9435 83.348 33.0671C83.7202 33.1316 84.0438 33.0456 84.2596 32.9488C84.3944 32.8897 84.4106 32.7123 84.2973 32.6155C83.9899 32.3467 84.0546 31.9435 84.0546 31.9435L83.9197 28.9437C83.9143 28.8254 84.0168 28.7341 84.1301 28.7448C84.6695 28.7932 85.0417 28.6212 85.2628 28.4599C85.3815 28.3739 85.3545 28.1911 85.2197 28.1319C84.5562 27.8631 84.0114 26.8686 83.7687 26.3632C83.6878 26.1912 83.5799 26.0299 83.4666 25.8794C83.3264 25.6966 83.1916 25.4063 83.4505 25.1644C83.6446 24.987 83.7741 24.7988 83.8604 24.6483C83.9305 24.5246 83.8496 24.3634 83.704 24.358C82.9758 24.3257 81.9941 23.8473 82.3663 23.5731C82.5928 23.4064 82.7007 23.1269 82.7546 22.9011C82.7924 22.7506 82.6414 22.6269 82.4957 22.6807C81.7514 22.971 81.3738 22.9011 81.1904 22.8043C81.0933 22.7506 81.0663 22.6269 81.1311 22.5355C81.2174 22.4119 81.2767 22.2936 81.3198 22.1861C81.3792 22.0302 81.2281 21.885 81.0717 21.9388C80.9261 21.9872 80.7589 22.0302 80.6186 22.0571C80.4784 22.0839 80.3597 21.9549 80.3921 21.8151V21.8098C80.4244 21.6754 80.3004 21.5517 80.1601 21.584C79.5938 21.7076 79.1029 21.6646 78.8116 21.6108C78.6984 21.5893 78.6336 21.4764 78.666 21.3689C78.7038 21.2507 78.6876 21.1324 78.6876 21.1324C78.2938 21.3797 77.927 21.2775 77.7868 21.2291C77.749 21.2184 77.7221 21.1915 77.7059 21.1593C77.571 20.9388 77.4254 20.7991 77.3013 20.7131C77.1665 20.6217 76.9723 20.7184 76.9831 20.8797C76.9885 20.955 76.9777 21.0195 76.9615 21.0786C76.9291 21.1969 76.7889 21.2453 76.681 21.1861C76.53 21.1001 76.147 20.9819 76.0122 20.998C75.7209 21.041 75.9474 21.17 76.0445 21.3098C76.1578 21.4711 76.174 21.627 76.1578 21.7452C76.147 21.8474 76.0499 21.9227 75.942 21.9119C75.5051 21.8743 75.1815 22.0786 75.1815 22.0786C75.5645 22.1484 75.7047 22.2828 75.7532 22.4065C75.791 22.5086 75.7155 22.6215 75.6076 22.6484C74.6367 22.885 74.545 22.9548 74.0703 23.5462C74.0326 23.5946 73.9247 23.6591 73.86 23.6645C73.6874 23.686 73.4446 23.557 72.8297 23.858C72.5978 23.9709 72.1716 24.1806 72.0746 24.4171C72.0422 24.4924 71.9613 24.53 71.8804 24.53C71.697 24.5246 71.5513 24.53 71.4003 24.6967C71.2169 24.901 71.519 25.5461 71.6808 25.745C71.7132 25.7826 71.7293 25.831 71.7239 25.8794C71.7132 26.0245 71.8804 26.6428 72.1015 27.0621C72.4306 27.6857 73.3475 27.4814 73.3475 27.4814C75.1653 27.2557 75.1383 26.917 74.9226 27.4707C74.8309 27.7019 74.4803 27.4008 73.7251 27.5352C73.4446 27.5836 72.4521 27.718 72.6949 28.3201C73.0293 29.1534 73.3637 29.0566 73.6442 29.0674C74.038 29.0835 74.5935 29.0351 74.8956 29.7716C75.1545 30.3899 74.7068 31.2446 74.2321 31.4812C73.5579 31.8145 73.3529 31.4113 73.3529 31.0511C73.3529 30.9221 73.2289 30.8361 73.1048 30.8683C72.3766 31.0887 72.8944 32.0994 72.9915 32.465C73.0185 32.5618 72.9592 32.6585 72.8675 32.6908C71.9073 33.0456 71.7185 31.5027 71.6862 30.8576C71.6808 30.7232 71.5352 30.6425 71.4111 30.7017C69.5232 31.5833 70.2999 33.2875 70.6451 33.8735C70.7099 33.9864 70.6505 34.1316 70.5265 34.1584C69.7444 34.3305 69.1618 33.7445 68.7573 33.0779C68.3203 32.3521 68.0992 31.5134 68.0776 30.6694C68.0506 29.7662 68.0021 28.4276 67.9536 28.0836C67.878 27.5513 67.4411 27.4277 66.5403 27.1159C66.2113 27.003 65.9901 26.9546 65.8445 26.9438C65.7043 26.9331 65.6018 27.0675 65.6395 27.2019C65.7097 27.4438 65.6018 27.589 65.5155 27.6589C65.4669 27.7019 65.3968 27.7072 65.3375 27.6857C64.6794 27.4599 64.3342 27.6911 64.1562 27.9438C64.0699 28.0674 64.1616 28.2395 64.318 28.2395C64.4798 28.2395 64.7118 28.3147 65.0084 28.5566C65.6341 29.0674 65.0947 29.5512 64.9491 29.6641C64.9221 29.6749 64.9006 29.6856 64.8736 29.6964C64.2695 29.8146 64.1885 30.2555 64.2101 30.5726C64.2209 30.7178 64.3827 30.7984 64.5068 30.7178C65.2242 30.2555 65.4669 30.9436 65.6287 31.0619C65.8121 31.1909 65.8121 32.6155 65.8121 32.6155C65.9794 34.5133 67.2631 35.3035 67.932 35.911C68.3851 36.3196 68.2718 36.5293 68.1531 36.626C68.0992 36.669 68.0291 36.6798 67.9643 36.6475C67.6137 36.4755 66.5565 36.5293 65.974 36.8733C65.3483 37.2389 65.1001 36.8626 64.6147 36.4701C64.2209 36.1529 64.3288 36.2013 63.7247 35.9594C63.6761 35.9379 63.277 36.1314 63.2284 36.1852C63.072 36.368 62.8185 36.4594 62.6567 36.7174C62.5596 36.8679 62.387 37.04 62.0957 37.0937C61.5077 37.2013 61.9932 37.4002 62.1766 37.6582C62.36 37.9163 62.1658 38.1206 62.1658 38.1206C61.3136 38.6797 61.95 38.6582 62.1658 38.7442C62.2305 38.7711 62.3384 39.0506 62.3492 39.1205C62.4355 39.814 62.9641 39.9161 62.9641 39.9161C63.401 40.3516 64.0483 40.2064 64.2317 40.1473C64.2641 40.1366 64.291 40.1204 64.3126 40.0936C64.4583 39.9161 65.1433 39.1796 65.8607 39.728C66.6698 40.3516 68.1316 40.5344 68.5739 40.5344C69.0162 40.5344 69.1402 40.9376 69.1402 40.9376C69.8199 43.3299 71.7995 43.4105 72.1878 43.6901C72.5816 43.9697 72.5061 43.8836 72.9969 44.4212C73.4878 44.9588 72.2094 44.8352 71.6538 44.9104C70.2352 45.104 70.2136 45.7652 69.9439 46.663C69.6742 47.5662 69.6041 48.5393 71.5082 49.4639C73.4123 50.3886 72.9753 50.5338 73.0724 50.9477C73.1695 51.3617 71.7995 51.7272 71.4111 51.824C71.0173 51.9208 70.8232 51.6788 69.7012 51.5068C68.5793 51.3348 68.5793 51.7003 67.8457 52.0444C67.1121 52.3831 67.4519 53.2863 67.3548 53.8454C67.2955 54.1948 67.4735 54.3776 67.6191 54.469C67.6946 54.5174 67.7971 54.5066 67.8565 54.4421C68.0614 54.2109 68.3689 54.1787 68.5523 54.1787C68.6386 54.1787 68.7087 54.2378 68.7357 54.3185C68.9406 54.9044 69.5016 54.8722 69.6473 54.8561C69.6688 54.8507 69.685 54.8453 69.7066 54.8346L70.3269 54.5174C70.3377 54.512 70.3431 54.5066 70.3539 54.5012C72.355 52.953 74.9603 53.0766 75.5213 53.0981C76.0823 53.125 76.0337 52.953 76.0337 52.953C76.0337 52.953 75.9852 52.6842 75.9366 52.2702C75.9097 52.0283 76.0715 51.9369 76.2117 51.8993C76.3088 51.8778 76.3736 51.7917 76.3682 51.6896C76.3574 51.5283 76.4005 51.3939 76.4437 51.3025C76.476 51.238 76.557 51.195 76.6325 51.2004C76.8428 51.2058 77.1827 51.0552 77.1827 51.0552C76.7511 50.9692 76.6001 50.5176 76.5462 50.2596C76.53 50.1789 76.557 50.0929 76.6271 50.0499C76.8428 49.9155 77.0586 49.3994 77.0586 49.3994C77.0586 49.3994 76.886 49.593 76.4005 49.5715C75.9097 49.5446 75.3056 49.3349 75.3056 49.3349C74.5558 49.1521 74.3886 48.6952 74.3131 48.55C74.2375 48.4049 77.5764 48.2221 77.7598 48.679C77.9324 49.1145 78.5042 50.5553 78.5635 50.695C78.5689 50.7004 78.5689 50.7112 78.5743 50.7165C80.6726 53.9475 82.8679 53.9959 83.3372 53.969C83.3965 53.9636 83.4559 53.9905 83.4936 54.0389L83.7579 54.3453C84.0114 54.6356 83.8442 54.9743 83.7525 55.1141C83.7256 55.1571 83.677 55.1894 83.6231 55.1948C83.4559 55.2163 83.0135 55.27 82.2746 55.2485C81.309 55.2216 81.2713 55.8936 80.7211 57.1839C80.4784 57.7537 80.6941 58.1462 81.034 58.4257H81.0286C81.0286 58.4257 80.7157 58.8021 80.7373 59.1461C80.7373 59.1461 81.1634 58.5655 81.4601 58.6999C81.7945 58.8666 82.1181 58.9687 82.2206 59.0386C82.2206 59.0386 81.7514 59.302 81.8646 59.6676C81.8646 59.6676 82.4526 59.1461 82.7816 59.1891C83.0135 59.2268 83.294 59.2536 83.5853 59.2698L83.4019 59.8504C83.4019 59.8504 83.8388 59.302 84.1733 59.2805H84.1031C84.4537 59.2751 84.7774 59.2429 85.0201 59.173C85.813 58.9418 85.8885 57.8881 85.9964 57.4473C86.0827 57.0764 86.0827 56.9151 86.1043 56.7699C86.1205 56.6785 86.1259 56.528 86.1259 56.4366L86.0989 54.2002C86.0989 54.0658 86.223 53.9744 86.3524 54.012C86.5844 54.0873 86.8271 54.0335 86.8271 54.0335C86.4333 53.6733 86.3848 53.1357 86.3848 52.9046C86.3848 52.8347 86.4279 52.7809 86.4927 52.7487C86.6653 52.6627 86.7678 52.5175 86.8271 52.3939C86.881 52.2863 86.8163 52.1681 86.703 52.1251C86.4118 52.0175 86.3956 51.7595 86.6113 51.7272C86.7516 51.7057 86.8379 51.5229 86.8864 51.3563C86.9242 51.2326 86.8325 51.1036 86.6976 51.109C86.3093 51.1144 85.5595 51.1197 85.252 51.1036C84.8906 51.0875 84.5616 50.9047 84.362 50.6036C83.9036 49.9263 83.3372 49.0984 83.1592 48.4801C82.9866 47.8673 83.2401 46.9157 83.4397 46.5663C83.4774 46.4964 83.5583 46.4587 83.6393 46.4749C83.7633 46.5017 83.9791 46.5286 84.2865 46.4964C85.0902 46.4211 85.8184 45.9749 86.2877 45.319C86.6761 44.7707 87.1238 44.0073 87.2586 43.2063C87.3287 42.7816 87.2532 41.8408 86.8109 41.158C86.169 40.1634 85.457 39.7925 85.457 38.298C85.457 37.1636 86.6545 36.4755 87.0375 36.4594C87.1453 36.454 87.237 36.5454 87.237 36.6583L87.2208 37.4701C87.2748 39.4269 89.3677 39.1312 89.7884 39.2065C90.2091 39.2818 90.522 39.4807 90.4303 39.9376C90.3386 40.3946 88.8876 39.8301 88.8876 39.8301C88.8876 39.8301 89.0548 40.0505 89.2706 40.3247C89.4863 40.5989 90.5705 41.3139 91.0668 40.9268C91.5738 40.529 91.4659 38.5506 91.0829 37.2927ZM76.1686 23.9763C75.9366 24.2075 75.4296 24.5569 74.6583 24.3741C74.5774 24.3526 74.5342 24.2558 74.5828 24.1806C74.7284 23.9602 75.1275 23.5946 76.0985 23.7559C76.2063 23.772 76.2441 23.901 76.1686 23.9763Z" fill="#3D4543"/>
<path d="M29.2482 38.1147C29.2482 38.1147 29.054 37.9104 29.2374 37.6524C29.4208 37.3943 29.9063 37.2008 29.3183 37.0879C29.027 37.0341 28.8544 36.8675 28.7573 36.7116C28.5955 36.4589 28.342 36.3621 28.1856 36.1793C28.137 36.1256 27.7433 35.932 27.6893 35.9535C27.0852 36.1901 27.1931 36.1417 26.7993 36.4643C26.3139 36.8567 26.0658 37.233 25.44 36.8675C24.8575 36.5288 23.8003 36.4696 23.4497 36.6417C23.3903 36.6739 23.3148 36.6578 23.2609 36.6202C23.1422 36.5234 23.0289 36.3137 23.482 35.9052C24.1563 35.2977 25.44 34.5128 25.6019 32.6097C25.6019 32.6097 25.6019 31.185 25.7853 31.056C25.9525 30.9377 26.1952 30.2496 26.9072 30.7119C27.0259 30.7926 27.1931 30.7066 27.2039 30.5668C27.2255 30.255 27.1445 29.8088 26.5404 29.6905C26.5135 29.6797 26.4919 29.669 26.4649 29.6582C26.3193 29.5453 25.7799 29.0615 26.4056 28.5508C26.7022 28.3089 26.9288 28.2336 27.096 28.2336C27.247 28.2336 27.3441 28.0616 27.2578 27.9379C27.0798 27.6852 26.7346 27.4595 26.0765 27.6799C26.0172 27.7014 25.9471 27.696 25.8985 27.653C25.8122 27.5831 25.7044 27.4379 25.7745 27.196C25.8122 27.0616 25.7097 26.9272 25.5695 26.938C25.4239 26.9487 25.2027 26.9971 24.8737 27.11C23.9729 27.4218 23.536 27.5508 23.4605 28.0777C23.4119 28.4218 23.3634 29.7604 23.3364 30.6636C23.3094 31.513 23.0937 32.3462 22.6568 33.072C22.2576 33.7333 21.6697 34.3246 20.8875 34.1526C20.7635 34.1257 20.7041 33.9805 20.7689 33.8677C21.1141 33.2817 21.8908 31.5775 20.0029 30.6958C19.8789 30.6367 19.7386 30.7173 19.7278 30.8517C19.6901 31.4968 19.5067 33.0397 18.5465 32.6849C18.4548 32.6527 18.4009 32.5559 18.4225 32.4591C18.5196 32.0936 19.0374 31.0775 18.3092 30.8625C18.1851 30.8248 18.0611 30.9162 18.0611 31.0453C18.0611 31.4054 17.8615 31.8086 17.1819 31.4753C16.7072 31.2442 16.2649 30.384 16.5184 29.7658C16.8205 29.0346 17.376 29.0776 17.7698 29.0615C18.0449 29.0508 18.3847 29.1475 18.7191 28.3142C18.9619 27.7121 17.9748 27.5777 17.6889 27.5293C16.9283 27.3949 16.5777 27.696 16.4914 27.4648C16.2757 26.9165 16.2487 27.2498 18.0665 27.4756C18.0665 27.4756 18.9835 27.6745 19.3125 27.0563C19.5336 26.6369 19.7062 26.0187 19.6901 25.8735C19.6847 25.8251 19.7009 25.7768 19.7332 25.7391C19.895 25.5402 20.1971 24.8951 20.0137 24.6908C19.8627 24.5242 19.717 24.5188 19.5336 24.5242C19.4527 24.5242 19.3718 24.4865 19.3395 24.4113C19.2424 24.1801 18.8216 23.9704 18.5843 23.8522C17.9694 23.5511 17.7267 23.6801 17.554 23.6586C17.4893 23.6532 17.3814 23.5887 17.3437 23.5403C16.869 22.949 16.7773 22.8791 15.8064 22.6426C15.6985 22.6157 15.6176 22.5028 15.6608 22.4006C15.7039 22.277 15.8496 22.1426 16.2325 22.0727C16.2325 22.0727 15.9089 21.8684 15.472 21.906C15.3695 21.9168 15.2724 21.8415 15.2562 21.7394C15.24 21.6265 15.2562 21.4706 15.3695 21.3039C15.4666 21.1642 15.6985 21.0351 15.4018 20.9921C15.267 20.9706 14.884 21.0943 14.733 21.1803C14.6251 21.2394 14.4849 21.191 14.4525 21.0728C14.4363 21.0136 14.4255 20.9437 14.4309 20.8738C14.4417 20.7126 14.2475 20.6158 14.1127 20.7072C13.9832 20.7932 13.843 20.933 13.7081 21.1534C13.6866 21.1857 13.6596 21.2125 13.6272 21.2233C13.4924 21.277 13.1202 21.3738 12.7264 21.1265C12.7264 21.1265 12.7103 21.2448 12.748 21.3631C12.7804 21.4706 12.7156 21.5889 12.6024 21.605C12.3111 21.6534 11.8202 21.6964 11.2539 21.5781C11.119 21.5458 10.9896 21.6695 11.0219 21.8039V21.8093C11.0543 21.9491 10.941 22.0835 10.7954 22.0512C10.6498 22.0243 10.4879 21.9813 10.3423 21.9329C10.1859 21.8792 10.0348 22.0243 10.0942 22.1802C10.1319 22.2877 10.1913 22.4114 10.283 22.5297C10.3477 22.6157 10.3153 22.7447 10.2236 22.7985C10.0402 22.8952 9.65726 22.9651 8.91828 22.6748C8.77265 22.621 8.62162 22.7447 8.65937 22.8952C8.71331 23.121 8.82119 23.4006 9.04774 23.5672C9.41453 23.8414 8.43822 24.3199 7.71003 24.3521C7.56439 24.3575 7.48349 24.5188 7.55361 24.6424C7.63991 24.793 7.76936 24.9811 7.96355 25.1585C8.22785 25.4004 8.08761 25.6907 7.94737 25.8735C7.8287 26.0241 7.72621 26.1853 7.6453 26.3574C7.40257 26.8627 6.85778 27.8573 6.19432 28.1261C6.05947 28.1798 6.0325 28.3626 6.15117 28.454C6.37232 28.6153 6.73912 28.7873 7.28391 28.7389C7.40258 28.7282 7.49967 28.825 7.49427 28.9379L7.35942 31.9377C7.35942 31.9377 7.42415 32.3409 7.11669 32.6097C7.00342 32.7064 7.0196 32.8838 7.15445 32.943C7.3756 33.0397 7.69385 33.1204 8.06604 33.0613C8.77265 32.9376 9.21495 32.4 9.21495 33.0828C9.21495 33.7386 9.15022 35.4428 9.13944 35.5826C9.13944 35.588 9.13944 35.5987 9.13944 35.6041C9.12325 35.6847 9.03156 36.1847 8.71331 36.4696C8.60004 36.5718 8.62701 36.7599 8.77264 36.803C9.06931 36.8943 9.54399 36.9212 10.1373 36.5664C11.1784 35.9428 10.941 37.6685 11.3348 38.0771C11.5182 38.2706 11.8149 38.5394 11.9281 38.5663C12.0306 38.5932 12.0576 38.2276 12.0792 38.1255C12.1547 37.7921 12.3489 37.1148 12.6293 37.4911C12.9961 37.9803 13.2173 38.5878 12.899 39.1469C12.5808 39.706 12.214 40.6145 10.4016 41.9854C10.4016 41.9854 8.39507 43.2595 7.90961 44.824C7.88803 44.8885 7.88264 44.9584 7.8287 44.9906C7.62373 45.1143 7.07894 45.3185 6.17814 44.7971C5.00225 44.1197 4.47364 42.6789 5.11553 41.5822C5.68729 40.6038 6.38311 40.1199 6.53414 38.8996C6.78227 36.9051 4.96989 35.2547 2.9849 35.5987C1.76586 35.8084 0.616945 36.3514 0.331064 37.2868C-0.0519086 38.5502 -0.165182 40.5231 0.331064 40.9048C0.82731 41.2865 1.90611 40.5769 2.12726 40.3027C2.34841 40.0286 2.51023 39.8081 2.51023 39.8081C2.51023 39.8081 1.05925 40.3726 0.967554 39.9157C0.875856 39.4587 1.18871 39.2598 1.60944 39.1845C2.03017 39.1093 4.12303 39.4049 4.17697 37.4481L4.16079 36.6363C4.16079 36.5234 4.24709 36.432 4.36037 36.4374C4.74334 36.4535 5.9408 37.1416 5.9408 38.276C5.9408 39.7759 5.22341 40.1468 4.58692 41.136C4.14461 41.8188 4.06909 42.7596 4.13921 43.1843C4.27406 43.9853 4.72177 44.7487 5.11013 45.297C5.57941 45.9529 6.3022 46.3991 7.1113 46.4744C7.41876 46.5013 7.63452 46.4744 7.75858 46.4529C7.83949 46.4368 7.915 46.469 7.95816 46.5443C8.15773 46.8937 8.41125 47.8453 8.23864 48.4581C8.06064 49.0764 7.49427 49.9043 7.03578 50.5817C6.83621 50.8773 6.50717 51.0655 6.14578 51.0816C5.83832 51.0924 5.08856 51.087 4.70019 51.087C4.57073 51.087 4.47364 51.2106 4.5114 51.3343C4.55995 51.4956 4.64625 51.6837 4.78649 51.7052C5.00225 51.7375 4.98607 51.9955 4.6948 52.1031C4.58152 52.1461 4.51679 52.2643 4.57073 52.3719C4.63007 52.4955 4.73255 52.6353 4.90516 52.7267C4.96449 52.7589 5.01304 52.8127 5.01304 52.8826C5.01304 53.1138 4.9591 53.646 4.57073 54.0115C4.57073 54.0115 4.81346 54.0653 5.0454 53.99C5.16947 53.947 5.29892 54.0438 5.29892 54.1782L5.27195 56.4146C5.27195 56.506 5.27735 56.6565 5.29353 56.7479C5.3205 56.8931 5.3151 57.0544 5.40141 57.4253C5.50929 57.8661 5.5848 58.9198 6.37772 59.151C6.62045 59.2209 6.94948 59.2532 7.29469 59.2585H7.22457C7.559 59.28 7.99591 59.8284 7.99591 59.8284L7.81252 59.2478C8.10379 59.2317 8.38428 59.2048 8.61622 59.1671C8.94525 59.1241 9.5332 59.6456 9.5332 59.6456C9.64108 59.28 9.17719 59.0166 9.17719 59.0166C9.27429 58.9467 9.60332 58.8446 9.93775 58.6779C10.2344 58.5435 10.6605 59.1241 10.6605 59.1241C10.6875 58.7854 10.3693 58.4037 10.3693 58.4037H10.3639C10.7037 58.1296 10.9195 57.7371 10.6767 57.1619C10.1265 55.8716 10.0888 55.1996 9.12325 55.2265C8.38428 55.2427 7.94197 55.1943 7.77476 55.1728C7.72082 55.1674 7.67767 55.1351 7.6453 55.0921C7.55361 54.947 7.39179 54.6137 7.63991 54.3234L7.90422 54.0169C7.94197 53.9739 8.00131 53.947 8.06064 53.947C8.52992 53.9793 10.7253 53.9309 12.8235 50.6945C12.8289 50.6892 12.8289 50.6784 12.8343 50.673C12.8883 50.5333 13.46 49.0925 13.638 48.657C13.8214 48.2001 17.1603 48.3829 17.0848 48.528C17.0093 48.6732 16.8474 49.1301 16.0923 49.3129C16.0923 49.3129 15.4882 49.528 14.9973 49.5495C14.5064 49.5763 14.3392 49.3774 14.3392 49.3774C14.3392 49.3774 14.555 49.8989 14.7708 50.0279C14.8409 50.0709 14.8678 50.1569 14.8517 50.2376C14.7977 50.4956 14.6467 50.9472 14.2152 51.0332C14.2152 51.0332 14.555 51.1838 14.7654 51.1784C14.8409 51.1784 14.9218 51.216 14.9541 51.2805C14.9973 51.3719 15.0405 51.5063 15.0297 51.6676C15.0243 51.7644 15.089 51.8558 15.1861 51.8773C15.3263 51.9095 15.4935 52.0063 15.4612 52.2482C15.4126 52.6622 15.3641 52.931 15.3641 52.931C15.3641 52.931 15.3155 53.103 15.8765 53.0761C16.4375 53.0492 19.0428 52.931 21.044 54.4793C21.0547 54.4846 21.0601 54.49 21.0709 54.4954L21.6912 54.8126C21.7128 54.818 21.729 54.8233 21.7506 54.8341C21.8908 54.8502 22.4572 54.8825 22.6621 54.2965C22.6891 54.2158 22.7592 54.1567 22.8455 54.1567C23.0289 54.1567 23.3364 54.189 23.5414 54.4201C23.6007 54.49 23.7032 54.4954 23.7787 54.447C23.9243 54.3556 24.1023 54.1728 24.043 53.8234C23.9459 53.2643 24.2857 52.3611 23.5522 52.0224C22.8186 51.6837 22.8186 51.3182 21.6966 51.4848C20.5747 51.6569 20.3751 51.8988 19.9867 51.802C19.593 51.7052 18.2283 51.3397 18.3254 50.9257C18.4225 50.5118 17.9856 50.3666 19.8896 49.4419C21.7937 48.5173 21.7236 47.5442 21.4539 46.641C21.1842 45.7379 21.1626 45.0766 19.744 44.8885C19.1884 44.8132 17.91 44.9368 18.4009 44.3992C18.8918 43.8616 18.8162 43.9477 19.21 43.6681C19.6038 43.3886 21.5834 43.3079 22.2576 40.9156C22.2576 40.9156 22.3871 40.5124 22.824 40.5124C23.2609 40.5124 24.728 40.3296 25.5371 39.706C26.2491 39.1576 26.9396 39.8942 27.0852 40.0716C27.1068 40.0984 27.1338 40.1146 27.1661 40.1253C27.3495 40.1791 27.9968 40.3296 28.4337 39.8942C28.4337 39.8942 28.9623 39.792 29.0486 39.0985C29.0594 39.0286 29.1619 38.7491 29.232 38.7222C29.464 38.6523 30.1005 38.6738 29.2482 38.1147ZM15.2616 23.9758C15.1861 23.9005 15.2292 23.7769 15.3317 23.7554C16.3026 23.5941 16.7018 23.9597 16.8474 24.1801C16.896 24.25 16.8582 24.3521 16.7719 24.3736C16.0006 24.5564 15.4935 24.2016 15.2616 23.9758Z" fill="#3D4543"/>
<path d="M16.8575 24.174C16.7064 23.9482 16.2911 23.5665 15.2932 23.7386C15.1853 23.7547 15.1422 23.8891 15.2177 23.9644C15.4604 24.2009 15.9782 24.5665 16.7766 24.3729C16.8629 24.3514 16.906 24.2493 16.8575 24.174Z" fill="white"/>
<path d="M74.5515 24.1848C74.7026 23.959 75.1179 23.572 76.1266 23.744C76.2345 23.7601 76.2776 23.8945 76.2021 23.9698C75.9594 24.2063 75.4361 24.5773 74.6324 24.3837C74.5461 24.3622 74.503 24.2547 74.5515 24.1848Z" fill="white"/>
<path d="M45.353 34.1276C45.353 34.9608 45.0294 35.6113 44.3767 36.0898C43.7241 36.5683 42.9096 36.8048 41.9225 36.8048C42.2407 37.3639 42.6776 38.1004 43.2386 39.0197C43.7996 39.939 44.5601 40.8798 45.531 41.8367C46.4966 42.7991 47.4783 43.2775 48.4708 43.2775C48.9778 43.2775 49.5064 43.127 50.0458 42.8259C50.5906 42.5249 50.9736 42.2614 51.2109 42.0303C50.8333 42.5786 50.3748 43.0087 49.8354 43.3205C49.2906 43.6323 48.5625 43.7882 47.6455 43.7882C46.5127 43.7882 45.4933 43.4334 44.5979 42.7238C43.7025 42.0142 42.9419 41.154 42.3216 40.1541C41.7013 39.1541 41.0702 37.9714 40.4391 36.6166C41.5395 36.6166 42.3702 36.4822 42.9365 36.2188C43.4975 35.9554 43.7834 35.3963 43.7834 34.5469C43.7834 33.6168 43.5191 32.9448 42.9905 32.5309C42.4619 32.1169 41.4424 31.9126 39.9321 31.9126V38.8961C39.9321 39.1864 40.0184 39.4498 40.191 39.681C40.3636 39.9121 40.6549 40.111 41.0756 40.2669H36.809C37.2944 40.1756 37.672 39.9982 37.9525 39.7455C38.233 39.4874 38.3732 39.1702 38.3732 38.7993V34.7565C38.3732 34.2727 38.4649 33.7459 38.6483 33.1706C38.8317 32.5954 39.0744 32.1761 39.3765 31.9126C37.5641 31.9126 36.3559 32.1277 35.741 32.5631C35.1261 32.9932 34.8186 33.5846 34.8186 34.3318C34.8186 35.0576 35.0182 35.7027 35.4119 36.278C35.8057 36.8532 36.4853 37.337 37.4455 37.7349C36.4044 37.7349 35.6007 37.4499 35.0344 36.8801C34.4734 36.3102 34.1875 35.606 34.1875 34.7565C34.1875 33.6867 34.6082 32.8803 35.4497 32.3427C36.2912 31.8051 37.726 31.5309 39.7541 31.5309L39.9267 31.332V31.5309C41.9279 31.5309 43.3357 31.7137 44.1448 32.0793C44.9485 32.461 45.353 33.1384 45.353 34.1276Z" fill="white"/>
<path d="M52.1119 31.3691C52.5434 31.3691 53.1907 31.4498 54.043 31.6057C54.9006 31.7616 55.44 31.8422 55.6773 31.8422C55.4184 32.3422 55.2512 32.7024 55.1757 32.9228C55.1002 33.1432 55.0354 33.4174 54.9869 33.7507C54.7172 32.9873 54.2965 32.4605 53.7085 32.1648C53.126 31.8745 52.3762 31.7293 51.47 31.7293C50.3589 31.7293 49.5767 32.0895 49.1236 32.8153C48.6705 33.541 48.444 34.4657 48.444 35.5893C48.444 37.1483 48.773 38.5031 49.4257 39.6643C50.0784 40.8255 51.0439 41.4061 52.3223 41.4061C53.072 41.4061 53.6816 41.1911 54.1454 40.761C54.6093 40.3309 54.8413 39.7503 54.8413 39.0138C54.8413 38.2881 54.6687 37.8472 54.3288 37.6859C53.989 37.53 53.3525 37.4494 52.4248 37.4494C51.9986 37.4494 51.6049 37.4924 51.2381 37.573C50.8713 37.6537 50.5476 37.8956 50.2726 38.2827C50.2726 37.8849 50.4937 37.4763 50.9306 37.0516C51.3675 36.6269 51.9015 36.4118 52.5272 36.4118C52.743 36.4118 52.9696 36.4118 53.2015 36.4118C53.4334 36.4118 53.6708 36.4118 53.9135 36.4118C54.7388 36.4118 55.4292 36.3903 55.9902 36.3473C56.5512 36.3043 56.9773 36.2237 57.2793 36.1C57.1607 36.4172 56.9341 36.7344 56.5997 37.0623C56.2599 37.3849 55.7906 37.5462 55.1811 37.5462C55.3375 37.729 55.4454 37.9064 55.5047 38.0784C55.5641 38.2504 55.591 38.5192 55.591 38.8955C55.591 39.9331 55.262 40.6643 54.5985 41.0836C53.9351 41.5029 53.072 41.7126 52.004 41.7126C50.2186 41.7126 48.9241 41.2341 48.1204 40.2772C47.3167 39.3203 46.9121 38.202 46.9121 36.9226C46.9121 35.2237 47.3706 33.8744 48.2822 32.869C49.1938 31.8745 50.4721 31.3691 52.1119 31.3691Z" fill="white"/>
<path d="M27.8603 65.3021C27.7794 65.5279 27.6284 65.6784 27.391 65.7429C27.1591 65.8074 26.8948 65.7913 26.6143 65.6838C26.6521 65.8666 26.706 66.1139 26.7815 66.4203C26.857 66.7267 26.9919 67.0654 27.1915 67.4256C27.391 67.7858 27.6446 68.017 27.9412 68.1138C28.0923 68.1621 28.2649 68.1729 28.4591 68.1406C28.6478 68.1084 28.7881 68.0707 28.8798 68.0277C28.718 68.146 28.5454 68.2213 28.3512 68.2535C28.1624 68.2858 27.9251 68.2589 27.65 68.1675C27.3047 68.0546 27.035 67.8557 26.8301 67.5654C26.6305 67.2805 26.4849 66.9633 26.404 66.6246C26.3176 66.2859 26.2529 65.8988 26.2098 65.4634C26.528 65.5817 26.7815 65.63 26.9703 65.6193C27.1591 65.6032 27.294 65.4795 27.3749 65.2483C27.4666 64.9957 27.4558 64.786 27.3425 64.6193C27.2346 64.4527 26.9649 64.2968 26.5388 64.1355C26.3015 64.7645 26.0641 65.3935 25.8268 66.0225C25.7944 66.1031 25.7944 66.1838 25.8214 66.2644C25.8484 66.3451 25.9131 66.4311 26.021 66.5171C25.5193 66.3343 25.2712 66.2375 24.7696 66.0386C24.9206 66.0709 25.0501 66.0655 25.1579 66.0279C25.2658 65.9902 25.3413 65.9203 25.3791 65.8182C25.5463 65.3827 25.6326 65.1677 25.7998 64.7323C25.8484 64.6032 25.9293 64.4688 26.0426 64.3344C26.1558 64.2 26.2637 64.114 26.377 64.071C25.8699 63.8775 25.5085 63.8022 25.2874 63.8452C25.0662 63.8936 24.9152 64.0119 24.8343 64.2161C24.7534 64.4097 24.7372 64.6032 24.7911 64.8075C24.8397 65.0064 24.9853 65.2161 25.2173 65.4311C24.9152 65.3129 24.7156 65.1462 24.6185 64.9258C24.5214 64.7107 24.5161 64.485 24.6131 64.2592C24.7318 63.9742 24.9422 63.8076 25.2335 63.7592C25.5301 63.7108 25.9563 63.7968 26.5226 64.0119C26.5496 63.9957 26.5658 63.9904 26.5927 63.9742C26.582 63.9957 26.582 64.0065 26.5712 64.028C27.1321 64.2377 27.5097 64.4258 27.7039 64.6086C27.9035 64.8075 27.952 65.0333 27.8603 65.3021Z" fill="white"/>
<path d="M28.9872 65.7217C29.1868 65.7862 29.3163 65.8991 29.3864 66.0712C29.4565 66.2432 29.4619 66.426 29.4026 66.6249C29.3378 66.8346 29.1976 66.9958 28.9764 67.1087C28.7553 67.2216 28.5449 67.2431 28.3346 67.1732C28.1404 67.1087 28.0055 66.9905 27.9354 66.8184C27.8653 66.6464 27.8653 66.4582 27.9354 66.2539C28.0055 66.0497 28.1458 65.8938 28.3561 65.7862C28.5719 65.6733 28.7823 65.6518 28.9872 65.7217ZM28.3238 66.1518C28.2644 66.34 28.2321 66.5174 28.2321 66.6948C28.2321 66.8668 28.3292 66.9851 28.5126 67.0442C28.6204 67.0765 28.7175 67.0657 28.8092 67.0012C28.9009 66.9421 28.9657 66.8453 29.0088 66.7163C29.0681 66.5335 29.0897 66.3507 29.0681 66.1787C29.052 66.0067 28.9657 65.8938 28.8092 65.84C28.7013 65.8077 28.6043 65.8185 28.518 65.8776C28.4317 65.9368 28.3669 66.0282 28.3238 66.1518Z" fill="white"/>
<path d="M31.3022 66.3404C31.3399 66.3512 31.3831 66.4157 31.437 66.534C31.491 66.6522 31.5017 66.7705 31.4748 66.878C31.4586 66.9318 31.3237 67.0877 31.0648 67.335C30.8059 67.5823 30.6063 67.7812 30.4661 67.9263C30.3259 68.0715 30.2395 68.2113 30.2018 68.3457C30.1694 68.4586 30.1748 68.5715 30.2234 68.679C30.2719 68.7919 30.3528 68.8618 30.4769 68.894C30.574 68.9209 30.6603 68.9209 30.7304 68.8833C30.8005 68.851 30.876 68.7811 30.9623 68.6736C30.9138 68.851 30.8221 68.9585 30.6926 68.9908C30.5578 69.023 30.4175 69.0231 30.2611 68.98C30.0615 68.9263 29.9267 68.8564 29.8512 68.7704C29.7757 68.6844 29.7595 68.5661 29.808 68.4156C29.8458 68.2919 29.9159 68.1844 30.0292 68.093C30.1425 68.0016 30.2935 67.8833 30.4823 67.7489C30.4607 67.6414 30.4391 67.5016 30.4068 67.3135C30.3744 67.1307 30.3366 66.9425 30.2881 66.7597C30.2395 66.5716 30.2018 66.4748 30.1748 66.4587C30.1478 66.4426 30.1209 66.4318 30.0939 66.4264C30.04 66.4103 29.9752 66.4049 29.9105 66.4103C29.8404 66.4157 29.7757 66.4264 29.7109 66.4426C29.8134 66.3619 29.9321 66.2813 30.0615 66.2114C30.1964 66.1415 30.3043 66.1146 30.3852 66.1361C30.4985 66.1684 30.5848 66.3727 30.6549 66.7436C30.725 67.1146 30.7843 67.3511 30.8221 67.4479C30.8814 67.3941 30.9408 67.3296 31.0001 67.2543C31.0594 67.1845 31.1026 67.1038 31.1242 67.0178C31.1511 66.921 31.1457 66.835 31.1134 66.7544C31.081 66.6737 31.0217 66.5985 30.9354 66.534C30.9893 66.4802 31.0486 66.4318 31.108 66.3834C31.1727 66.335 31.2374 66.3189 31.3022 66.3404Z" fill="white"/>
<path d="M33.1943 66.8936C33.0702 67.4151 33.0109 67.6732 32.8922 68.1893C32.8868 68.2215 32.903 68.2376 32.93 68.2484C32.9515 68.2538 32.9839 68.2538 33.0163 68.243C33.0486 68.2376 33.108 68.2215 33.1889 68.2C33.1403 68.2538 33.0756 68.3075 32.9839 68.3505C32.8922 68.3935 32.8113 68.4043 32.7412 68.3882C32.7034 68.3774 32.6549 68.3398 32.6009 68.2753C32.547 68.2108 32.5362 68.1301 32.5524 68.0441C32.5686 67.9688 32.5794 67.9312 32.5955 67.8559C32.4068 67.9635 32.2503 68.0441 32.1263 68.1032C32.0022 68.1624 31.8997 68.1839 31.8188 68.1624C31.7325 68.1409 31.6678 68.0764 31.63 67.9635C31.5869 67.8559 31.5869 67.7215 31.63 67.5656C31.7109 67.2485 31.8674 67.028 32.0993 66.899C32.3258 66.77 32.5848 66.7431 32.8814 66.813C33.0001 66.8506 33.0648 66.8668 33.1943 66.8936ZM32.0508 67.399C32.0238 67.5119 32.0184 67.6033 32.0454 67.6678C32.0723 67.7323 32.1209 67.7699 32.191 67.7914C32.2503 67.8076 32.3205 67.8076 32.396 67.7861C32.4715 67.7699 32.5524 67.7377 32.6387 67.7C32.7142 67.3882 32.752 67.2323 32.8275 66.9205C32.6441 66.8775 32.4823 66.9044 32.3366 67.0065C32.1856 67.0979 32.0939 67.2323 32.0508 67.399Z" fill="white"/>
<path d="M33.7922 66.786C33.83 66.6193 33.9109 66.4849 34.0295 66.3882C34.1536 66.2914 34.2885 66.2591 34.4395 66.2914C34.5689 66.3183 34.6337 66.3344 34.7685 66.3613C34.6606 66.4795 34.5474 66.5333 34.4233 66.5172C34.2992 66.5011 34.2291 66.5064 34.2237 66.5441C34.0943 67.1408 33.9648 67.7375 33.8354 68.3343C33.8246 68.3773 33.8408 68.3988 33.8731 68.4095C33.9055 68.4149 33.9486 68.4095 34.008 68.388C34.0673 68.3665 34.132 68.3396 34.2075 68.2966C34.1212 68.3934 34.0241 68.4687 33.9109 68.5278C33.7976 68.5869 33.7005 68.6084 33.6196 68.5923C33.5441 68.5762 33.4955 68.5386 33.474 68.4794C33.4524 68.4203 33.4524 68.345 33.4686 68.2536C33.5926 67.6623 33.6574 67.372 33.7922 66.786Z" fill="white"/>
<path d="M37.4883 66.8512C37.6123 66.8728 37.8011 66.9211 38.0439 67.0018C38.2866 67.0824 38.443 67.1254 38.5131 67.1362C38.416 67.2706 38.3567 67.3673 38.3243 67.4265C38.292 67.4856 38.265 67.5609 38.238 67.6576C38.1895 67.4265 38.087 67.2598 37.9252 67.1523C37.7634 67.0448 37.553 66.9695 37.2887 66.9319C36.9651 66.8835 36.7169 66.948 36.5497 67.1308C36.3825 67.3136 36.2692 67.5663 36.2099 67.8834C36.1344 68.3243 36.1614 68.7329 36.307 69.093C36.4526 69.4586 36.7223 69.6737 37.1161 69.7328C37.348 69.7704 37.5422 69.7328 37.704 69.6306C37.8659 69.5285 37.9576 69.3726 37.9845 69.1629C38.0115 68.9533 37.9791 68.8242 37.882 68.7597C37.785 68.7006 37.5962 68.6522 37.3157 68.6092C37.1862 68.5877 37.0676 68.5823 36.9543 68.5877C36.841 68.5931 36.7331 68.6468 36.6306 68.7436C36.6468 68.6307 36.7331 68.5232 36.8842 68.4264C37.0352 68.3243 37.2024 68.292 37.3912 68.3189C37.4559 68.3297 37.526 68.3404 37.5962 68.3512C37.6663 68.3619 37.7364 68.3727 37.8119 68.3834C38.06 68.421 38.2704 68.4425 38.4376 68.4533C38.6048 68.4641 38.7397 68.4533 38.8314 68.4318C38.7828 68.5178 38.7073 68.6038 38.5887 68.6791C38.4754 68.7597 38.3243 68.7866 38.141 68.7597C38.1841 68.8189 38.2057 68.8726 38.2165 68.9264C38.2273 68.9801 38.2273 69.0554 38.2111 69.1629C38.1733 69.4586 38.0439 69.6575 37.8227 69.7489C37.6016 69.8403 37.3265 69.8618 36.9974 69.8134C36.4472 69.7274 36.0697 69.5231 35.8755 69.2113C35.6759 68.8941 35.6166 68.5554 35.6813 68.1899C35.7676 67.706 35.978 67.3512 36.2962 67.1093C36.6145 66.8566 37.0082 66.776 37.4883 66.8512Z" fill="white"/>
<path d="M40.5237 68.0875C40.4752 68.6197 40.4482 68.8831 40.3996 69.4154C40.3996 69.4476 40.4158 69.4638 40.4428 69.4691C40.4644 69.4691 40.4913 69.4638 40.5291 69.453C40.5615 69.4423 40.6154 69.4208 40.6909 69.3885C40.6532 69.4476 40.5884 69.5068 40.5075 69.5659C40.4212 69.6197 40.3457 69.6465 40.2756 69.6358C40.2324 69.6304 40.1839 69.5982 40.1245 69.539C40.0652 69.4799 40.0382 69.4046 40.049 69.3186C40.0544 69.2433 40.0598 69.2003 40.0706 69.1251C39.9034 69.2541 39.7578 69.3562 39.6391 69.4369C39.5204 69.5175 39.4233 69.5498 39.3424 69.539C39.2561 69.5283 39.186 69.4745 39.1267 69.367C39.0727 69.2648 39.0511 69.1304 39.0727 68.9745C39.1105 68.652 39.2345 68.4101 39.4449 68.2542C39.6553 68.0983 39.9034 68.0337 40.2001 68.0606C40.3241 68.066 40.3942 68.0714 40.5237 68.0875ZM39.4611 68.738C39.4503 68.8563 39.4611 68.9423 39.4935 69.0014C39.5258 69.0606 39.5798 69.0928 39.6499 69.1036C39.7092 69.1089 39.7793 69.0982 39.8495 69.0713C39.925 69.0444 40.0005 69.0014 40.076 68.953C40.1084 68.6359 40.1245 68.4746 40.1569 68.152C39.9681 68.1359 39.8117 68.1843 39.6822 68.3025C39.5582 68.4262 39.4827 68.566 39.4611 68.738Z" fill="white"/>
<path d="M41.3941 68.1406C41.4642 68.146 41.5074 68.1836 41.5182 68.2481C41.529 68.3127 41.5344 68.4256 41.5236 68.5815C41.5182 68.646 41.5182 68.6782 41.5128 68.7427C41.6207 68.6245 41.7232 68.4954 41.831 68.3825C41.9551 68.2535 42.09 68.189 42.2086 68.1998C42.2787 68.2051 42.3273 68.232 42.365 68.2804C42.4028 68.3288 42.419 68.3879 42.4136 68.4524C42.4082 68.5331 42.3543 68.6191 42.2518 68.7159C42.1493 68.8073 42.0468 68.8986 41.9497 68.9739C41.9605 68.9524 41.9767 68.9094 41.9929 68.8556C42.009 68.8019 42.0198 68.7535 42.0198 68.7051C42.0252 68.6513 42.0144 68.6083 41.9983 68.5761C41.9821 68.5438 41.9497 68.5223 41.9066 68.5169C41.858 68.5116 41.7987 68.5492 41.7178 68.6298C41.6369 68.7105 41.5667 68.7857 41.4912 68.8664C41.4696 69.1352 41.4589 69.2696 41.4427 69.533C41.3941 69.5653 41.3456 69.6029 41.2809 69.6352C41.2161 69.6674 41.1514 69.6889 41.0759 69.6943C41.1136 69.2212 41.1352 68.9847 41.173 68.5116C41.1784 68.4632 41.1514 68.4363 41.1029 68.4309C41.0813 68.4309 41.0543 68.4363 41.0219 68.4471C40.9896 68.4578 40.9572 68.4847 40.9141 68.5169C40.9626 68.4417 41.0381 68.361 41.1514 68.2697C41.2647 68.1836 41.3456 68.1406 41.3941 68.1406Z" fill="white"/>
<path d="M44.0901 69.6357C44.0901 69.6679 44.1063 69.684 44.1387 69.684C44.1602 69.684 44.1872 69.6787 44.2196 69.6625C44.2519 69.6464 44.3059 69.6249 44.376 69.5873C44.3436 69.6464 44.2897 69.7056 44.2088 69.7647C44.1279 69.8238 44.047 69.8561 43.9768 69.8615C43.9391 69.8615 43.8851 69.8292 43.8204 69.7754C43.7557 69.7163 43.7287 69.6464 43.7287 69.5604C43.7287 69.4851 43.7341 69.4421 43.7341 69.3669C43.5777 69.5066 43.4428 69.6142 43.3296 69.7002C43.2163 69.7862 43.1192 69.8292 43.0383 69.8238C42.952 69.8184 42.8765 69.7701 42.8117 69.6679C42.747 69.5658 42.72 69.4368 42.7308 69.2755C42.747 68.9475 42.8549 68.7002 43.0491 68.5336C43.2433 68.3615 43.4806 68.2809 43.7719 68.2917C43.7773 68.1949 43.7773 68.1465 43.7827 68.0444C43.788 67.8723 43.842 67.7272 43.9391 67.6143C44.0362 67.496 44.1656 67.4423 44.3221 67.4476C44.4515 67.453 44.5162 67.453 44.6511 67.453C44.5702 67.5928 44.4623 67.6627 44.3382 67.668C44.2088 67.6734 44.144 67.6949 44.144 67.7272C44.1279 68.3669 44.1063 69.0013 44.0901 69.6357ZM43.1138 69.0228C43.1084 69.1411 43.1246 69.2271 43.1623 69.2862C43.2001 69.3454 43.254 69.3722 43.3242 69.3776C43.3835 69.3776 43.4536 69.3669 43.5237 69.3346C43.5939 69.3024 43.6694 69.2593 43.7395 69.2002C43.7503 68.8776 43.7557 68.7217 43.7665 68.3992C43.5777 68.3938 43.4266 68.4529 43.3026 68.582C43.1893 68.7056 43.1246 68.8508 43.1138 69.0228Z" fill="white"/>
<path d="M45.5525 68.3125C45.6496 68.3125 45.7305 68.3286 45.7952 68.3609C45.8599 68.3931 45.9462 68.463 46.0595 68.5705C45.6981 68.9254 45.5093 69.0974 45.1372 69.4468C45.1857 69.5275 45.2504 69.5759 45.3259 69.6027C45.4015 69.6242 45.4878 69.6404 45.5795 69.6404C45.6766 69.6404 45.7629 69.6189 45.8438 69.5759C45.9247 69.5329 46.0002 69.4898 46.0649 69.4415C45.9624 69.592 45.8492 69.6995 45.7305 69.7748C45.6064 69.85 45.4662 69.8877 45.3044 69.8823C45.0778 69.8823 44.916 69.8124 44.8243 69.6726C44.7326 69.5328 44.6895 69.3877 44.6895 69.2264C44.6948 68.9469 44.7812 68.7265 44.9484 68.5598C45.1156 68.3931 45.3152 68.3125 45.5525 68.3125ZM45.1048 69.3662C45.1965 69.2856 45.2828 69.2049 45.3745 69.1243C45.5093 68.9899 45.5741 68.8824 45.5741 68.8125C45.5741 68.7264 45.5525 68.6619 45.5093 68.6136C45.4662 68.5652 45.4122 68.5437 45.3421 68.5437C45.2558 68.5437 45.1857 68.5921 45.1318 68.6942C45.0778 68.7963 45.0562 68.9146 45.0509 69.049C45.0509 69.1081 45.0508 69.1619 45.0616 69.2157C45.067 69.264 45.0832 69.3124 45.1048 69.3662Z" fill="white"/>
<path d="M47.7585 69.6038C47.7585 69.6576 47.78 69.6845 47.8178 69.6791C47.8717 69.6791 47.9418 69.6361 48.0282 69.5501C47.9796 69.6415 47.9203 69.7167 47.8448 69.7651C47.7692 69.8189 47.6991 69.8457 47.6398 69.8457C47.5697 69.8457 47.5157 69.8296 47.4726 69.792C47.4294 69.7544 47.4078 69.6952 47.4025 69.6146C47.3917 69.292 47.3863 69.1307 47.3755 68.8082C47.3755 68.7544 47.3647 68.7114 47.3539 68.6792C47.3377 68.6469 47.3054 68.6308 47.246 68.6361C47.1813 68.6361 47.1004 68.7007 46.9979 68.8297C46.8954 68.9587 46.8469 69.034 46.8469 69.0555C46.8523 69.2974 46.8523 69.421 46.8577 69.663C46.8469 69.7113 46.8037 69.7597 46.7282 69.8081C46.6527 69.8511 46.5826 69.878 46.5071 69.878C46.5017 69.3888 46.4963 69.1415 46.4909 68.6523C46.4909 68.6146 46.4747 68.5931 46.4423 68.5931C46.4046 68.5931 46.3344 68.6254 46.2266 68.6953C46.3183 68.577 46.4046 68.4856 46.4855 68.4211C46.561 68.3566 46.6257 68.319 46.6689 68.319C46.739 68.319 46.7821 68.3512 46.8037 68.4265C46.8253 68.5017 46.8361 68.6146 46.8415 68.7652C46.8415 68.8189 46.8415 68.8458 46.8469 68.8996C46.944 68.749 47.0411 68.6146 47.1489 68.491C47.2514 68.3673 47.3647 68.3028 47.4834 68.2975C47.5751 68.2921 47.6398 68.3243 47.6668 68.3835C47.6991 68.4426 47.7153 68.534 47.7207 68.6523C47.7207 68.6899 47.7207 68.7222 47.7261 68.7598C47.7261 68.792 47.7261 68.8297 47.7315 68.8673C47.7315 68.9372 47.7369 69.0125 47.7423 69.0877C47.7477 69.1684 47.7477 69.2598 47.7531 69.3727C47.7531 69.4372 47.7585 69.4909 47.7585 69.5339C47.7585 69.5769 47.7585 69.5985 47.7585 69.6038Z" fill="white"/>
<path d="M50.9682 67.1895C50.9682 67.2163 50.9736 67.2271 50.9736 67.254C51.0005 67.2486 51.0221 67.2432 51.0437 67.2432C51.2001 67.2271 51.3727 67.2325 51.5669 67.254C51.7611 67.2755 51.9445 67.3507 52.1171 67.4798C52.2897 67.6088 52.3976 67.8077 52.4353 68.0926C52.4677 68.3453 52.4191 68.5442 52.2843 68.6894C52.1494 68.8345 51.9714 68.9205 51.7395 68.942C51.5993 68.9582 51.4806 68.942 51.3943 68.899C51.3026 68.856 51.254 68.8076 51.2487 68.7539C51.3727 68.8238 51.4482 68.8614 51.486 68.8721C51.5237 68.8829 51.5777 68.8829 51.6586 68.8721C51.7988 68.856 51.9121 68.7861 51.993 68.6625C52.0793 68.5388 52.1063 68.3507 52.0739 68.1034C52.0362 67.7647 51.9013 67.5496 51.6748 67.4583C51.4482 67.3669 51.2163 67.3346 50.9736 67.3561C51.0383 68.012 51.103 68.6625 51.1677 69.3183C51.1839 69.4635 51.281 69.5764 51.4644 69.6517C51.6478 69.7269 51.7449 69.8076 51.7557 69.9043C51.7557 69.9258 51.7611 69.9473 51.7557 69.9581C51.691 69.8613 51.6047 69.8076 51.4968 69.7861C51.3889 69.7646 51.2487 69.7646 51.0868 69.7807C50.7632 69.8129 50.5097 69.9097 50.3317 70.0764C50.1537 70.243 50.0674 70.4043 50.0836 70.5656C50.0889 70.6247 50.0997 70.6677 50.1213 70.6892C50.1429 70.7161 50.2076 70.7591 50.3209 70.8183C50.2939 70.8236 50.2723 70.8236 50.2562 70.829C50.1699 70.8344 50.0889 70.8236 50.0134 70.7968C49.9379 70.7699 49.9002 70.7054 49.8894 70.6086C49.8786 70.4849 49.9487 70.3344 50.0889 70.1785C50.2184 70.0441 50.364 69.9097 50.4935 69.7753C50.6391 69.6248 50.7039 69.4796 50.6931 69.3667C50.6499 68.9152 50.6337 68.6947 50.5906 68.2431C50.5798 68.1356 50.5906 67.9905 50.6229 67.8023C50.6553 67.6142 50.72 67.4744 50.8279 67.3776C50.2993 67.426 49.9433 67.5228 49.7653 67.6679C49.5873 67.8184 49.5064 67.9959 49.5226 68.2055C49.5388 68.4474 49.6197 68.6517 49.7707 68.813C49.9217 68.9743 50.1321 69.0979 50.418 69.1893C50.0889 69.2162 49.8354 69.1571 49.652 69.0119C49.4686 68.8668 49.3662 68.6517 49.35 68.3722C49.3284 68.0389 49.4578 67.7808 49.7329 67.6034C50.0134 67.426 50.4018 67.3131 50.9088 67.2647C50.9304 67.2325 50.9412 67.2163 50.9682 67.1895Z" fill="white"/>
<path d="M52.6888 67.635C52.6672 67.4629 52.6942 67.3124 52.7751 67.178C52.856 67.0436 52.9747 66.9683 53.1257 66.9468C53.2551 66.9307 53.3253 66.9199 53.4547 66.8984C53.3954 67.049 53.3037 67.135 53.1796 67.1619C53.0556 67.1887 52.9962 67.2156 53.0016 67.2533C53.0825 67.8607 53.1688 68.4629 53.2498 69.0703C53.2551 69.1134 53.2767 69.1349 53.3145 69.1295C53.3468 69.1241 53.3846 69.1026 53.4331 69.065C53.4817 69.0273 53.5302 68.9736 53.5896 68.9144C53.541 69.0327 53.4763 69.1402 53.39 69.2316C53.3037 69.3284 53.2174 69.3768 53.1419 69.3875C53.0664 69.3983 53.007 69.3768 52.9639 69.3284C52.9207 69.28 52.8937 69.2101 52.883 69.1134C52.802 68.5274 52.7643 68.2317 52.6888 67.635Z" fill="white"/>
<path d="M55.0679 67.5176C55.1596 68.0444 55.2027 68.3079 55.2944 68.8293C55.2998 68.8616 55.3214 68.8723 55.3537 68.867C55.3753 68.8616 55.4023 68.8508 55.4293 68.8293C55.4562 68.8078 55.5048 68.7702 55.5695 68.7218C55.5479 68.7917 55.5048 68.8616 55.44 68.9368C55.3753 69.0121 55.3052 69.0551 55.2351 69.0659C55.1919 69.0712 55.138 69.0551 55.0625 69.0121C54.987 68.9691 54.9438 68.9046 54.933 68.8186C54.9222 68.7433 54.9114 68.7057 54.9006 68.625C54.7712 68.7971 54.6579 68.9315 54.5662 69.039C54.4745 69.1411 54.3882 69.2003 54.3073 69.2164C54.221 69.2271 54.1347 69.1949 54.0538 69.1089C53.9729 69.0229 53.9189 68.8992 53.8974 68.7433C53.8488 68.4207 53.9082 68.1573 54.0646 67.9477C54.221 67.7434 54.4476 67.6143 54.7442 67.566C54.8737 67.5552 54.9384 67.5445 55.0679 67.5176ZM54.2156 68.4261C54.2318 68.5444 54.2695 68.625 54.3181 68.6734C54.3666 68.7218 54.426 68.7379 54.4961 68.7272C54.5554 68.7164 54.6202 68.6895 54.6849 68.6465C54.7496 68.6035 54.809 68.5444 54.8737 68.4691C54.8197 68.152 54.7928 67.996 54.7388 67.6789C54.5554 67.7111 54.4152 67.7971 54.3181 67.9477C54.2264 68.0982 54.1886 68.2595 54.2156 68.4261Z" fill="white"/>
<path d="M56.9233 67.0826C56.961 67.0772 57.0312 67.1095 57.1336 67.1955C57.2361 67.2761 57.3009 67.3729 57.3224 67.4858C57.3332 67.5396 57.2847 67.7385 57.166 68.0772C57.0473 68.4159 56.961 68.6793 56.9017 68.8728C56.8478 69.0664 56.8316 69.2276 56.8585 69.3674C56.8801 69.4803 56.9395 69.5771 57.0312 69.6577C57.1229 69.733 57.2307 69.7599 57.3494 69.733C57.4519 69.7115 57.522 69.6738 57.5706 69.6093C57.6137 69.5502 57.6515 69.4534 57.6838 69.319C57.7216 69.5018 57.6892 69.6362 57.5867 69.7276C57.4843 69.819 57.3548 69.8781 57.1984 69.9104C56.9988 69.9534 56.8424 69.948 56.7399 69.9104C56.6374 69.8674 56.5673 69.7706 56.5403 69.6147C56.5187 69.4911 56.5349 69.362 56.5888 69.2276C56.6482 69.0932 56.7291 68.9212 56.837 68.7169C56.7722 68.6309 56.6859 68.5126 56.5727 68.3675C56.4594 68.2169 56.3407 68.0718 56.2167 67.9266C56.0926 67.7815 56.0117 67.7116 55.9793 67.7062C55.947 67.7008 55.92 67.7062 55.893 67.7116C55.8337 67.7223 55.7797 67.7439 55.7204 67.7815C55.6611 67.8191 55.6071 67.8567 55.5586 67.8998C55.6125 67.7815 55.6827 67.6578 55.7636 67.5342C55.8499 67.4105 55.9308 67.3406 56.0171 67.3245C56.1304 67.303 56.303 67.4428 56.5349 67.7439C56.7669 68.0449 56.9233 68.2277 57.0042 68.2922C57.0312 68.2169 57.0527 68.1309 57.0743 68.0395C57.0959 67.9481 57.0959 67.8567 57.0743 67.7707C57.0527 67.674 57.0096 67.5987 56.9449 67.5396C56.8801 67.4858 56.7938 67.4428 56.6859 67.4213C56.7075 67.3514 56.7399 67.2815 56.7668 67.2063C56.8046 67.1417 56.8532 67.0987 56.9233 67.0826Z" fill="white"/>
<path d="M58.5623 66.7656C58.5353 66.8409 58.5191 66.9108 58.5138 66.9753C58.5084 67.0452 58.5084 67.1043 58.503 67.1581C58.4059 67.0936 58.3142 67.0506 58.2387 67.0344C58.1631 67.0183 58.0768 67.0183 57.9851 67.0398C57.8934 67.0613 57.8341 67.0882 57.8018 67.1312C57.7694 67.1688 57.764 67.2172 57.7748 67.2656C57.7856 67.3247 57.8934 67.3731 58.0984 67.4C58.3034 67.4323 58.4652 67.4699 58.5893 67.5183C58.7133 67.5666 58.7942 67.6688 58.8374 67.8301C58.8805 68.0182 58.8536 68.158 58.7403 68.2494C58.6324 68.3408 58.4814 68.4053 58.2872 68.4537C58.093 68.4967 57.9636 68.4913 57.8934 68.4376C57.8233 68.3838 57.764 68.2225 57.7047 67.9645C57.7802 68.0774 57.8827 68.1688 58.0121 68.244C58.1416 68.3193 58.2818 68.3354 58.4328 68.3032C58.6055 68.2655 58.6756 68.1688 58.6432 68.0236C58.627 67.9537 58.5191 67.9 58.3196 67.8677C58.12 67.8301 57.9582 67.7871 57.8449 67.7387C57.7262 67.6903 57.6507 67.5774 57.613 67.4054C57.5806 67.2548 57.6076 67.1419 57.6885 67.0667C57.7694 66.9914 57.8934 66.9323 58.0499 66.8947C58.093 66.8839 58.1524 66.8785 58.2279 66.8785C58.3034 66.8785 58.3519 66.8785 58.3627 66.8731C58.4005 66.8624 58.4328 66.8516 58.4598 66.8409C58.4922 66.8194 58.5245 66.7979 58.5623 66.7656Z" fill="white"/>
<path d="M59.7708 66.486C59.8679 66.4591 59.9758 66.4645 60.0945 66.4967C60.2131 66.529 60.2887 66.5827 60.3102 66.6687C60.3156 66.6903 60.2994 66.744 60.2509 66.8246C60.2023 66.9053 60.1592 66.9644 60.1214 67.0021C60.0729 66.9053 59.992 66.8354 59.8841 66.7924C59.7762 66.7494 59.6737 66.744 59.582 66.7655C59.4903 66.787 59.431 66.8569 59.3987 66.9644C59.3663 67.0719 59.3663 67.1902 59.3987 67.3139C59.458 67.5397 59.5497 67.6794 59.6845 67.7439C59.8194 67.8085 59.9596 67.8192 60.0999 67.7816C60.1592 67.7654 60.2185 67.7332 60.2833 67.6794C60.3426 67.631 60.4073 67.5719 60.4667 67.502C60.4073 67.6741 60.3318 67.7977 60.2509 67.8837C60.17 67.9697 60.0405 68.0342 59.8625 68.0773C59.6198 68.1418 59.4472 68.1203 59.3501 68.0127C59.253 67.9106 59.1829 67.7655 59.1397 67.588C59.075 67.3192 59.102 67.0827 59.2206 66.8784C59.3339 66.6849 59.5227 66.5505 59.7708 66.486Z" fill="white"/>
<path d="M61.8254 66.2495C61.9441 66.6365 62.0034 66.8301 62.1221 67.2118C62.1329 67.2387 62.1544 67.2494 62.1814 67.244C62.2192 67.2333 62.2785 67.1741 62.3594 67.0774C62.3486 67.158 62.3163 67.2387 62.2623 67.3139C62.2138 67.3892 62.1436 67.4429 62.0573 67.4698C61.971 67.4967 61.9063 67.486 61.8578 67.4483C61.8092 67.4107 61.7715 67.3516 61.7499 67.2817C61.6582 66.9806 61.615 66.8355 61.5233 66.5344C61.5072 66.486 61.491 66.4484 61.4748 66.4269C61.4586 66.4054 61.4209 66.4 61.3723 66.4161C61.2914 66.4376 61.2267 66.5236 61.1673 66.658C61.1134 66.7978 61.0918 66.8892 61.1026 66.9376C61.1512 67.1043 61.1727 67.1849 61.2213 67.3462C61.2482 67.4322 61.2375 67.5236 61.1835 67.615C61.135 67.7064 61.0595 67.7655 60.957 67.7924C60.7952 67.2172 60.6333 66.6419 60.4661 66.0613C60.4176 65.8947 60.4284 65.7388 60.4877 65.599C60.547 65.4538 60.6549 65.3624 60.8005 65.3194C60.93 65.2818 60.9947 65.2657 61.1242 65.2227C61.0864 65.3786 61.0109 65.4807 60.8922 65.5237C60.7736 65.5667 60.7196 65.6043 60.725 65.642C60.8545 66.0882 60.9192 66.314 61.0487 66.7602C61.1134 66.529 61.1889 66.3516 61.2698 66.228C61.3507 66.0989 61.4316 66.0291 61.5018 66.0022C61.5881 65.9753 61.6528 65.9807 61.6959 66.0183C61.7499 66.0452 61.7876 66.1258 61.8254 66.2495Z" fill="white"/>
<path d="M63.0832 65.4863C63.2773 65.4218 63.4553 65.4379 63.6118 65.5293C63.7682 65.6261 63.8815 65.7712 63.9516 65.9648C64.0217 66.1744 64.0055 66.3841 63.8922 66.6045C63.779 66.8249 63.6226 66.9647 63.4122 67.0346C63.218 67.0991 63.04 67.083 62.8782 66.9809C62.7164 66.8841 62.6085 66.7282 62.5384 66.5239C62.4736 66.3196 62.4952 66.1099 62.6031 65.9003C62.7218 65.6906 62.8782 65.5508 63.0832 65.4863ZM62.8027 66.2228C62.862 66.411 62.9483 66.5723 63.0508 66.7121C63.1533 66.8518 63.2989 66.8895 63.4823 66.8303C63.5902 66.7927 63.6603 66.7228 63.6981 66.6207C63.7358 66.5185 63.7358 66.4002 63.6927 66.2766C63.6279 66.0938 63.5416 65.9379 63.423 65.8035C63.3043 65.6691 63.1695 65.6315 63.013 65.6852C62.9052 65.7229 62.835 65.7874 62.7973 65.8895C62.7649 65.9863 62.7649 66.0992 62.8027 66.2228Z" fill="white"/>
<path d="M64.873 64.8504C65.0672 64.7805 65.2452 64.7859 65.407 64.8773C65.5688 64.9687 65.6875 65.1084 65.763 65.302C65.8439 65.5063 65.8331 65.7213 65.7253 65.9417C65.6228 66.1621 65.4664 66.3127 65.2614 66.3879C65.0672 66.4578 64.8892 66.4471 64.7274 66.3557C64.5656 66.2643 64.4469 66.1137 64.3768 65.9095C64.3066 65.7052 64.3174 65.4955 64.4199 65.2805C64.517 65.0708 64.668 64.9256 64.873 64.8504ZM64.6195 65.5976C64.6842 65.7804 64.7759 65.9417 64.8838 66.0815C64.9917 66.2159 65.1373 66.2535 65.3207 66.1836C65.4232 66.146 65.4933 66.0707 65.5311 65.9686C65.5634 65.8611 65.558 65.7482 65.5095 65.6245C65.4394 65.4417 65.3423 65.2912 65.2236 65.1622C65.0996 65.0332 64.9647 65.0009 64.8083 65.06C64.7058 65.0977 64.6357 65.1676 64.6033 65.2697C64.571 65.3665 64.5763 65.4794 64.6195 65.5976Z" fill="white"/>
<path d="M65.7697 64.2704C65.705 64.1091 65.6996 63.9532 65.7427 63.808C65.7913 63.6575 65.8884 63.5553 66.034 63.4962C66.1581 63.4478 66.2228 63.4209 66.3469 63.3672C66.3253 63.5285 66.2552 63.636 66.1419 63.6897C66.0286 63.7435 65.9747 63.7919 65.9909 63.8241C66.2228 64.3886 66.4493 64.9585 66.6813 65.523C66.6975 65.5606 66.7244 65.5767 66.7568 65.5606C66.7838 65.5498 66.8215 65.5176 66.8539 65.4692C66.8916 65.4208 66.9294 65.3563 66.9672 65.2864C66.951 65.4101 66.9078 65.5337 66.8485 65.6466C66.7838 65.7595 66.719 65.8348 66.6435 65.8617C66.568 65.8885 66.5087 65.8885 66.4547 65.8509C66.4008 65.8133 66.3576 65.7541 66.3253 65.6627C66.1041 65.1036 65.9909 64.8295 65.7697 64.2704Z" fill="white"/>
</svg>
