<svg width="15" height="15" viewBox="0 0 15 15" fill="none" xmlns="http://www.w3.org/2000/svg"><path d="M12.803 2.197A7.45 7.45 0 0 0 7.5 0a7.45 7.45 0 0 0-5.303 2.197A7.45 7.45 0 0 0 0 7.5a7.45 7.45 0 0 0 2.197 5.303A7.45 7.45 0 0 0 7.5 15a7.45 7.45 0 0 0 5.303-2.197A7.45 7.45 0 0 0 15 7.5a7.45 7.45 0 0 0-2.197-5.303zm-.331 10.275a6.985 6.985 0 0 1-4.972 2.06 6.985 6.985 0 0 1-4.972-2.06A6.985 6.985 0 0 1 .468 7.5c0-1.878.732-3.644 2.06-4.972A6.985 6.985 0 0 1 7.5.468c1.878 0 3.644.732 4.972 2.06a6.985 6.985 0 0 1 2.06 4.972 6.985 6.985 0 0 1-2.06 4.972z" fill="#333"/><path d="M12.599 3.368a.234.234 0 1 0-.364.295A6.107 6.107 0 0 1 13.594 7.5a6.054 6.054 0 0 1-1.785 4.309A6.054 6.054 0 0 1 7.5 13.593a6.083 6.083 0 0 1-4.062-1.551.234.234 0 0 0-.313.35 6.551 6.551 0 0 0 4.375 1.67 6.52 6.52 0 0 0 4.64-1.922 6.52 6.52 0 0 0 1.922-4.64c0-1.501-.52-2.969-1.463-4.132zM1.406 7.5A6.1 6.1 0 0 1 7.5 1.406a6.08 6.08 0 0 1 4.062 1.552.234.234 0 1 0 .313-.35A6.55 6.55 0 0 0 7.5.938 6.52 6.52 0 0 0 2.86 2.86 6.52 6.52 0 0 0 .938 7.5c0 1.501.52 2.969 1.463 4.132a.234.234 0 0 0 .33.034.235.235 0 0 0 .034-.33A6.106 6.106 0 0 1 1.406 7.5z" fill="#333"/><path d="M9.47 3.74H5.545c-.995 0-1.805.81-1.805 1.805V9.47c0 .995.81 1.805 1.805 1.805H9.47c.995 0 1.805-.81 1.805-1.805V5.545c0-.995-.81-1.805-1.805-1.805zm1.33 5.73c0 .733-.597 1.33-1.33 1.33H5.545c-.733 0-1.33-.597-1.33-1.33V5.545c0-.733.597-1.33 1.33-1.33H9.47c.733 0 1.33.597 1.33 1.33V9.47z" fill="#333"/><path d="M9.614 5.117a.29.29 0 1 0 0 .58.29.29 0 0 0 0-.58zm-2.107.543A1.849 1.849 0 0 0 5.66 7.507a1.85 1.85 0 0 0 1.847 1.847 1.849 1.849 0 0 0 1.847-1.847A1.849 1.849 0 0 0 7.507 5.66zm0 3.219a1.373 1.373 0 0 1-1.372-1.372 1.373 1.373 0 0 1 2.743 0c0 .756-.615 1.372-1.371 1.372z" fill="#333"/></svg>