<svg width="25" height="25" viewBox="0 0 25 25" fill="none" xmlns="http://www.w3.org/2000/svg"><path d="M16.044 18.335c-.485 0-1.072-.122-1.716-.365-1.414-.533-2.951-1.586-4.33-2.965-1.379-1.38-2.432-2.917-2.965-4.332-.485-1.285-.487-2.34-.004-2.822.07-.07.14-.145.214-.221.44-.463.95-.99 1.598-.96.455.018.896.3 1.348.862 1.332 1.658.732 2.249.036 2.934l-.123.121c-.114.114-.329.64 1.672 2.641.653.654 1.21 1.132 1.654 1.421.281.182.782.457.987.252l.124-.125c.684-.695 1.275-1.294 2.932.039.562.45.844.892.863 1.347.027.66-.5 1.16-.963 1.6-.076.072-.15.142-.22.212-.24.24-.623.36-1.107.36zM8.794 7.06c-.468 0-.892.446-1.267.84-.075.079-.149.156-.22.228-.36.36-.323 1.304.093 2.407.514 1.363 1.535 2.852 2.876 4.192 1.34 1.341 2.828 2.362 4.19 2.876 1.104.416 2.049.453 2.408.093.072-.072.148-.145.227-.22.403-.383.86-.817.84-1.299-.013-.33-.254-.686-.716-1.057-1.381-1.11-1.767-.717-2.407-.07l-.126.128c-.305.306-.802.239-1.477-.2-.467-.304-1.046-.8-1.719-1.473-1.66-1.66-2.191-2.675-1.671-3.196l.125-.124c.65-.64 1.043-1.027-.067-2.408-.371-.461-.727-.702-1.058-.716l-.03-.001z" fill="#A38B39"/><path d="M14.328 17.97l-.044.117.044-.117zm-7.295-7.297l.117-.044-.117.044zm-.004-2.822l-.088-.089.088.089zm.214-.221l.09.086-.09-.086zm1.598-.96l-.005.124.005-.125zm1.348.862l.097-.079-.097.079zm.036 2.934l-.087-.09.087.09zm-.123.121l-.088-.088.088.088zm1.672 2.641l-.089.089.089-.089zm1.654 1.421l-.068.105.068-.105zm.987.252l.088.088-.088-.089zm.124-.125l.088.088-.088-.088zm2.932.039l-.078.097.078-.097zm.863 1.347l.125-.005-.125.005zm-.963 1.6l-.086-.091.086.09zm-.22.212l.089.088-.089-.088zM7.527 7.9l.09.086-.09-.086zm-.22.228l.088.089-.089-.089zm.093 2.407l-.117.044.117-.044zm7.067 7.068l.044-.117-.044.117zm2.407.093l-.088-.089.088.089zm.227-.22l.086.091-.086-.09zm.84-1.299l.126-.005-.125.005zm-.716-1.057l-.078.097.078-.097zm-2.407-.07l.089.089-.09-.088zm-.126.128l.089.088-.089-.088zm-1.477-.2l-.069.104.069-.105zm-1.719-1.473l-.088.089.088-.088zM9.825 10.31l-.088-.089.088.09zm.125-.124l-.088-.089.088.09zm-.067-2.408L9.98 7.7l-.097.078zM8.825 7.06l.005-.125-.005.125zm7.22 11.149c-.467 0-1.038-.117-1.673-.357l-.088.234c.654.247 1.255.373 1.76.373v-.25zm-1.673-.357c-1.393-.525-2.916-1.567-4.285-2.937l-.177.177c1.388 1.388 2.94 2.453 4.374 2.994l.088-.234zm-4.285-2.937c-1.37-1.37-2.412-2.893-2.937-4.287l-.234.088c.541 1.435 1.606 2.988 2.994 4.376l.177-.177zM7.15 10.63c-.24-.633-.356-1.203-.357-1.668 0-.467.116-.813.324-1.022l-.176-.177c-.274.274-.399.697-.398 1.2 0 .503.127 1.104.373 1.755l.234-.088zm-.033-2.69c.072-.071.144-.147.216-.223l-.18-.173-.212.22.176.176zm.216-.223c.222-.233.451-.471.703-.649.25-.176.513-.286.8-.273l.01-.25c-.36-.016-.677.124-.954.319-.275.194-.52.45-.74.68l.181.173zm1.503-.922c.402.017.813.267 1.255.816l.195-.157c-.461-.573-.932-.888-1.44-.909l-.01.25zm1.255.816c.66.821.815 1.347.753 1.734-.063.393-.351.683-.706 1.033l.175.178c.34-.336.7-.683.778-1.172.08-.494-.132-1.093-.805-1.93l-.194.157zm.047 2.767l-.124.121.176.178.123-.121-.175-.178zm-.124.122a.386.386 0 0 0-.105.261c-.006.124.026.284.122.493.192.416.651 1.06 1.654 2.064l.177-.177c-.997-.997-1.43-1.616-1.603-1.992-.086-.187-.104-.305-.1-.375.003-.066.025-.091.032-.097l-.177-.177zm1.671 2.818c.656.655 1.22 1.14 1.675 1.437l.137-.21c-.434-.282-.983-.753-1.635-1.404l-.177.177zm1.675 1.437c.143.093.348.213.548.284.1.035.206.06.306.06a.398.398 0 0 0 .29-.11l-.178-.176c-.02.021-.054.036-.113.036a.688.688 0 0 1-.221-.046 2.53 2.53 0 0 1-.496-.258l-.136.21zm1.144.235l.123-.125-.177-.176-.124.125.178.175zm.123-.126c.35-.354.64-.642 1.032-.704.387-.062.913.093 1.734.753l.156-.195c-.836-.672-1.434-.884-1.929-.805-.488.077-.835.436-1.17.776l.178.175zm2.766.049c.55.442.8.852.816 1.255l.25-.01c-.021-.508-.336-.979-.91-1.44l-.156.195zm.816 1.255c.012.293-.098.556-.274.805-.178.25-.416.477-.65.699l.172.181c.23-.218.487-.461.681-.735.196-.276.336-.593.32-.96l-.25.01zm-.924 1.504c-.076.072-.152.144-.222.214l.177.177c.068-.068.14-.137.217-.21l-.172-.18zm-.222.214c-.208.208-.553.325-1.019.325v.25c.5 0 .922-.125 1.196-.398l-.177-.177zM8.794 6.935c-.274 0-.524.13-.744.298-.22.167-.427.385-.613.58l.18.173c.19-.199.382-.4.584-.554.203-.154.399-.247.593-.247v-.25zm-1.357.878c-.076.08-.148.156-.219.227l.177.177.223-.23-.181-.174zm-.219.227c-.218.217-.297.588-.28 1.018.016.435.134.961.345 1.521l.234-.088c-.205-.543-.314-1.041-.33-1.443-.016-.409.066-.69.208-.831l-.177-.177zm.065 2.54c.522 1.383 1.555 2.886 2.904 4.236l.177-.177c-1.331-1.332-2.341-2.806-2.847-4.148l-.234.088zm2.904 4.236c1.35 1.35 2.852 2.382 4.236 2.904l.088-.234c-1.342-.506-2.816-1.515-4.147-2.847l-.177.177zm4.236 2.904c.56.212 1.085.329 1.521.346.43.016.8-.064 1.018-.282l-.177-.177c-.141.143-.422.224-.831.209-.402-.016-.9-.125-1.443-.33l-.088.234zm2.54.064c.07-.07.145-.142.224-.217l-.172-.18a16.79 16.79 0 0 0-.23.22l.177.177zm.224-.217c.2-.19.423-.401.593-.628.17-.226.298-.484.287-.767l-.25.01c.008.2-.082.4-.237.607a5.068 5.068 0 0 1-.565.597l.172.181zm.88-1.395c-.017-.386-.294-.773-.764-1.15l-.156.195c.454.365.658.69.67.966l.25-.01zm-.764-1.15c-.692-.556-1.17-.767-1.574-.72a1.092 1.092 0 0 0-.534.23c-.157.117-.308.27-.466.431l.178.176c.162-.164.299-.303.438-.407a.844.844 0 0 1 .413-.182c.294-.034.7.114 1.389.667l.156-.194zm-2.574-.06l-.125.128.177.176.126-.127-.178-.176zm-.125.127c-.12.121-.28.173-.495.144-.22-.03-.495-.145-.826-.36l-.137.21c.345.224.657.361.93.398.278.038.52-.03.705-.215l-.177-.177zm-1.321-.216c-.457-.297-1.028-.786-1.698-1.456l-.177.177c.675.675 1.26 1.178 1.738 1.488l.137-.21zm-1.698-1.456c-.829-.828-1.365-1.486-1.631-1.995-.133-.254-.194-.462-.196-.629a.52.52 0 0 1 .155-.395l-.177-.177a.77.77 0 0 0-.228.575c.003.222.082.47.224.742.285.544.844 1.224 1.676 2.056l.177-.177zm-1.672-3.019l.125-.124-.176-.178-.125.124.176.178zm.125-.124c.16-.158.314-.31.432-.466.12-.16.207-.331.23-.535.048-.404-.163-.882-.72-1.574l-.195.156c.554.689.702 1.095.668 1.39a.845.845 0 0 1-.183.413 4.182 4.182 0 0 1-.408.438l.176.178zM9.98 7.7c-.377-.469-.763-.747-1.15-.763l-.01.25c.275.011.6.216.965.67L9.98 7.7zm-1.15-.763l-.036-.001v.25h.026l.01-.25z" fill="#A38B39"/><mask id="a" fill="#fff"><path d="M21.339 3.661A12.418 12.418 0 0 0 12.5 0C9.161 0 6.022 1.3 3.661 3.661A12.418 12.418 0 0 0 0 12.5c0 3.34 1.3 6.478 3.661 8.84C6.022 23.7 9.161 25 12.5 25c3.339 0 6.478-1.3 8.839-3.66A12.426 12.426 0 0 0 25 12.5c0-3.339-1.3-6.478-3.661-8.839zm-.553 17.126a11.641 11.641 0 0 1-8.286 3.432c-3.13 0-6.073-1.22-8.286-3.432A11.641 11.641 0 0 1 .78 12.5C.78 9.37 2 6.427 4.213 4.214A11.642 11.642 0 0 1 12.5.78c3.13 0 6.073 1.22 8.286 3.433A11.642 11.642 0 0 1 24.22 12.5c0 3.13-1.22 6.073-3.433 8.287z"/></mask><path d="M21.339 3.661l-.707.707.707-.707zm-17.678 0l-.707-.707.707.707zm0 17.678l.707-.707-.707.707zm17.678 0l-.707-.707.707.707zm-.553-.552l-.707-.707.707.707zm-16.572 0l.707-.707-.707.707zM20.786 4.214l-.707.707.707-.707zm1.26-1.26A13.418 13.418 0 0 0 12.5-1v2c3.074 0 5.959 1.195 8.132 3.368l1.414-1.414zM12.5-1a13.418 13.418 0 0 0-9.546 3.954l1.414 1.414A11.418 11.418 0 0 1 12.5 1v-2zM2.954 2.954A13.418 13.418 0 0 0-1 12.5h2a11.42 11.42 0 0 1 3.368-8.132L2.954 2.954zM-1 12.5c0 3.605 1.406 6.998 3.954 9.546l1.414-1.414A11.418 11.418 0 0 1 1 12.5h-2zm3.954 9.546A13.418 13.418 0 0 0 12.5 26v-2a11.418 11.418 0 0 1-8.132-3.368l-1.414 1.414zM12.5 26c3.604 0 6.998-1.405 9.546-3.954l-1.414-1.414A11.418 11.418 0 0 1 12.5 24v2zm9.546-3.954A13.418 13.418 0 0 0 26 12.5h-2c0 3.074-1.195 5.959-3.368 8.132l1.414 1.414zM26 12.5c0-3.604-1.406-6.997-3.954-9.546l-1.414 1.414A11.418 11.418 0 0 1 24 12.5h2zm-5.92 7.58a10.641 10.641 0 0 1-7.58 3.139v2c3.396 0 6.593-1.324 8.994-3.725l-1.415-1.415zm-7.58 3.139a10.642 10.642 0 0 1-7.58-3.14l-1.413 1.415c2.4 2.4 5.598 3.725 8.993 3.725v-2zm-7.58-3.14A10.642 10.642 0 0 1 1.782 12.5h-2c0 3.396 1.325 6.593 3.726 8.994l1.414-1.415zM1.782 12.5c0-2.865 1.114-5.553 3.14-7.58L3.507 3.508A12.642 12.642 0 0 0-.22 12.5h2zm3.14-7.58A10.642 10.642 0 0 1 12.5 1.782v-2a12.642 12.642 0 0 0-8.993 3.726L4.92 4.92zM12.5 1.782c2.865 0 5.553 1.114 7.58 3.14l1.414-1.414A12.642 12.642 0 0 0 12.5-.22v2zm7.58 3.14a10.642 10.642 0 0 1 3.139 7.579h2a12.64 12.64 0 0 0-3.726-8.993L20.08 4.92zm3.139 7.579c0 2.866-1.114 5.554-3.14 7.58l1.415 1.414a12.646 12.646 0 0 0 3.725-8.994h-2z" fill="#A38B39" mask="url(#a)"/><mask id="b" fill="#fff"><path d="M20.998 5.613a.39.39 0 1 0-.607.492 10.181 10.181 0 0 1 2.265 6.395 10.09 10.09 0 0 1-2.974 7.181 10.09 10.09 0 0 1-7.182 2.975c-2.503 0-4.908-.918-6.77-2.586a.39.39 0 0 0-.522.582 10.919 10.919 0 0 0 7.292 2.785 10.87 10.87 0 0 0 7.734-3.203 10.867 10.867 0 0 0 3.203-7.734c0-2.502-.866-4.948-2.44-6.887z"/></mask><path d="M20.998 5.613l-.777.63.777-.63zm-.55-.057l.63.777-.63-.777zm-.057.55l.777-.63v-.001l-.777.63zM5.73 20.07l.667-.745-.667.745zm-.551.03l-.745-.667.745.668zm.03.552l.667-.745-.667.745zm15.026-.418l.707.707-.707-.707zm1.54-15.25a1.39 1.39 0 0 0-1.956-.204l1.26 1.552a.61.61 0 0 1-.857-.089l1.554-1.26zm-1.956-.205a1.39 1.39 0 0 0-.203 1.957l1.552-1.261a.61.61 0 0 1-.089.858l-1.26-1.554zm-.204 1.957a9.178 9.178 0 0 1 2.042 5.764h2c0-2.552-.883-5.046-2.488-7.025l-1.553 1.26zm2.042 5.764a9.09 9.09 0 0 1-2.682 6.474l1.415 1.415a11.09 11.09 0 0 0 3.267-7.89h-2zm-2.682 6.474a9.09 9.09 0 0 1-6.474 2.682v2a11.09 11.09 0 0 0 7.889-3.267l-1.415-1.415zM12.5 21.656a9.138 9.138 0 0 1-6.104-2.331l-1.334 1.49a11.138 11.138 0 0 0 7.438 2.84v-2zm-6.104-2.331a1.39 1.39 0 0 0-1.963.108l1.49 1.335a.61.61 0 0 1-.86.047l1.333-1.49zm-1.964.109a1.39 1.39 0 0 0 .11 1.963l1.333-1.49a.61.61 0 0 1 .048.86l-1.49-1.333zm.11 1.963a11.919 11.919 0 0 0 7.958 3.04v-2a9.919 9.919 0 0 1-6.625-2.53l-1.334 1.49zm7.958 3.04c3.187 0 6.188-1.243 8.441-3.496l-1.414-1.414a9.867 9.867 0 0 1-7.027 2.91v2zm8.441-3.496a11.867 11.867 0 0 0 3.496-8.441h-2a9.867 9.867 0 0 1-2.91 7.027l1.414 1.414zm3.496-8.441c0-2.731-.945-5.4-2.663-7.517l-1.553 1.26a9.961 9.961 0 0 1 2.216 6.257h2z" fill="#A38B39" mask="url(#b)"/><mask id="c" fill="#fff"><path d="M2.344 12.5C2.344 6.9 6.9 2.344 12.5 2.344c2.503 0 4.907.918 6.77 2.585a.39.39 0 1 0 .521-.582A10.918 10.918 0 0 0 12.5 1.562a10.866 10.866 0 0 0-7.734 3.204A10.865 10.865 0 0 0 1.562 12.5c0 2.502.867 4.948 2.44 6.886a.39.39 0 0 0 .55.058.39.39 0 0 0 .057-.55A10.178 10.178 0 0 1 2.344 12.5z"/></mask><path d="M19.27 4.93l.668-.745-.668.744zm.552-.031l-.745-.667.745.667zm-.03-.552l.666-.745-.667.745zm-15.026.42l.707.706-.707-.707zm-.764 14.62l.777-.63-.777.63zm.55.056l-.63-.776H3.92l.63.776zm.057-.549l-.777.63.777-.63zM3.344 12.5c0-5.048 4.108-9.156 9.156-9.156v-2C6.347 1.343 1.344 6.346 1.344 12.5h2zM12.5 3.344a9.14 9.14 0 0 1 6.104 2.33l1.333-1.49a11.138 11.138 0 0 0-7.437-2.84v2zm6.103 2.33a1.39 1.39 0 0 0 1.964-.108l-1.49-1.334a.61.61 0 0 1 .86-.047l-1.334 1.49zm1.964-.108a1.39 1.39 0 0 0-.109-1.964l-1.333 1.49a.61.61 0 0 1-.048-.86l1.49 1.334zm-.109-1.964A11.918 11.918 0 0 0 12.5.562v2c2.45 0 4.802.899 6.625 2.53l1.333-1.49zM12.5.562A11.866 11.866 0 0 0 4.059 4.06l1.414 1.414a9.866 9.866 0 0 1 7.027-2.91v-2zM4.059 4.06A11.865 11.865 0 0 0 .562 12.5h2a9.866 9.866 0 0 1 2.911-7.026L4.06 4.06zM.562 12.5c0 2.732.945 5.4 2.663 7.517l1.554-1.26A9.962 9.962 0 0 1 2.563 12.5h-2zm2.663 7.517c.275.34.678.515 1.08.515v-2a.61.61 0 0 1 .474.226l-1.554 1.259zm1.08.515c.309 0 .62-.103.877-.311l-1.261-1.552a.611.611 0 0 1 .384-.137v2zm.877-.311a1.39 1.39 0 0 0 .203-1.956l-1.553 1.26a.61.61 0 0 1 .09-.857l1.26 1.553zm.203-1.956A9.177 9.177 0 0 1 3.344 12.5h-2c0 2.552.883 5.045 2.488 7.024l1.553-1.26z" fill="#A38B39" mask="url(#c)"/></svg>