<svg width="25" height="25" viewBox="0 0 25 25" fill="none" xmlns="http://www.w3.org/2000/svg">
<path d="M10.8833 18.9453H13.3975C13.6132 18.9453 13.7881 18.7704 13.7881 18.5547V12.8952H15.0943C15.2945 12.8952 15.4624 12.7437 15.4829 12.5446L15.7031 10.4073C15.7144 10.2973 15.6786 10.1876 15.6045 10.1056C15.5304 10.0234 15.425 9.97661 15.3145 9.97661H13.7881V9.11089C13.7881 8.93208 13.8447 8.9187 13.9311 8.9187H15.2827C15.4984 8.9187 15.6733 8.7438 15.6733 8.52808V6.45288C15.6733 6.23774 15.4994 6.06313 15.2843 6.06226L13.4202 6.05469C12.1139 6.05469 11.4168 6.62939 11.062 7.11147C10.5666 7.78467 10.4926 8.57344 10.4926 8.98369V9.97656H9.6875C9.47178 9.97656 9.29688 10.1515 9.29688 10.3672V12.5045C9.29688 12.7202 9.47178 12.8951 9.6875 12.8951H10.4926V18.5547C10.4926 18.7704 10.6675 18.9453 10.8833 18.9453ZM10.0781 12.1139V10.7579H10.8832C11.0989 10.7579 11.2738 10.583 11.2738 10.3672V8.98374C11.2738 8.73057 11.3145 8.08647 11.6912 7.57456C12.0518 7.08447 12.6335 6.83599 13.4185 6.83599L14.892 6.84194V8.1375H13.931C13.4709 8.1375 13.0067 8.43848 13.0067 9.11094V10.3673C13.0067 10.583 13.1816 10.7579 13.3974 10.7579H14.8815L14.7417 12.114H13.3974C13.1816 12.114 13.0067 12.2889 13.0067 12.5046V18.1641H11.2738V12.5045C11.2738 12.2888 11.0989 12.1139 10.8832 12.1139H10.0781Z" fill="#A38B39"/>
<path d="M21.339 3.66133C18.978 1.30029 15.8389 0 12.5 0C9.16133 0 6.02236 1.30029 3.66133 3.66133C1.30029 6.02236 0 9.16133 0 12.5C0 15.8393 1.30029 18.9784 3.66133 21.3393C6.02222 23.7 9.16118 25 12.5 25C15.8391 25 18.9782 23.7 21.3389 21.3393C23.6998 18.9785 25 15.8393 25 12.5C25 9.16123 23.6998 6.02227 21.339 3.66133ZM20.7865 20.7868C18.5733 23 15.6304 24.2188 12.5 24.2188C9.36982 24.2188 6.42705 23 4.21372 20.7868C2.00024 18.5735 0.78125 15.6305 0.78125 12.5C0.78125 9.37002 2.00024 6.42725 4.21372 4.21377C6.42725 2.00024 9.37002 0.78125 12.5 0.78125C15.6303 0.78125 18.5731 2.00024 20.7865 4.21372C22.9999 6.42715 24.2188 9.36992 24.2188 12.5C24.2188 15.6306 22.9999 18.5736 20.7865 20.7868Z" fill="#A38B39"/>
<path d="M20.9978 5.61331C20.8619 5.44574 20.6159 5.4201 20.4484 5.55609C20.2808 5.69203 20.2552 5.93802 20.3911 6.1055C21.8517 7.90579 22.6561 10.1766 22.6561 12.4996C22.6561 15.2128 21.5997 17.7634 19.6816 19.6815C17.7634 21.5995 15.2129 22.6558 12.4999 22.6558C9.99695 22.6558 7.59241 21.7375 5.72923 20.0701C5.56849 19.9263 5.32151 19.9399 5.17766 20.1007C5.03382 20.2614 5.04749 20.5084 5.20823 20.6522C7.21487 22.4481 9.80442 23.4371 12.4999 23.4371C15.4216 23.4371 18.1683 22.2995 20.234 20.2339C22.2997 18.1682 23.4374 15.4215 23.4374 12.4996C23.4374 9.99793 22.571 7.55238 20.9978 5.61331Z" fill="#A38B39"/>
<path d="M2.34375 12.5C2.34375 6.89985 6.89985 2.34375 12.5 2.34375C15.0029 2.34375 17.4074 3.26211 19.2706 4.92964C19.4314 5.07358 19.6784 5.05981 19.8222 4.89912C19.9661 4.73838 19.9524 4.49141 19.7916 4.34756C17.785 2.55156 15.1955 1.5625 12.5 1.5625C9.57866 1.5625 6.83208 2.70024 4.76616 4.76616C2.70024 6.83203 1.5625 9.57866 1.5625 12.5C1.5625 15.002 2.42891 17.4477 4.0021 19.3866C4.0793 19.4818 4.19199 19.5312 4.30566 19.5312C4.39214 19.5312 4.47915 19.5026 4.55156 19.4438C4.71909 19.3079 4.74473 19.0619 4.60879 18.8944C3.14814 17.0941 2.34375 14.8232 2.34375 12.5Z" fill="#A38B39"/>
</svg>
