<svg width="16" height="16" viewBox="0 0 16 16" fill="none" xmlns="http://www.w3.org/2000/svg">
<path d="M8.00129 9.60153C8.88392 9.60153 9.60349 8.88325 9.60349 7.99998C9.60349 7.65132 9.48941 7.3294 9.30058 7.06645C9.00959 6.663 8.53654 6.39844 8.00226 6.39844C7.46766 6.39844 6.99493 6.66268 6.7033 7.06612C6.51382 7.32907 6.40071 7.651 6.40039 7.99966C6.39942 8.88293 7.11835 9.60153 8.00129 9.60153Z" fill="#3A3A3A"/>
<path d="M11.4996 6.0403V4.69784V4.49805L11.2989 4.49869L9.95703 4.50288L9.96219 6.04546L11.4996 6.0403Z" fill="#3A3A3A"/>
<path d="M8 0C3.58882 0 0 3.58882 0 8C0 12.4109 3.58882 16 8 16C12.4109 16 16 12.4109 16 8C16 3.58882 12.4115 0 8 0ZM12.5497 7.06646V10.7916C12.5497 11.7619 11.7609 12.5504 10.7913 12.5504H5.20873C4.23878 12.5504 3.45025 11.7619 3.45025 10.7916V7.06646V5.20905C3.45025 4.2391 4.23878 3.45058 5.20873 3.45058H10.7909C11.7609 3.45058 12.5497 4.2391 12.5497 5.20905V7.06646Z" fill="#3A3A3A"/>
<path d="M10.4882 7.99994C10.4882 9.37173 9.37195 10.4886 7.99952 10.4886C6.62708 10.4886 5.51116 9.37173 5.51116 7.99994C5.51116 7.66997 5.57689 7.35449 5.69419 7.06641H4.33594V10.7915C4.33594 11.273 4.72682 11.6629 5.20793 11.6629H10.7901C11.2706 11.6629 11.6621 11.273 11.6621 10.7915V7.06641H10.3032C10.4215 7.35449 10.4882 7.66997 10.4882 7.99994Z" fill="#3A3A3A"/>
</svg>
