<svg width="15" height="15" viewBox="0 0 15 15" fill="none" xmlns="http://www.w3.org/2000/svg">
<path d="M12.8033 2.19682C11.3868 0.780209 9.50327 0 7.5 0C5.49673 0 3.61346 0.780209 2.19682 2.19682C0.780209 3.61346 0 5.49673 0 7.5C0 9.50357 0.780209 11.3869 2.19682 12.8034C3.61331 14.2199 5.49673 15 7.5 15C9.50342 15 11.3868 14.2199 12.8033 12.8034C14.2198 11.3869 15 9.50357 15 7.5C15 5.49673 14.2198 3.61331 12.8033 2.19682ZM12.4718 12.472C11.1439 13.7999 9.37825 14.5312 7.5 14.5312C5.6219 14.5312 3.85622 13.7999 2.52827 12.472C1.20018 11.1441 0.468784 9.37825 0.468784 7.5C0.468784 5.62204 1.20018 3.85637 2.52827 2.52827C3.85637 1.20018 5.62204 0.468784 7.5 0.468784C9.3781 0.468784 11.1438 1.20018 12.4718 2.52827C13.7998 3.85622 14.5312 5.6219 14.5312 7.5C14.5312 9.3784 13.7998 11.1441 12.4718 12.472Z" fill="#333333"/>
<path d="M12.5987 3.36804C12.5172 3.26745 12.3695 3.25203 12.2689 3.33369C12.1684 3.41525 12.1531 3.56287 12.2346 3.66328C13.111 4.74345 13.5936 6.10586 13.5936 7.49976C13.5936 9.12767 12.9598 10.658 11.8089 11.8089C10.6581 12.9597 9.12772 13.5934 7.49995 13.5934C5.9982 13.5934 4.55541 13.0425 3.43759 12.042C3.34102 11.9556 3.19297 11.9639 3.10658 12.0603C3.02034 12.1568 3.02847 12.305 3.12489 12.3912C4.32895 13.4688 5.88263 14.0622 7.49995 14.0622C9.25289 14.0622 10.901 13.3797 12.1404 12.1403C13.3797 10.9009 14.0624 9.25284 14.0624 7.49976C14.0624 5.99871 13.5425 4.53145 12.5987 3.36804Z" fill="#333333"/>
<path d="M1.4061 7.49993C1.4061 4.13982 4.13982 1.4061 7.49993 1.4061C9.00168 1.4061 10.4443 1.95714 11.5623 2.95766C11.6587 3.04405 11.8069 3.03573 11.8932 2.93935C11.9795 2.84292 11.9712 2.69472 11.8748 2.60844C10.6709 1.53087 9.11711 0.9375 7.49993 0.9375C5.74714 0.9375 4.0992 1.62011 2.85966 2.85966C1.62011 4.09917 0.9375 5.74711 0.9375 7.49993C0.9375 9.0011 1.45733 10.4685 2.40116 11.6318C2.44753 11.689 2.51506 11.7186 2.58328 11.7186C2.63521 11.7186 2.68743 11.7015 2.7309 11.6661C2.83131 11.5846 2.84677 11.437 2.76525 11.3365C1.88877 10.2564 1.4061 8.8938 1.4061 7.49993Z" fill="#333333"/>
<path d="M9.47013 3.74023H5.5451C4.54989 3.74023 3.74023 4.54992 3.74023 5.54513V9.47013C3.74023 10.4654 4.54989 11.275 5.5451 11.275H9.47013C10.4653 11.275 11.275 10.4654 11.275 9.47013V5.54513C11.275 4.54992 10.4653 3.74023 9.47013 3.74023ZM10.7998 9.47009C10.7998 10.2032 10.2033 10.7998 9.47013 10.7998H5.5451C4.81198 10.7998 4.21557 10.2032 4.21557 9.47009V5.54513C4.21557 4.81202 4.81202 4.21561 5.5451 4.21561H9.47013C10.2033 4.21561 10.7998 4.81206 10.7998 5.54513V9.47009Z" fill="#333333"/>
<path d="M9.61367 5.11719C9.45408 5.11719 9.32422 5.24701 9.32422 5.40653C9.32422 5.56605 9.45408 5.69583 9.61367 5.69583C9.77319 5.69583 9.90298 5.56605 9.90298 5.40653C9.90298 5.24701 9.77319 5.11719 9.61367 5.11719Z" fill="#333333"/>
<path d="M7.50688 5.66016C6.48859 5.66016 5.66016 6.48859 5.66016 7.50688C5.66016 8.52523 6.48859 9.35374 7.50688 9.35374C8.52523 9.35374 9.35374 8.52523 9.35374 7.50688C9.35374 6.48859 8.52523 5.66016 7.50688 5.66016ZM7.50688 8.87855C6.75058 8.87855 6.13531 8.26321 6.13531 7.50688C6.13531 6.75073 6.75058 6.13557 7.50688 6.13557C8.2631 6.13557 8.87829 6.75073 8.87829 7.50688C8.87833 8.26321 8.2631 8.87855 7.50688 8.87855Z" fill="#333333"/>
</svg>
