<svg width="15" height="15" viewBox="0 0 15 15" fill="none" xmlns="http://www.w3.org/2000/svg">
<path d="M7.50003 0C3.35817 0 0 3.35816 0 7.5C0 11.6418 3.35817 15 7.50003 15C11.6419 15 15 11.6417 15 7.5C15 3.35816 11.6419 0 7.50003 0ZM11.4605 10.9433L10.86 11.544C10.7528 11.651 10.4389 11.7178 10.4288 11.7178C8.52905 11.7344 6.69987 10.9882 5.3559 9.64409C4.00824 8.29567 3.26117 6.45998 3.28123 4.55383C3.28123 4.55297 3.34998 4.24803 3.4571 4.14193L4.05758 3.54136C4.27732 3.3206 4.69943 3.22084 4.99513 3.31977L5.12144 3.3619C5.41627 3.46073 5.72582 3.78673 5.80728 4.08706L6.10934 5.19571C6.1908 5.49691 6.08093 5.92541 5.86126 6.14515L5.4603 6.54617C5.85396 8.00353 6.99745 9.14724 8.45507 9.54186L8.85588 9.14075C9.07664 8.91999 9.50499 8.81021 9.80554 8.89155L10.914 9.19469C11.2144 9.27723 11.5404 9.58483 11.6392 9.87957L11.6813 10.0077C11.7792 10.3026 11.6803 10.7246 11.4605 10.9433Z" fill="#3A3A3A"/>
</svg>
