<svg width="25" height="25" viewBox="0 0 25 25" fill="none" xmlns="http://www.w3.org/2000/svg">
<path d="M16.0441 18.3346C15.5587 18.3346 14.9725 18.213 14.3282 17.9701C12.9144 17.4368 11.377 16.3835 9.99819 15.0045C8.61935 13.6256 7.56619 12.0877 7.03294 10.6734C6.54756 9.38818 6.54638 8.33335 7.02901 7.85067C7.09886 7.78082 7.16988 7.70626 7.24286 7.62974C7.68351 7.16668 8.19322 6.64044 8.84105 6.66909C9.29622 6.68793 9.73686 6.97047 10.1889 7.53163C11.5214 9.18962 10.9207 9.78061 10.2254 10.4658L10.1022 10.5874C9.98838 10.7012 9.77296 11.2279 11.7737 13.2284C12.4274 13.8818 12.9839 14.3598 13.4284 14.649C13.709 14.8311 14.2097 15.1058 14.4149 14.9005L14.5385 14.7758C15.2228 14.0812 15.8137 13.4823 17.4712 14.8146C18.0327 15.2659 18.3148 15.7066 18.3336 16.1622C18.3607 16.8222 17.8349 17.3214 17.3711 17.7617C17.295 17.8343 17.2204 17.9045 17.1514 17.9736C16.9104 18.2142 16.5275 18.3346 16.0441 18.3346ZM8.79436 7.05994C8.32585 7.05994 7.90207 7.50573 7.52734 7.89973C7.45161 7.979 7.37824 8.0563 7.30643 8.12812C6.94701 8.48718 6.98389 9.43214 7.39982 10.5352C7.91384 11.8981 8.93522 13.387 10.2756 14.7275C11.616 16.068 13.1043 17.0891 14.4667 17.6032C15.5697 18.0195 16.5145 18.0556 16.874 17.6958C16.9458 17.6244 17.0223 17.5514 17.1008 17.4768C17.5041 17.0934 17.9613 16.6594 17.9416 16.1775C17.9279 15.8467 17.687 15.4907 17.2251 15.1199C15.8439 14.0101 15.4582 14.4026 14.8179 15.0508L14.6923 15.1776C14.3874 15.4841 13.8903 15.417 13.2146 14.9775C12.7476 14.6737 12.1693 14.1781 11.4963 13.5055C9.83614 11.8451 9.30485 10.8296 9.82476 10.3092L9.94993 10.1852C10.6005 9.54476 10.9929 9.15823 9.88283 7.7769C9.51164 7.3158 9.15574 7.07485 8.82496 7.06073C8.81476 7.06033 8.80417 7.05994 8.79436 7.05994Z" fill="#A38B39"/>
<path d="M14.3282 17.9701L14.284 18.087L14.2841 18.087L14.3282 17.9701ZM7.03294 10.6734L7.1499 10.6293L7.14988 10.6292L7.03294 10.6734ZM7.02901 7.85067L6.94062 7.76229L7.02901 7.85067ZM7.24286 7.62974L7.33332 7.71601L7.33342 7.71591L7.24286 7.62974ZM8.84105 6.66909L8.83553 6.79397L8.83588 6.79398L8.84105 6.66909ZM10.1889 7.53163L10.2863 7.45333L10.2862 7.45322L10.1889 7.53163ZM10.2254 10.4658L10.1376 10.3767L10.1376 10.3768L10.2254 10.4658ZM10.1022 10.5874L10.0143 10.4985L10.0138 10.499L10.1022 10.5874ZM11.7737 13.2284L11.6854 13.3168L11.6854 13.3168L11.7737 13.2284ZM13.4284 14.649L13.3603 14.7538L13.3604 14.7539L13.4284 14.649ZM14.4149 14.9005L14.5033 14.9889L14.5037 14.9885L14.4149 14.9005ZM14.5385 14.7758L14.6273 14.8637L14.6275 14.8635L14.5385 14.7758ZM17.4712 14.8146L17.3929 14.912L17.3929 14.912L17.4712 14.8146ZM18.3336 16.1622L18.4585 16.1571L18.4585 16.157L18.3336 16.1622ZM17.3711 17.7617L17.285 17.671L17.2848 17.6712L17.3711 17.7617ZM17.1514 17.9736L17.2397 18.0621L17.2398 18.062L17.1514 17.9736ZM7.52734 7.89973L7.61773 7.98607L7.61792 7.98587L7.52734 7.89973ZM7.30643 8.12812L7.39478 8.21655L7.39482 8.2165L7.30643 8.12812ZM7.39982 10.5352L7.28286 10.5793L7.28286 10.5793L7.39982 10.5352ZM14.4667 17.6032L14.5108 17.4862L14.5108 17.4862L14.4667 17.6032ZM16.874 17.6958L16.7858 17.6071L16.7855 17.6074L16.874 17.6958ZM17.1008 17.4768L17.1869 17.5674L17.1869 17.5674L17.1008 17.4768ZM17.9416 16.1775L18.0665 16.1724L18.0665 16.1723L17.9416 16.1775ZM17.2251 15.1199L17.1468 15.2174L17.1469 15.2174L17.2251 15.1199ZM14.8179 15.0508L14.9067 15.1388L14.9068 15.1387L14.8179 15.0508ZM14.6923 15.1776L14.7809 15.2658L14.7811 15.2656L14.6923 15.1776ZM13.2146 14.9775L13.1464 15.0822L13.1464 15.0822L13.2146 14.9775ZM11.4963 13.5055L11.4079 13.5939L11.408 13.5939L11.4963 13.5055ZM9.82476 10.3092L9.73678 10.2204L9.73633 10.2208L9.82476 10.3092ZM9.94993 10.1852L9.86224 10.0961L9.86196 10.0964L9.94993 10.1852ZM9.88283 7.7769L9.98027 7.6986L9.9802 7.69851L9.88283 7.7769ZM8.82496 7.06073L8.8303 6.93584L8.82977 6.93582L8.82496 7.06073ZM16.0441 18.2096C15.5781 18.2096 15.0072 18.0925 14.3723 17.8531L14.2841 18.087C14.9377 18.3335 15.5393 18.4596 16.0441 18.4596V18.2096ZM14.3723 17.8531C12.9792 17.3276 11.4564 16.2861 10.0866 14.9162L9.9098 15.0929C11.2977 16.4809 12.8496 17.5459 14.284 18.087L14.3723 17.8531ZM10.0866 14.9162C8.71679 13.5462 7.67534 12.0228 7.1499 10.6293L6.91598 10.7175C7.45704 12.1525 8.52191 13.7049 9.9098 15.0929L10.0866 14.9162ZM7.14988 10.6292C6.91073 9.99598 6.79358 9.42627 6.79297 8.96092C6.79236 8.49353 6.90883 8.14766 7.11741 7.93906L6.94062 7.76229C6.66657 8.03637 6.54231 8.45926 6.54297 8.96125C6.54363 9.46528 6.66977 10.0656 6.916 10.7175L7.14988 10.6292ZM7.11741 7.93906C7.1885 7.86796 7.2606 7.79226 7.33332 7.71601L7.15241 7.54347C7.07916 7.62027 7.00922 7.69369 6.94062 7.76229L7.11741 7.93906ZM7.33342 7.71591C7.55501 7.48304 7.78447 7.24482 8.03632 7.06717C8.28671 6.89054 8.54903 6.7813 8.83553 6.79397L8.84657 6.54421C8.48524 6.52823 8.16879 6.66778 7.89221 6.86288C7.61709 7.05695 7.37137 7.31338 7.15231 7.54357L7.33342 7.71591ZM8.83588 6.79398C9.23847 6.81064 9.64904 7.06071 10.0915 7.61005L10.2862 7.45322C9.82469 6.88023 9.35396 6.56521 8.84622 6.5442L8.83588 6.79398ZM10.0915 7.60994C10.7515 8.43121 10.9061 8.95701 10.8442 9.34375C10.7813 9.73657 10.4926 10.027 10.1376 10.3767L10.3131 10.5548C10.6535 10.2194 11.0128 9.87173 11.091 9.38327C11.1702 8.88873 10.9588 8.29004 10.2863 7.45333L10.0915 7.60994ZM10.1376 10.3768L10.0144 10.4985L10.19 10.6764L10.3132 10.5547L10.1376 10.3768ZM10.0138 10.499C9.96308 10.5497 9.91564 10.6334 9.90915 10.7604C9.90285 10.8839 9.93535 11.0436 10.0314 11.2526C10.2229 11.6691 10.682 12.3136 11.6854 13.3168L11.8621 13.14C10.8647 12.1427 10.4311 11.5236 10.2586 11.1482C10.1726 10.9612 10.1553 10.8429 10.1588 10.7731C10.1622 10.7069 10.1844 10.682 10.1906 10.6758L10.0138 10.499ZM11.6854 13.3168C12.3414 13.9725 12.9049 14.4576 13.3603 14.7538L13.4966 14.5442C13.0628 14.262 12.5135 13.7911 11.8621 13.14L11.6854 13.3168ZM13.3604 14.7539C13.5032 14.8465 13.7083 14.9671 13.9082 15.0379C14.0079 15.0732 14.1138 15.0988 14.214 15.0984C14.3157 15.0981 14.4216 15.0707 14.5033 14.9889L14.3265 14.8122C14.3056 14.8331 14.272 14.8482 14.2132 14.8484C14.1531 14.8486 14.0778 14.8327 13.9916 14.8022C13.8197 14.7414 13.6342 14.6335 13.4965 14.5441L13.3604 14.7539ZM14.5037 14.9885L14.6273 14.8637L14.4497 14.6878L14.3261 14.8126L14.5037 14.9885ZM14.6275 14.8635C14.9768 14.509 15.267 14.2209 15.6595 14.1586C16.0461 14.0971 16.5718 14.2521 17.3929 14.912L17.5495 14.7172C16.7131 14.0449 16.1146 13.8331 15.6203 13.9117C15.1319 13.9893 14.7845 14.3479 14.4494 14.688L14.6275 14.8635ZM17.3929 14.912C17.9424 15.3537 18.1921 15.7643 18.2087 16.1673L18.4585 16.157C18.4375 15.6489 18.123 15.1781 17.5495 14.7172L17.3929 14.912ZM18.2087 16.1673C18.2208 16.4604 18.1109 16.7233 17.9345 16.972C17.7567 17.2227 17.5187 17.4492 17.285 17.671L17.4572 17.8524C17.6873 17.6339 17.9441 17.3907 18.1384 17.1167C18.3341 16.8407 18.4736 16.524 18.4585 16.1571L18.2087 16.1673ZM17.2848 17.6712C17.2095 17.743 17.1334 17.8148 17.063 17.8852L17.2398 18.062C17.3075 17.9943 17.3804 17.9255 17.4574 17.8522L17.2848 17.6712ZM17.0631 17.8851C16.8548 18.0931 16.5101 18.2096 16.0441 18.2096V18.4596C16.5448 18.4596 16.9661 18.3352 17.2397 18.0621L17.0631 17.8851ZM8.79436 6.93494C8.52023 6.93494 8.2704 7.06502 8.05003 7.23258C7.82921 7.40047 7.6226 7.61819 7.43677 7.81358L7.61792 7.98587C7.80681 7.78727 7.99945 7.58509 8.20134 7.43159C8.40366 7.27776 8.59997 7.18494 8.79436 7.18494V6.93494ZM7.43696 7.81338C7.36072 7.89318 7.28858 7.96919 7.21804 8.03973L7.39482 8.2165C7.4679 8.14342 7.5425 8.06481 7.61773 7.98607L7.43696 7.81338ZM7.21809 8.03968C7.00047 8.25708 6.92078 8.62831 6.93746 9.05752C6.9544 9.49348 7.07159 10.019 7.28286 10.5793L7.51678 10.4911C7.31212 9.94835 7.2029 9.44986 7.18727 9.04781C7.17139 8.639 7.25297 8.35821 7.39478 8.21655L7.21809 8.03968ZM7.28286 10.5793C7.80474 11.9631 8.8379 13.4664 10.1872 14.8159L10.364 14.6391C9.03254 13.3075 8.02294 11.8332 7.51678 10.4911L7.28286 10.5793ZM10.1872 14.8159C11.5365 16.1653 13.0394 17.1982 14.4225 17.7201L14.5108 17.4862C13.1693 16.98 11.6955 15.9707 10.364 14.6391L10.1872 14.8159ZM14.4225 17.7201C14.9828 17.9316 15.5083 18.0487 15.9444 18.0655C16.3737 18.0819 16.7449 18.0019 16.9624 17.7841L16.7855 17.6074C16.6436 17.7495 16.3627 17.8313 15.954 17.8156C15.5519 17.8002 15.0535 17.6911 14.5108 17.4862L14.4225 17.7201ZM16.9621 17.7844C17.0328 17.7141 17.1083 17.642 17.1869 17.5674L17.0147 17.3862C16.9362 17.4607 16.8587 17.5346 16.7858 17.6071L16.9621 17.7844ZM17.1869 17.5674C17.3868 17.3773 17.6101 17.1657 17.7799 16.939C17.9494 16.7126 18.078 16.4552 18.0665 16.1724L17.8167 16.1826C17.8248 16.3817 17.7347 16.5822 17.5798 16.7892C17.425 16.9958 17.2181 17.1929 17.0146 17.3862L17.1869 17.5674ZM18.0665 16.1723C18.0505 15.7855 17.7727 15.3993 17.3034 15.0224L17.1469 15.2174C17.6013 15.5822 17.8053 15.9079 17.8167 16.1827L18.0665 16.1723ZM17.3034 15.0225C16.6107 14.4659 16.1331 14.2552 15.7293 14.3019C15.5259 14.3255 15.354 14.413 15.195 14.532C15.0383 14.6493 14.8872 14.8028 14.7289 14.963L14.9068 15.1387C15.0687 14.9748 15.206 14.8361 15.3448 14.7322C15.4815 14.6299 15.6123 14.5671 15.7581 14.5503C16.0525 14.5162 16.4584 14.6642 17.1468 15.2174L17.3034 15.0225ZM14.7291 14.9629L14.6035 15.0896L14.7811 15.2656L14.9067 15.1388L14.7291 14.9629ZM14.6037 15.0894C14.4834 15.2104 14.3242 15.2625 14.1092 15.2334C13.8886 15.2035 13.6135 15.0878 13.2827 14.8727L13.1464 15.0822C13.4914 15.3066 13.8027 15.4442 14.0757 15.4811C14.3545 15.5189 14.5963 15.4513 14.7809 15.2658L14.6037 15.0894ZM13.2827 14.8727C12.8264 14.5759 12.2552 14.0872 11.5847 13.4171L11.408 13.5939C12.0834 14.269 12.6688 14.7716 13.1464 15.0822L13.2827 14.8727ZM11.5847 13.4171C10.7564 12.5887 10.2199 11.9308 9.95377 11.4219C9.82086 11.1678 9.7604 10.9601 9.75813 10.793C9.75593 10.6307 9.80816 10.5027 9.91318 10.3976L9.73633 10.2208C9.58141 10.3759 9.50508 10.5699 9.50815 10.7964C9.51116 11.0179 9.5898 11.2654 9.73224 11.5378C10.0168 12.0819 10.576 12.7619 11.4079 13.5939L11.5847 13.4171ZM9.91273 10.398L10.0379 10.274L9.86196 10.0964L9.73679 10.2204L9.91273 10.398ZM10.0376 10.2743C10.1984 10.116 10.3523 9.96484 10.47 9.80797C10.5893 9.64892 10.6771 9.47686 10.7008 9.27333C10.7478 8.86924 10.537 8.39137 9.98027 7.6986L9.7854 7.8552C10.3387 8.54375 10.4867 8.94982 10.4525 9.24443C10.4355 9.39025 10.3726 9.52124 10.27 9.65796C10.1658 9.79685 10.0267 9.93421 9.86224 10.0961L10.0376 10.2743ZM9.9802 7.69851C9.60306 7.23003 9.21695 6.95235 8.8303 6.93584L8.81963 7.18561C9.09453 7.19735 9.42021 7.40157 9.78546 7.85528L9.9802 7.69851ZM8.82977 6.93582C8.8199 6.93544 8.80695 6.93494 8.79436 6.93494V7.18494C8.80138 7.18494 8.80962 7.18523 8.82016 7.18563L8.82977 6.93582Z" fill="#A38B39"/>
<mask id="path-3-inside-1" fill="white">
<path d="M21.3388 3.66136C18.9781 1.30035 15.8388 0 12.5 0C9.16121 0 6.02243 1.30035 3.66136 3.66136C1.30035 6.02243 0 9.16121 0 12.5C0 15.8393 1.30035 18.9782 3.66136 21.3391C6.02219 23.6999 9.16121 25 12.5 25C15.839 25 18.9781 23.6999 21.3388 21.3391C23.6997 18.9782 25 15.8393 25 12.5C25 9.16121 23.6997 6.02219 21.3388 3.66136ZM20.7864 20.7866C18.5732 22.9999 15.6304 24.2187 12.5 24.2187C9.36983 24.2187 6.42703 22.9999 4.21379 20.7866C2.0003 18.5735 0.781307 15.6304 0.781307 12.5C0.781307 9.37007 2.0003 6.42728 4.21379 4.21379C6.42728 2.0003 9.37007 0.781307 12.5 0.781307C15.6302 0.781307 18.573 2.0003 20.7864 4.21379C22.9996 6.42703 24.2187 9.36983 24.2187 12.5C24.2187 15.6307 22.9996 18.5735 20.7864 20.7866Z"/>
</mask>
<path d="M21.3388 3.66136L20.6317 4.36843L20.6317 4.36847L21.3388 3.66136ZM3.66136 3.66136L2.95426 2.95424L2.95424 2.95426L3.66136 3.66136ZM3.66136 21.3391L4.36847 20.632L4.36844 20.6319L3.66136 21.3391ZM21.3388 21.3391L20.6317 20.632L20.6317 20.632L21.3388 21.3391ZM20.7864 20.7866L20.0793 20.0795L20.0793 20.0795L20.7864 20.7866ZM4.21379 20.7866L4.92089 20.0795L4.92084 20.0795L4.21379 20.7866ZM20.7864 4.21379L20.0793 4.92088L20.0793 4.92089L20.7864 4.21379ZM22.046 2.95429C19.4977 0.405708 16.104 -1 12.5 -1V1C15.5736 1 18.4585 2.19499 20.6317 4.36843L22.046 2.95429ZM12.5 -1C8.89594 -1 5.50283 0.405744 2.95426 2.95424L4.36846 4.36847C6.54204 2.19495 9.42648 1 12.5 1V-1ZM2.95424 2.95426C0.405744 5.50283 -1 8.89594 -1 12.5H1C1 9.42648 2.19495 6.54204 4.36847 4.36846L2.95424 2.95426ZM-1 12.5C-1 16.1045 0.405713 19.4978 2.95428 22.0462L4.36844 20.6319C2.19498 18.4586 1 15.5741 1 12.5H-1ZM2.95425 22.0462C5.50264 24.5946 8.89602 26 12.5 26V24C9.4264 24 6.54174 22.8052 4.36847 20.632L2.95425 22.0462ZM12.5 26C16.1042 26 19.4976 24.5946 22.0459 22.0462L20.6317 20.632C18.4585 22.8052 15.5739 24 12.5 24V26ZM22.0459 22.0462C24.5943 19.4978 26 16.1045 26 12.5H24C24 15.5741 22.805 18.4587 20.6317 20.632L22.0459 22.0462ZM26 12.5C26 8.89597 24.5943 5.5026 22.0459 2.95425L20.6317 4.36847C22.805 6.54177 24 9.42645 24 12.5H26ZM20.0793 20.0795C18.0537 22.1052 15.3653 23.2187 12.5 23.2187V25.2187C15.8956 25.2187 19.0928 23.8946 21.4935 21.4937L20.0793 20.0795ZM12.5 23.2187C9.635 23.2187 6.94657 22.1052 4.92089 20.0795L3.50668 21.4937C5.90749 23.8946 9.10465 25.2187 12.5 25.2187V23.2187ZM4.92084 20.0795C2.89496 18.0539 1.78131 15.3652 1.78131 12.5H-0.218693C-0.218693 15.8956 1.10563 19.093 3.50673 21.4938L4.92084 20.0795ZM1.78131 12.5C1.78131 9.63532 2.89492 6.94687 4.92089 4.92089L3.50668 3.50668C1.10567 5.90769 -0.218693 9.10483 -0.218693 12.5H1.78131ZM4.92089 4.92089C6.94687 2.89492 9.63532 1.78131 12.5 1.78131V-0.218693C9.10483 -0.218693 5.90769 1.10567 3.50668 3.50668L4.92089 4.92089ZM12.5 1.78131C15.3649 1.78131 18.0534 2.89493 20.0793 4.92088L21.4935 3.50669C19.0926 1.10566 15.8954 -0.218693 12.5 -0.218693V1.78131ZM20.0793 4.92089C22.105 6.94661 23.2187 9.63506 23.2187 12.5H25.2187C25.2187 9.1046 23.8943 5.90745 21.4935 3.50668L20.0793 4.92089ZM23.2187 12.5C23.2187 15.3655 22.105 18.0539 20.0793 20.0795L21.4935 21.4938C23.8943 19.093 25.2187 15.8959 25.2187 12.5H23.2187Z" fill="#A38B39" mask="url(#path-3-inside-1)"/>
<mask id="path-5-inside-2" fill="white">
<path d="M20.9978 5.61341C20.8619 5.44574 20.6159 5.42005 20.4482 5.55616C20.2806 5.69208 20.2551 5.93811 20.3911 6.10547C21.8516 7.90575 22.656 10.1764 22.656 12.4996C22.656 15.2128 21.5996 17.7634 19.6815 19.6815C17.7634 21.5995 15.2129 22.6557 12.4999 22.6557C9.997 22.6557 7.59235 21.7375 5.72932 20.0701C5.56837 19.9261 5.32161 19.9399 5.17763 20.1006C5.03389 20.2613 5.04744 20.5083 5.20815 20.652C7.21491 22.448 9.80438 23.437 12.4999 23.437C15.4215 23.437 18.1683 22.2995 20.234 20.2339C22.2996 18.1682 23.4373 15.4214 23.4373 12.4996C23.4373 9.99785 22.5709 7.55242 20.9978 5.61341Z"/>
</mask>
<path d="M20.9978 5.61341L20.2209 6.24299L20.2212 6.24343L20.9978 5.61341ZM20.4482 5.55616L21.0781 6.33284L21.0786 6.33243L20.4482 5.55616ZM20.3911 6.10547L21.1676 5.47544L21.1673 5.47503L20.3911 6.10547ZM5.72932 20.0701L6.39624 19.3249L6.39605 19.3248L5.72932 20.0701ZM5.17763 20.1006L4.43283 19.4333L4.43227 19.4339L5.17763 20.1006ZM5.20815 20.652L5.87504 19.9069L5.87481 19.9067L5.20815 20.652ZM20.234 20.2339L20.9411 20.941L20.9411 20.941L20.234 20.2339ZM21.7747 4.98383C21.2909 4.38678 20.4145 4.29534 19.8178 4.77989L21.0786 6.33243C20.8172 6.54476 20.433 6.50471 20.2209 6.24299L21.7747 4.98383ZM19.8184 4.77947C19.2216 5.26347 19.1306 6.13966 19.6148 6.73591L21.1673 5.47503C21.3797 5.73656 21.3397 6.12069 21.0781 6.33284L19.8184 4.77947ZM19.6145 6.7355C20.9302 8.35723 21.656 10.4053 21.656 12.4996H23.656C23.656 9.94752 22.7731 7.45428 21.1676 5.47544L19.6145 6.7355ZM21.656 12.4996C21.656 14.9476 20.7049 17.2438 18.9744 18.9743L20.3886 20.3886C22.4943 18.2829 23.656 15.4779 23.656 12.4996H21.656ZM18.9744 18.9743C17.2439 20.7048 14.9477 21.6557 12.4999 21.6557V23.6557C15.478 23.6557 18.2829 22.4943 20.3886 20.3886L18.9744 18.9743ZM12.4999 21.6557C10.2427 21.6557 8.07563 20.828 6.39624 19.3249L5.06241 20.8152C7.10907 22.647 9.75127 23.6557 12.4999 23.6557V21.6557ZM6.39605 19.3248C5.82338 18.8125 4.94486 18.8618 4.43283 19.4333L5.92243 20.7679C5.69836 21.018 5.31337 21.0397 5.0626 20.8154L6.39605 19.3248ZM4.43227 19.4339C3.92103 20.0055 3.96837 20.8848 4.54148 21.3974L5.87481 19.9067C6.12652 20.1318 6.14676 20.5171 5.92299 20.7672L4.43227 19.4339ZM4.54125 21.3972C6.73159 23.3575 9.55856 24.437 12.4999 24.437V22.437C10.0502 22.437 7.69824 21.5386 5.87504 19.9069L4.54125 21.3972ZM12.4999 24.437C15.6866 24.437 18.6878 23.1942 20.9411 20.941L19.5269 19.5268C17.6488 21.4048 15.1563 22.437 12.4999 22.437V24.437ZM20.9411 20.941C23.1942 18.6878 24.4373 15.6866 24.4373 12.4996H22.4373C22.4373 15.1562 21.4049 17.6487 19.5268 19.5268L20.9411 20.941ZM24.4373 12.4996C24.4373 9.76888 23.4923 7.10091 21.7744 4.98338L20.2212 6.24343C21.6495 8.00393 22.4373 10.2268 22.4373 12.4996H24.4373Z" fill="#A38B39" mask="url(#path-5-inside-2)"/>
<mask id="path-7-inside-3" fill="white">
<path d="M2.3435 12.4999C2.3435 6.89969 6.89969 2.3435 12.4999 2.3435C15.0028 2.3435 17.4072 3.26189 19.2704 4.92943C19.4311 5.07341 19.6781 5.05955 19.8219 4.89891C19.9659 4.7382 19.9521 4.4912 19.7914 4.3474C17.7849 2.55145 15.1952 1.5625 12.4999 1.5625C9.57857 1.5625 6.83201 2.70019 4.7661 4.7661C2.70019 6.83194 1.5625 9.57851 1.5625 12.4999C1.5625 15.0018 2.42889 17.4475 4.00194 19.3863C4.07921 19.4817 4.19176 19.531 4.30547 19.531C4.39202 19.531 4.47905 19.5024 4.5515 19.4435C4.71886 19.3077 4.74461 19.0616 4.60875 18.8942C3.14794 17.0939 2.3435 14.823 2.3435 12.4999Z"/>
</mask>
<path d="M19.2704 4.92943L19.9377 4.18463L19.9373 4.18428L19.2704 4.92943ZM19.8219 4.89891L19.0771 4.23162L19.0768 4.23195L19.8219 4.89891ZM19.7914 4.3474L20.4584 3.60231L20.4583 3.60228L19.7914 4.3474ZM4.7661 4.7661L5.47319 5.47321L5.4732 5.4732L4.7661 4.7661ZM4.00194 19.3863L4.77882 18.7567L4.7785 18.7563L4.00194 19.3863ZM4.5515 19.4435L3.92123 18.6671L3.92068 18.6676L4.5515 19.4435ZM4.60875 18.8942L3.83223 19.5243L3.83226 19.5243L4.60875 18.8942ZM3.3435 12.4999C3.3435 7.45198 7.45198 3.3435 12.4999 3.3435V1.3435C6.34741 1.3435 1.3435 6.34741 1.3435 12.4999H3.3435ZM12.4999 3.3435C14.757 3.3435 16.9239 4.17132 18.6035 5.67458L19.9373 4.18428C17.8906 2.35247 15.2486 1.3435 12.4999 1.3435V3.3435ZM18.6031 5.67422C19.1759 6.18743 20.0553 6.1375 20.567 5.56587L19.0768 4.23195C19.3009 3.9816 19.6863 3.95939 19.9377 4.18463L18.6031 5.67422ZM20.5667 5.5662C21.0799 4.99339 21.03 4.114 20.4584 3.60231L19.1245 5.09249C18.8741 4.8684 18.8519 4.48302 19.0771 4.23162L20.5667 5.5662ZM20.4583 3.60228C18.2682 1.64199 15.441 0.5625 12.4999 0.5625V2.5625C14.9494 2.5625 17.3016 3.4609 19.1245 5.09252L20.4583 3.60228ZM12.4999 0.5625C9.31334 0.5625 6.31242 1.80556 4.05899 4.05899L5.4732 5.4732C7.35159 3.59482 9.84381 2.5625 12.4999 2.5625V0.5625ZM4.059 4.05898C1.80556 6.31236 0.5625 9.31328 0.5625 12.4999H2.5625C2.5625 9.84375 3.59482 7.35153 5.47319 5.47321L4.059 4.05898ZM0.5625 12.4999C0.5625 15.2307 1.50746 17.899 3.22539 20.0164L4.7785 18.7563C3.35032 16.996 2.5625 14.7729 2.5625 12.4999H0.5625ZM3.22507 20.016C3.49993 20.3551 3.90268 20.531 4.30547 20.531V18.531C4.48084 18.531 4.6585 18.6082 4.77882 18.7567L3.22507 20.016ZM4.30547 20.531C4.61356 20.531 4.9253 20.4284 5.18231 20.2195L3.92068 18.6676C4.0328 18.5764 4.17047 18.531 4.30547 18.531V20.531ZM5.18177 20.2199C5.77726 19.7365 5.86955 18.8609 5.38524 18.2641L3.83226 19.5243C3.61967 19.2624 3.66046 18.8788 3.92123 18.6671L5.18177 20.2199ZM5.38527 18.2641C4.06937 16.6424 3.3435 14.5941 3.3435 12.4999H1.3435C1.3435 15.0519 2.22651 17.5454 3.83223 19.5243L5.38527 18.2641Z" fill="#A38B39" mask="url(#path-7-inside-3)"/>
</svg>
