<svg width="92" height="72" viewBox="0 0 92 72" fill="none" xmlns="http://www.w3.org/2000/svg"><path d="M72.902 65.077l-.032-.06-.038.022a38.897 38.897 0 0 1-3.16 1.683l-.076.032.07.038c.803.419.701 1.086.696 1.112l-.011.076.07-.032c1.694-.828 2.26-1.64 2.438-2.178.146-.435.043-.693.043-.693zm7.045.969c-.005-.011-.486-.909-.41-1.775l.005-.043H79.5c-1.418-.09-2.519.205-2.53.205l-.037.01.005.038c.005.016.34 1.65 2.492 1.65.151 0 .313-.01.486-.026l.059-.006-.027-.053zm-65.559-1.608c-.01-.005-1.1-.3-2.519-.21h-.043l.005.044c.07.86-.404 1.763-.41 1.773l-.026.054.059.006c.167.016.329.021.48.027 2.12.059 2.481-1.624 2.487-1.645l.005-.038-.038-.01zm7.282 2.274a38.012 38.012 0 0 1-3.155-1.661l-.038-.022-.021.038c-.006.01-.631 1.322 2.47 2.876l.076.038-.017-.08c-.005-.028-.118-.7.68-1.12l.07-.037-.065-.032z" fill="#CDA176"/><path d="M70.39 60.448c.14.844.371 1.554.641 2.15.431.076 2.923.463 5.475-.381l-.594-3.032c8.458-1.753 12.223 3.897 12.223 3.897-4.304-.29-3.765.441-3.765.441.977 3.312.292 3.704.292 3.704-1.42-2.252-3.544-2.887-5.206-2.989-1.429-.091-2.519.21-2.519.21s.346 1.957 3.037 1.64c0 0-2.788 2.86-9.606 1.887 3.139-1.58 2.524-2.925 2.513-2.941a40.152 40.152 0 0 1-3.225 1.693c-11.069 5.204-23.249 5.135-23.982 5.13-.734.01-12.908.074-23.982-5.13a40.152 40.152 0 0 1-3.225-1.693c-.011.016-.62 1.36 2.519 2.94-6.818.968-9.607-1.881-9.607-1.881 2.686.317 3.026-1.645 3.026-1.645s-1.09-.301-2.52-.21c-1.66.102-3.786.737-5.204 2.99 0 0-.685-.393.291-3.705 0 0 .54-.73-3.765-.44 0 0 3.765-5.65 12.223-3.898l-.594 3.032c2.546.85 5.044.462 5.475.382.27-.597.507-1.307.642-2.15.011 0 22.909 13.901 49.436 0zM63.95 9.596s-2.152-3.295-4.24.102a2.967 2.967 0 0 1 1.99 2.807c0 1.64-1.32 2.972-2.95 2.972-1.629 0-2.95-1.333-2.95-2.972a2.97 2.97 0 0 1 2.157-2.86c.076-1.086-.28-3.124-1.267-4.575 0 0-2.735.957-4.116 2.908a3.32 3.32 0 0 1 1.138 2.505c0 1.828-1.472 3.312-3.29 3.312s-3.29-1.484-3.29-3.312c0-1.828 1.472-3.311 3.29-3.311.259 0 .513.032.755.091-.065-.672-.518-3.199-3.576-2.215 0 0-.162-4.365-1.872-5.048-1.71.683-1.871 5.048-1.871 5.048-3.059-.984-3.512 1.543-3.577 2.215.243-.06.497-.091.755-.091 1.818 0 3.29 1.483 3.29 3.311 0 1.828-1.472 3.312-3.29 3.312-1.817 0-3.29-1.484-3.29-3.312 0-1 .442-1.898 1.138-2.505-1.38-1.951-4.115-2.908-4.115-2.908-.987 1.451-1.349 3.489-1.268 4.575a2.964 2.964 0 0 1 2.158 2.86c0 1.64-1.322 2.972-2.95 2.972-1.63 0-2.951-1.333-2.951-2.972 0-1.301.83-2.409 1.99-2.807-2.087-3.397-4.24-.102-4.24-.102-1.5-2.548-5.2-1.65-5.2-1.65l4.731 10.73s8.981-2.51 18.685-2.51c9.774 0 18.685 2.51 18.685 2.51l4.73-10.73c.005 0-3.69-.898-5.189 1.65z" fill="#A18529"/><path d="M63.876 20.225c-7.86-2.682-18.162-2.43-18.162-2.43s-10.302-.252-18.161 2.43c0 0 5.448 10.548-.815 28.396 0 0 3.129 6.618 10.395 9.984 7.265 3.37 8.236 4.306 8.576 5.306.345-1 1.316-1.936 8.576-5.306 7.266-3.371 10.395-9.984 10.395-9.984-6.252-17.848-.804-28.396-.804-28.396z" fill="#3D4543"/><path d="M61.534 21.344c-7.109-2.424-15.847-2.123-15.847-2.123s-8.652-.318-15.761 2.112c0 0 4.304 10.984-1.36 27.128 0 0 2.832 4.983 9.402 8.032 6.57 3.048 7.45 3.897 7.762 4.8.313-.903 1.192-1.752 7.762-4.8 6.57-3.049 9.402-8.032 9.402-8.032-5.664-16.144-1.36-27.117-1.36-27.117z" fill="#6BA43A"/><path d="M91.083 37.293c-.286-.936-1.435-1.484-2.654-1.688-1.985-.344-3.797 1.311-3.55 3.3.152 1.215.842 1.7 1.42 2.683.641 1.097.107 2.538-1.063 3.215-.9.521-1.446.317-1.65.194-.06-.033-.065-.103-.082-.167-.485-1.565-2.492-2.839-2.492-2.839-1.812-1.376-2.179-2.28-2.497-2.838-.318-.56-.097-1.172.27-1.656.28-.376.474.301.55.634.021.102.048.468.15.441.114-.027.41-.3.594-.49.394-.408.157-2.133 1.198-1.51.593.355 1.068.328 1.364.237.146-.043.173-.231.06-.334-.319-.29-.41-.784-.426-.865v-.021c-.006-.146-.076-1.844-.076-2.5 0-.683.442-.145 1.149-.022a1.58 1.58 0 0 0 .912-.118c.134-.06.15-.237.037-.334-.307-.268-.242-.672-.242-.672l-.135-3a.192.192 0 0 1 .21-.198c.54.048.912-.124 1.133-.285.118-.086.091-.269-.043-.328-.664-.269-1.209-1.263-1.451-1.769a2.797 2.797 0 0 0-.302-.484c-.14-.182-.275-.473-.016-.715a2.13 2.13 0 0 0 .41-.516c.07-.123-.011-.285-.157-.29-.728-.032-1.71-.51-1.338-.785.227-.167.335-.446.389-.672.037-.15-.114-.274-.26-.22-.744.29-1.121.22-1.305.123a.183.183 0 0 1-.059-.268 1.73 1.73 0 0 0 .189-.35c.06-.156-.092-.301-.248-.247a3.758 3.758 0 0 1-.453.118.198.198 0 0 1-.227-.242v-.005a.19.19 0 0 0-.232-.226 3.477 3.477 0 0 1-1.348.027.189.189 0 0 1-.146-.242c.038-.118.022-.237.022-.237a1.024 1.024 0 0 1-.901.097.13.13 0 0 1-.081-.07c-.135-.22-.28-.36-.405-.446-.135-.091-.329.005-.318.167a.577.577 0 0 1-.022.199c-.032.118-.172.166-.28.107-.151-.086-.534-.204-.669-.188-.291.043-.065.172.032.312.114.161.13.317.114.435a.194.194 0 0 1-.216.167c-.437-.038-.76.167-.76.167.382.07.523.204.571.328.038.102-.037.215-.145.241-.971.237-1.063.307-1.538.898a.392.392 0 0 1-.21.119c-.173.021-.415-.108-1.03.193-.232.113-.658.323-.755.56-.033.074-.114.112-.195.112-.183-.005-.329 0-.48.167-.183.204.119.85.28 1.048a.176.176 0 0 1 .044.134c-.01.145.156.764.377 1.183.33.624 1.246.42 1.246.42 1.818-.226 1.791-.565 1.576-.011-.092.23-.443-.07-1.198.064-.28.049-1.273.183-1.03.785.334.833.669.737.95.747.393.017.949-.032 1.25.705.26.618-.188 1.473-.663 1.71-.674.332-.88-.07-.88-.43 0-.13-.123-.216-.247-.184-.728.22-.21 1.231-.114 1.597a.19.19 0 0 1-.123.226c-.96.355-1.15-1.188-1.182-1.833-.005-.135-.15-.216-.275-.156-1.888.881-1.111 2.585-.766 3.171.065.113.005.259-.118.285-.783.172-1.365-.413-1.77-1.08a4.915 4.915 0 0 1-.68-2.409c-.026-.903-.075-2.241-.123-2.585-.076-.533-.513-.656-1.414-.968-.329-.113-.55-.161-.696-.172a.2.2 0 0 0-.204.258c.07.242-.038.387-.124.457a.177.177 0 0 1-.178.027c-.659-.226-1.004.005-1.182.258-.086.123.006.296.162.296.162 0 .394.075.69.317.626.51.087.994-.059 1.107-.027.01-.048.022-.075.032-.605.119-.685.56-.664.877.01.145.173.225.297.145.717-.462.96.226 1.122.344.183.129.183 1.553.183 1.553.167 1.898 1.451 2.688 2.12 3.296.453.409.34.618.221.715a.173.173 0 0 1-.189.022c-.35-.173-1.407-.119-1.99.225-.626.366-.874-.01-1.36-.403-.393-.317-.285-.269-.89-.51-.048-.022-.447.171-.496.225-.156.183-.41.274-.571.532a.832.832 0 0 1-.561.377c-.588.107-.103.306.08.564a.361.361 0 0 1-.01.463c-.852.559-.216.537 0 .623.065.027.172.307.183.377.087.693.615.795.615.795.437.436 1.084.29 1.268.231a.166.166 0 0 0 .08-.053c.146-.178.831-.914 1.549-.366.809.624 2.27.806 2.713.806.442 0 .566.404.566.404.68 2.392 2.66 2.472 3.048 2.752.394.28.318.194.809.731.49.538-.788.414-1.343.49-1.419.193-1.44.854-1.71 1.752-.27.903-.34 1.876 1.564 2.8 1.904.926 1.467 1.07 1.564 1.485.097.414-1.273.78-1.66.876-.395.097-.589-.145-1.71-.317-1.123-.172-1.123.193-1.856.537-.734.34-.394 1.242-.491 1.801-.06.35.118.533.264.624a.188.188 0 0 0 .237-.027c.205-.231.513-.263.696-.263.087 0 .157.059.184.14.205.585.766.553.911.537a.269.269 0 0 0 .06-.021l.62-.318.027-.016c2.001-1.548 4.606-1.424 5.167-1.403.561.027.513-.145.513-.145s-.049-.269-.097-.683c-.027-.242.135-.333.275-.37a.2.2 0 0 0 .156-.21.784.784 0 0 1 .076-.387.203.203 0 0 1 .188-.103c.21.006.55-.145.55-.145-.43-.086-.582-.537-.636-.795-.016-.081.011-.167.081-.21.216-.134.432-.65.432-.65s-.173.193-.659.172c-.49-.027-1.094-.237-1.094-.237-.75-.183-.917-.64-.993-.785-.076-.145 3.263-.328 3.447.129.172.435.744 1.876.803 2.016.006.005.006.016.011.022 2.099 3.23 4.294 3.279 4.763 3.252a.18.18 0 0 1 .157.07l.264.306c.253.29.086.63-.005.77a.176.176 0 0 1-.13.08c-.167.021-.61.075-1.348.053-.966-.026-1.004.646-1.554 1.936-.243.57-.027.962.313 1.242h-.005s-.313.376-.292.72c0 0 .426-.58.723-.446.335.167.658.269.76.339 0 0-.469.263-.355.629 0 0 .588-.522.917-.479.231.038.512.065.803.08l-.183.581s.437-.548.771-.57h-.07c.35-.005.674-.037.917-.107.793-.231.868-1.285.976-1.726.087-.37.087-.532.108-.677a2.2 2.2 0 0 0 .022-.333l-.027-2.237c0-.134.124-.226.253-.188.232.075.475.021.475.021-.394-.36-.442-.897-.442-1.128 0-.07.043-.124.108-.156a.748.748 0 0 0 .334-.355c.054-.108-.01-.226-.124-.269-.291-.108-.307-.365-.092-.398.14-.021.227-.204.275-.37a.19.19 0 0 0-.188-.248 31.9 31.9 0 0 1-1.446-.005 1.121 1.121 0 0 1-.89-.5c-.458-.678-1.025-1.506-1.203-2.124-.172-.613.081-1.564.28-1.914a.185.185 0 0 1 .2-.091c.124.027.34.054.648.021.803-.075 1.531-.521 2-1.177.39-.548.837-1.312.972-2.113.07-.424-.006-1.365-.448-2.048-.642-.995-1.354-1.366-1.354-2.86 0-1.134 1.198-1.823 1.58-1.839.108-.005.2.086.2.2l-.016.811c.054 1.957 2.147 1.661 2.567 1.736.421.076.734.275.642.732-.091.457-1.542-.108-1.542-.108s.167.22.383.495c.215.274 1.3.989 1.796.602.507-.398.399-2.376.016-3.634zM76.169 23.976c-.232.232-.74.58-1.51.398a.129.129 0 0 1-.076-.193c.145-.22.544-.586 1.516-.425a.129.129 0 0 1 .07.22zM29.248 38.115s-.194-.205-.01-.463c.183-.258.668-.451.08-.564a.815.815 0 0 1-.56-.376c-.162-.253-.416-.35-.572-.533-.049-.053-.443-.247-.497-.226-.604.237-.496.189-.89.511-.485.393-.733.769-1.359.404-.582-.34-1.64-.398-1.99-.226-.06.032-.135.016-.19-.022-.118-.097-.231-.306.222-.715.674-.607 1.958-1.392 2.12-3.295 0 0 0-1.425.183-1.554.168-.118.41-.806 1.122-.344.119.08.286-.005.297-.145.021-.312-.06-.758-.664-.877-.026-.01-.048-.021-.075-.032-.146-.113-.685-.597-.06-1.107.297-.242.524-.317.691-.317.151 0 .248-.172.162-.296-.178-.253-.523-.479-1.181-.258a.177.177 0 0 1-.179-.027c-.086-.07-.194-.215-.123-.457a.2.2 0 0 0-.205-.258c-.146.01-.367.06-.696.172-.901.312-1.338.44-1.413.968-.05.344-.098 1.682-.125 2.586-.027.849-.242 1.682-.68 2.408-.398.661-.986 1.253-1.768 1.08-.125-.026-.184-.172-.12-.284.346-.586 1.123-2.29-.765-3.172a.19.19 0 0 0-.275.156c-.038.645-.221 2.188-1.181 1.833a.194.194 0 0 1-.125-.226c.098-.365.615-1.382-.113-1.597a.191.191 0 0 0-.248.183c0 .36-.2.764-.88.43-.474-.23-.916-1.091-.663-1.71.302-.73.858-.687 1.252-.704.275-.01.615.087.95-.747.242-.602-.745-.736-1.031-.785-.76-.134-1.111.167-1.198-.064-.215-.549-.242-.215 1.576.01 0 0 .916.2 1.245-.419.222-.42.394-1.037.378-1.183a.177.177 0 0 1 .043-.134c.162-.199.464-.844.28-1.048-.15-.167-.296-.172-.48-.167-.08 0-.161-.038-.194-.113-.097-.23-.517-.44-.755-.559-.615-.3-.857-.172-1.03-.193a.392.392 0 0 1-.21-.119c-.475-.591-.567-.66-1.538-.897-.107-.027-.188-.14-.145-.242.043-.124.189-.258.572-.328 0 0-.324-.205-.761-.167a.201.201 0 0 1-.216-.167.614.614 0 0 1 .114-.435c.097-.14.329-.269.032-.312-.135-.021-.518.102-.669.188-.108.06-.248.011-.28-.107a.594.594 0 0 1-.022-.2c.01-.16-.183-.257-.318-.166-.13.086-.27.226-.405.446a.167.167 0 0 1-.08.07c-.136.054-.508.15-.902-.096 0 0-.016.118.022.236.032.108-.032.226-.146.242a3.704 3.704 0 0 1-1.348-.027c-.135-.032-.264.091-.232.226v.005c.032.14-.081.274-.227.242a3.518 3.518 0 0 1-.453-.118c-.156-.054-.307.091-.248.247.038.108.097.231.189.35.065.086.032.215-.06.268-.183.097-.566.167-1.305-.123-.145-.054-.296.07-.259.22.054.226.162.506.389.672.367.274-.61.753-1.338.785-.146.006-.227.167-.156.29.086.151.215.34.41.517.264.241.124.532-.017.715-.118.15-.22.311-.302.483-.242.506-.787 1.5-1.45 1.77a.19.19 0 0 0-.044.327c.221.161.588.333 1.133.285a.192.192 0 0 1 .21.199l-.135 3s.065.403-.242.672c-.114.096-.097.274.037.333.222.097.54.177.912.118.707-.123 1.149-.661 1.149.022 0 .656-.065 2.36-.076 2.5v.021c-.016.08-.107.58-.426.866-.113.102-.086.29.06.333.296.091.771.118 1.364-.237 1.041-.623.804 1.102 1.198 1.511.183.194.48.462.593.49.103.026.13-.34.151-.441.076-.334.27-1.011.55-.635.367.49.588 1.097.27 1.656-.318.559-.685 1.468-2.497 2.838 0 0-2.007 1.275-2.492 2.839-.022.065-.027.134-.081.167-.205.123-.75.328-1.65-.194-1.177-.677-1.705-2.118-1.063-3.215.571-.978 1.267-1.462 1.418-2.682.248-1.995-1.564-3.645-3.55-3.301-1.218.21-2.367.752-2.653 1.688-.383 1.263-.496 3.236 0 3.618.496.381 1.575-.328 1.796-.602.221-.274.383-.495.383-.495s-1.45.565-1.542.108c-.092-.457.22-.656.641-.731.421-.076 2.514.22 2.568-1.737l-.016-.812c0-.113.086-.204.2-.199.382.017 1.58.705 1.58 1.839 0 1.5-.718 1.87-1.354 2.86-.442.683-.518 1.624-.448 2.048.135.801.583 1.565.971 2.113.47.656 1.192 1.102 2.001 1.177.308.027.524 0 .648-.021a.181.181 0 0 1 .2.091c.199.35.452 1.301.28 1.914-.178.618-.745 1.446-1.203 2.124-.2.295-.529.483-.89.5-.308.01-1.057.005-1.446.005a.194.194 0 0 0-.189.247c.049.162.135.35.275.371.216.032.2.29-.091.398-.113.043-.178.161-.124.269.06.123.162.263.334.355.06.032.108.086.108.156 0 .23-.054.763-.442 1.128 0 0 .242.054.474-.021.124-.043.254.054.254.188l-.027 2.237c0 .091.005.242.022.333.027.145.021.306.107.677.108.441.184 1.495.977 1.726.242.07.571.102.917.107h-.07c.334.022.77.57.77.57l-.182-.58a8.13 8.13 0 0 0 .803-.08c.33-.044.917.478.917.478.108-.366-.356-.63-.356-.63.097-.07.426-.171.76-.338.297-.134.724.446.724.446.027-.339-.292-.72-.292-.72h-.005c.34-.274.555-.667.313-1.242-.55-1.29-.588-1.962-1.554-1.935a9.054 9.054 0 0 1-1.348-.054.187.187 0 0 1-.13-.08c-.091-.146-.253-.48-.005-.77l.264-.306a.213.213 0 0 1 .157-.07c.469.032 2.664-.016 4.762-3.253.006-.005.006-.016.011-.021.054-.14.626-1.58.804-2.016.183-.457 3.522-.274 3.447-.129-.076.145-.238.602-.993.785 0 0-.604.215-1.095.236-.49.027-.658-.172-.658-.172s.216.522.432.65c.07.044.097.13.08.21-.053.259-.204.71-.636.796 0 0 .34.15.55.145.076 0 .157.038.19.103a.784.784 0 0 1 .075.387.203.203 0 0 0 .156.21c.14.032.307.128.275.37-.048.414-.097.683-.097.683s-.049.172.512.145c.562-.027 3.167-.145 5.168 1.403.01.006.016.011.027.016l.62.318c.022.005.038.01.06.021.14.016.706.048.911-.538a.196.196 0 0 1 .184-.14c.183 0 .49.033.695.264.06.07.162.075.238.027.145-.091.323-.274.264-.624-.097-.559.243-1.462-.49-1.8-.734-.34-.734-.705-1.856-.538-1.122.172-1.322.414-1.71.317-.394-.097-1.759-.462-1.662-.876.098-.414-.34-.56 1.565-1.484 1.904-.925 1.834-1.898 1.564-2.801-.27-.903-.291-1.564-1.71-1.752-.556-.076-1.834.048-1.343-.49.49-.537.415-.451.809-.73.394-.28 2.373-.361 3.048-2.753 0 0 .13-.404.566-.404.437 0 1.904-.182 2.713-.806.712-.548 1.403.188 1.548.366a.166.166 0 0 0 .081.053c.183.054.83.205 1.268-.23 0 0 .528-.103.615-.797.01-.07.113-.349.183-.376.232-.07.869-.048.016-.607zm-13.986-14.14c-.076-.075-.033-.198.07-.22.97-.16 1.37.205 1.515.425a.128.128 0 0 1-.075.194 1.573 1.573 0 0 1-1.51-.398z" fill="#3D4543"/><path d="M16.858 24.174c-.152-.226-.567-.607-1.565-.435a.134.134 0 0 0-.075.225c.242.237.76.603 1.559.409a.133.133 0 0 0 .08-.199zm57.694.011c.15-.226.566-.613 1.575-.441.108.016.15.15.075.226a1.622 1.622 0 0 1-1.57.414c-.086-.022-.129-.13-.08-.2zm-29.199 9.943c0 .833-.324 1.483-.976 1.962-.653.478-1.467.715-2.455.715.319.559.756 1.295 1.317 2.215.56.919 1.321 1.86 2.292 2.817.966.962 1.947 1.44 2.94 1.44.507 0 1.035-.15 1.575-.451.545-.301.928-.565 1.165-.796a4.238 4.238 0 0 1-1.376 1.29c-.544.312-1.273.468-2.19.468a4.783 4.783 0 0 1-3.047-1.064 9.934 9.934 0 0 1-2.276-2.57 33.97 33.97 0 0 1-1.883-3.537c1.1 0 1.931-.135 2.498-.398.56-.264.846-.823.846-1.672 0-.93-.264-1.602-.793-2.016-.528-.414-1.548-.618-3.058-.618v6.983c0 .29.086.554.259.785.173.231.464.43.885.586h-4.267c.485-.091.863-.269 1.144-.522.28-.258.42-.575.42-.946v-4.042c0-.484.092-1.011.275-1.586.184-.576.426-.995.728-1.258-1.812 0-3.02.215-3.635.65-.615.43-.922 1.022-.922 1.769 0 .726.2 1.37.593 1.946.394.575 1.073 1.059 2.034 1.457-1.042 0-1.845-.285-2.412-.855-.56-.57-.846-1.274-.846-2.123 0-1.07.42-1.877 1.262-2.414.841-.538 2.276-.812 4.304-.812l.173-.199v.199c2 0 3.409.183 4.218.548.803.382 1.208 1.06 1.208 2.049z" fill="#fff"/><path d="M52.112 31.37c.431 0 1.079.08 1.931.236.858.156 1.397.236 1.634.236-.259.5-.426.86-.501 1.08-.076.221-.14.495-.19.829-.269-.764-.69-1.29-1.277-1.586-.583-.29-1.333-.436-2.239-.436-1.111 0-1.893.36-2.346 1.086-.454.726-.68 1.65-.68 2.774 0 1.56.329 2.914.982 4.075.652 1.161 1.618 1.742 2.896 1.742.75 0 1.36-.215 1.823-.645.464-.43.696-1.01.696-1.747 0-.726-.172-1.167-.512-1.328-.34-.156-.977-.237-1.904-.237-.426 0-.82.043-1.187.124-.367.08-.69.323-.965.71 0-.398.22-.807.658-1.231a2.21 2.21 0 0 1 1.596-.64h1.387c.825 0 1.515-.022 2.076-.065.561-.043.987-.123 1.29-.247-.12.317-.346.634-.68.962-.34.323-.81.484-1.419.484.157.183.264.36.324.532.06.172.086.441.086.817 0 1.038-.329 1.77-.992 2.189-.664.419-1.527.629-2.595.629-1.785 0-3.08-.479-3.884-1.436-.803-.957-1.208-2.075-1.208-3.354 0-1.7.459-3.049 1.37-4.054.912-.994 2.19-1.5 3.83-1.5zM27.86 65.302a.657.657 0 0 1-.469.44 1.233 1.233 0 0 1-.777-.058c.038.183.092.43.168.736.075.307.21.645.41 1.006.199.36.453.591.75.688.15.048.323.059.517.027.189-.033.33-.07.42-.113a1.216 1.216 0 0 1-.528.225c-.189.033-.426.006-.701-.085a1.568 1.568 0 0 1-.82-.603 2.753 2.753 0 0 1-.426-.94 7.863 7.863 0 0 1-.194-1.162c.318.119.572.167.76.156.19-.016.324-.14.405-.37.092-.253.08-.463-.032-.63-.108-.166-.378-.322-.804-.484l-.712 1.887a.34.34 0 0 0-.006.242.576.576 0 0 0 .2.253c-.502-.183-.75-.28-1.251-.478.15.032.28.026.388-.011a.344.344 0 0 0 .221-.21c.167-.435.254-.65.42-1.086.05-.129.13-.263.244-.398a.846.846 0 0 1 .334-.263c-.507-.194-.868-.269-1.09-.226a.585.585 0 0 0-.453.371.892.892 0 0 0-.043.592c.049.198.194.408.426.623-.302-.118-.501-.285-.598-.505a.8.8 0 0 1-.006-.667.778.778 0 0 1 .62-.5c.297-.048.723.038 1.29.253.027-.016.043-.022.07-.038-.011.022-.011.033-.022.054.561.21.939.398 1.133.58.2.2.248.425.156.694z" fill="#fff"/><path d="M28.987 65.722c.2.064.33.177.4.35a.81.81 0 0 1 .016.553.797.797 0 0 1-.427.484.8.8 0 0 1-.641.064.614.614 0 0 1-.4-.355.783.783 0 0 1 0-.564c.07-.204.21-.36.421-.468a.775.775 0 0 1 .631-.064zm-.663.43a1.79 1.79 0 0 0-.092.543c0 .172.097.29.28.35A.324.324 0 0 0 28.81 67a.518.518 0 0 0 .2-.285c.06-.182.08-.365.06-.537-.017-.172-.103-.285-.26-.339a.325.325 0 0 0-.291.038.531.531 0 0 0-.194.274zm2.978.188c.038.011.081.076.135.194a.518.518 0 0 1 .038.344c-.016.054-.151.21-.41.457-.26.247-.459.446-.599.591-.14.145-.227.285-.264.42a.473.473 0 0 0 .021.333c.049.113.13.183.254.215.097.027.183.027.253-.01a.718.718 0 0 0 .232-.21c-.048.177-.14.284-.27.317a.844.844 0 0 1-.43-.011c-.2-.054-.335-.124-.41-.21-.076-.086-.093-.204-.044-.354a.648.648 0 0 1 .221-.323 9.33 9.33 0 0 1 .453-.344c-.021-.108-.043-.247-.075-.435a6.795 6.795 0 0 0-.119-.554c-.049-.188-.086-.285-.113-.301a.509.509 0 0 0-.264-.048c-.07.005-.135.015-.2.032a2.47 2.47 0 0 1 .35-.232c.135-.07.243-.096.324-.075.113.032.2.237.27.608.07.37.13.607.167.704a1.48 1.48 0 0 0 .178-.194c.06-.07.103-.15.124-.236a.398.398 0 0 0-.01-.264.522.522 0 0 0-.179-.22c.054-.054.114-.102.173-.15.065-.049.13-.065.194-.044zm1.892.554c-.124.521-.183.78-.302 1.295-.005.033.011.049.038.06a.162.162 0 0 0 .086-.006c.033-.005.092-.021.173-.043a.632.632 0 0 1-.205.15.372.372 0 0 1-.243.038c-.038-.01-.086-.048-.14-.113-.054-.064-.065-.145-.049-.23l.044-.19a7.27 7.27 0 0 1-.47.248c-.124.06-.226.08-.307.06-.086-.022-.151-.087-.189-.2a.624.624 0 0 1 0-.397c.08-.317.237-.538.47-.667.226-.129.485-.156.781-.086.12.038.184.054.313.08zm-1.143.505c-.027.113-.033.204-.006.269a.211.211 0 0 0 .146.123c.06.017.13.017.205-.005.075-.016.156-.048.243-.086l.188-.78a.582.582 0 0 0-.49.087.622.622 0 0 0-.286.392zm1.741-.613a.699.699 0 0 1 .237-.398.473.473 0 0 1 .41-.097c.13.027.195.043.33.07-.108.118-.222.172-.346.156-.124-.016-.194-.01-.2.027l-.388 1.79c-.01.043.006.065.038.075.033.006.076 0 .135-.021.06-.022.124-.048.2-.091a1.027 1.027 0 0 1-.297.23c-.113.06-.21.081-.291.065-.076-.016-.124-.053-.146-.113a.444.444 0 0 1-.005-.225c.124-.592.188-.882.323-1.468zm3.696.065a4.3 4.3 0 0 1 .556.15c.243.081.399.124.47.135a2.885 2.885 0 0 0-.19.29c-.032.06-.059.135-.086.232-.048-.231-.151-.398-.313-.506a1.527 1.527 0 0 0-.636-.22c-.324-.049-.572.016-.74.199-.166.183-.28.435-.34.752-.075.441-.048.85.098 1.21.146.366.415.58.81.64.231.037.425 0 .587-.102a.61.61 0 0 0 .28-.468c.027-.21-.005-.339-.102-.403-.097-.06-.286-.108-.566-.15a1.69 1.69 0 0 0-.362-.022.509.509 0 0 0-.323.156c.016-.113.102-.22.253-.318a.693.693 0 0 1 .507-.107l.205.032c.07.01.14.022.216.032.248.038.458.06.626.07.167.011.302 0 .393-.021a.702.702 0 0 1-.242.247c-.114.08-.265.108-.448.08a.43.43 0 0 1 .076.167c.01.054.01.13-.006.237-.038.296-.167.495-.388.586-.221.091-.496.113-.826.064-.55-.086-.927-.29-1.121-.602a1.392 1.392 0 0 1-.195-1.021c.087-.484.297-.839.615-1.08.319-.253.712-.334 1.192-.259zm3.036 1.237c-.049.532-.076.795-.124 1.327 0 .033.016.049.043.054a.33.33 0 0 0 .086-.016 2.36 2.36 0 0 0 .162-.065.722.722 0 0 1-.184.178c-.086.054-.161.08-.231.07-.044-.006-.092-.038-.152-.097a.255.255 0 0 1-.075-.22 2.35 2.35 0 0 1 .022-.194 8.716 8.716 0 0 1-.432.312c-.119.08-.216.113-.297.102-.086-.01-.156-.064-.215-.172a.644.644 0 0 1-.054-.392c.038-.323.161-.565.372-.72.21-.157.458-.221.755-.194.124.005.194.01.324.026zm-1.063.65c-.01.118 0 .204.032.263.033.06.087.092.157.103.06.005.13-.006.2-.033.075-.027.15-.07.226-.118l.08-.801a.593.593 0 0 0-.474.15.724.724 0 0 0-.22.436zm1.933-.598c.07.006.113.044.124.108.011.065.016.178.006.334-.006.064-.006.096-.011.16.108-.118.21-.247.318-.36.124-.129.259-.193.378-.182.07.005.118.032.156.08a.24.24 0 0 1 .049.172c-.006.081-.06.167-.162.264a6.02 6.02 0 0 1-.302.258.849.849 0 0 0 .07-.269.233.233 0 0 0-.022-.129.113.113 0 0 0-.091-.06c-.049-.004-.108.033-.19.114-.08.08-.15.156-.226.236-.021.27-.032.404-.048.667-.049.032-.097.07-.162.102a.534.534 0 0 1-.205.06c.038-.474.06-.71.097-1.183.005-.049-.022-.076-.07-.081a.267.267 0 0 0-.081.016c-.032.01-.065.038-.108.07a1.09 1.09 0 0 1 .237-.247c.114-.086.195-.13.243-.13zm2.696 1.496c0 .032.016.048.049.048a.181.181 0 0 0 .08-.022c.033-.016.087-.037.157-.075a.562.562 0 0 1-.167.178.468.468 0 0 1-.232.097c-.038 0-.092-.033-.157-.087a.273.273 0 0 1-.091-.215c0-.075.005-.118.005-.193-.156.14-.291.247-.404.333-.114.086-.21.13-.292.124-.086-.006-.161-.054-.226-.156a.635.635 0 0 1-.081-.393c.016-.328.124-.575.318-.741a.985.985 0 0 1 .723-.242c.005-.097.005-.145.01-.248a.675.675 0 0 1 .157-.43.45.45 0 0 1 .383-.166c.13.005.194.005.33.005-.082.14-.19.21-.314.215-.13.005-.194.027-.194.06-.016.639-.038 1.273-.054 1.908zm-.976-.613a.452.452 0 0 0 .048.263c.038.06.092.086.162.092.06 0 .13-.011.2-.043a.944.944 0 0 0 .215-.135l.028-.8a.584.584 0 0 0-.464.182.698.698 0 0 0-.19.44zm2.439-.71a.54.54 0 0 1 .242.048c.065.032.151.102.264.21-.36.354-.55.526-.922.876a.35.35 0 0 0 .189.156.93.93 0 0 0 .254.037.55.55 0 0 0 .264-.064c.08-.043.156-.086.22-.134-.102.15-.215.258-.334.333a.753.753 0 0 1-.426.107c-.226 0-.388-.07-.48-.21a.788.788 0 0 1-.134-.446c.005-.28.091-.5.258-.666a.82.82 0 0 1 .605-.248zm-.448 1.053c.092-.08.178-.161.27-.242.134-.134.2-.242.2-.311a.285.285 0 0 0-.066-.2.209.209 0 0 0-.167-.07c-.086 0-.156.05-.21.151a.816.816 0 0 0-.081.355c0 .06 0 .113.01.167a.583.583 0 0 0 .044.15zm2.653.238c0 .054.022.08.06.075.054 0 .124-.043.21-.129a.559.559 0 0 1-.183.215.37.37 0 0 1-.205.08.24.24 0 0 1-.167-.053c-.044-.038-.065-.097-.07-.177l-.027-.807a.399.399 0 0 0-.022-.129c-.016-.032-.049-.048-.108-.043-.065 0-.146.065-.248.194-.103.129-.151.204-.151.225.005.242.005.366.01.608-.01.048-.053.097-.129.145a.444.444 0 0 1-.22.07c-.006-.49-.012-.737-.017-1.226 0-.037-.016-.059-.049-.059-.037 0-.108.032-.215.102.091-.118.178-.21.259-.274.075-.064.14-.102.183-.102.07 0 .113.032.135.108.021.075.032.188.038.338 0 .054 0 .08.005.135.097-.151.194-.285.302-.409.102-.124.216-.188.334-.194.092-.005.157.027.184.087.032.059.048.15.054.268 0 .038 0 .07.005.108 0 .032 0 .07.005.107 0 .07.006.145.011.22.006.081.006.173.011.286 0 .064.005.118.005.16v.07zm3.21-2.414c0 .026.006.037.006.064.027-.005.048-.01.07-.01a2.48 2.48 0 0 1 .523.01c.194.021.377.097.55.226.173.129.28.328.318.613.033.252-.016.451-.15.596a.813.813 0 0 1-.545.253.623.623 0 0 1-.346-.043c-.091-.043-.14-.091-.145-.145.124.07.2.107.237.118.038.01.092.01.173 0a.446.446 0 0 0 .334-.21c.086-.123.113-.311.08-.559-.037-.338-.172-.553-.398-.645a1.49 1.49 0 0 0-.701-.102l.194 1.962c.016.145.113.258.296.334.184.075.28.156.292.252 0 .022.005.043 0 .054a.388.388 0 0 0-.26-.172 1.456 1.456 0 0 0-.41-.005c-.323.032-.576.129-.754.295-.178.167-.265.328-.248.49.005.059.016.102.037.123.022.027.087.07.2.13-.027.005-.049.005-.065.01a.606.606 0 0 1-.243-.032c-.075-.027-.113-.092-.124-.188-.01-.124.06-.275.2-.43.13-.135.275-.27.404-.404.146-.15.21-.295.2-.408-.043-.452-.06-.672-.102-1.124-.011-.107 0-.252.032-.44.032-.189.097-.329.205-.425-.529.048-.885.145-1.063.29-.178.15-.259.328-.242.537a.953.953 0 0 0 .248.608c.15.161.361.285.647.376-.33.027-.583-.032-.766-.177-.183-.145-.286-.36-.302-.64a.797.797 0 0 1 .383-.769c.28-.177.669-.29 1.176-.338.021-.032.032-.049.06-.076zm1.721.445a.689.689 0 0 1 .086-.457c.081-.134.2-.21.35-.231a6.9 6.9 0 0 0 .33-.049c-.06.151-.151.237-.275.264-.124.027-.184.054-.178.091.08.608.167 1.21.248 1.817.005.043.027.065.065.06a.292.292 0 0 0 .118-.065c.049-.038.097-.091.157-.15a1.021 1.021 0 0 1-.2.317.437.437 0 0 1-.248.156.189.189 0 0 1-.178-.06.375.375 0 0 1-.081-.215c-.081-.586-.119-.881-.194-1.478zm2.379-.117c.092.526.135.79.226 1.311.006.033.027.043.06.038a.198.198 0 0 0 .075-.038l.14-.107a.615.615 0 0 1-.129.215.348.348 0 0 1-.205.129c-.043.005-.097-.01-.172-.054a.247.247 0 0 1-.13-.193c-.01-.076-.022-.113-.032-.194-.13.172-.243.306-.335.414-.092.102-.178.161-.259.177-.086.011-.172-.021-.253-.107a.654.654 0 0 1-.157-.366c-.048-.322.011-.586.168-.795.156-.205.383-.334.68-.382a2.27 2.27 0 0 0 .323-.048zm-.852.908a.423.423 0 0 0 .102.247.195.195 0 0 0 .178.054.514.514 0 0 0 .189-.08.951.951 0 0 0 .189-.178l-.135-.79a.595.595 0 0 0-.42.269.69.69 0 0 0-.103.478zm2.707-1.343c.038-.006.108.026.21.112a.488.488 0 0 1 .19.29c.01.055-.038.254-.157.592a21.68 21.68 0 0 0-.264.796 1.09 1.09 0 0 0-.044.494.51.51 0 0 0 .173.29c.092.076.2.103.318.076.103-.022.173-.06.222-.124a.85.85 0 0 0 .113-.29c.038.183.005.317-.097.409a.816.816 0 0 1-.389.182c-.2.043-.356.038-.458 0-.103-.043-.173-.14-.2-.295a.702.702 0 0 1 .049-.387c.06-.135.14-.307.248-.511-.065-.086-.151-.204-.264-.35a9.137 9.137 0 0 0-.356-.44c-.124-.146-.205-.215-.238-.22a.226.226 0 0 0-.086.005.468.468 0 0 0-.173.07 1.24 1.24 0 0 0-.161.118 2.67 2.67 0 0 1 .205-.366c.086-.124.167-.193.253-.21.113-.021.286.119.518.42.232.3.388.484.47.548a2.41 2.41 0 0 0 .07-.252.565.565 0 0 0 0-.27.428.428 0 0 0-.13-.23.578.578 0 0 0-.26-.119c.023-.07.055-.14.082-.215a.24.24 0 0 1 .156-.123zm1.639-.317a.827.827 0 0 0-.048.21c-.006.07-.006.128-.011.182a.819.819 0 0 0-.264-.124.581.581 0 0 0-.254.006c-.092.021-.15.048-.183.091-.033.038-.038.086-.027.135.01.059.118.107.323.134.205.032.367.07.491.118.124.049.205.15.248.312.043.188.017.328-.097.42-.108.09-.259.155-.453.204-.194.043-.323.037-.394-.016-.07-.054-.129-.216-.188-.474a.908.908 0 0 0 .307.28.57.57 0 0 0 .42.06c.173-.038.244-.135.211-.28-.016-.07-.124-.124-.323-.156a2.41 2.41 0 0 1-.475-.13c-.119-.048-.194-.16-.232-.333-.032-.15-.005-.263.075-.338a.808.808 0 0 1 .54-.188c.075 0 .124 0 .135-.006a.788.788 0 0 0 .097-.032.976.976 0 0 0 .102-.075zm1.208-.28a.608.608 0 0 1 .324.01c.12.033.195.087.216.173.006.021-.01.075-.06.156a.952.952 0 0 1-.129.177.434.434 0 0 0-.237-.21.499.499 0 0 0-.302-.026c-.092.021-.151.09-.183.198a.64.64 0 0 0 0 .35c.059.226.15.365.285.43a.586.586 0 0 0 .416.038.49.49 0 0 0 .183-.103 1.41 1.41 0 0 0 .184-.177c-.06.172-.135.296-.216.382-.081.086-.21.15-.389.193-.242.065-.415.043-.512-.064a.927.927 0 0 1-.21-.425c-.065-.269-.038-.505.08-.71a.864.864 0 0 1 .55-.392zm2.055-.236c.12.386.178.58.297.962.01.027.032.037.06.032.037-.01.096-.07.177-.167a.526.526 0 0 1-.097.237.372.372 0 0 1-.205.156c-.086.027-.15.016-.2-.022a.333.333 0 0 1-.107-.166l-.227-.748a.408.408 0 0 0-.048-.107c-.016-.022-.054-.027-.103-.01-.08.02-.145.107-.205.241-.054.14-.075.231-.064.28.048.166.07.247.118.408a.324.324 0 0 1-.037.269.344.344 0 0 1-.227.177c-.162-.575-.324-1.15-.49-1.73a.675.675 0 0 1 .02-.463.464.464 0 0 1 .313-.28c.13-.037.195-.053.324-.096-.038.156-.113.258-.232.3-.118.044-.172.081-.167.119l.324 1.118a1.95 1.95 0 0 1 .22-.532c.082-.13.163-.199.233-.226.086-.027.15-.021.194.016.054.027.092.108.13.231zm1.258-.764a.62.62 0 0 1 .529.043.82.82 0 0 1 .34.436.79.79 0 0 1-.06.64.815.815 0 0 1-.48.43.6.6 0 0 1-.534-.054c-.162-.097-.27-.253-.34-.457a.797.797 0 0 1 .065-.624c.119-.21.275-.35.48-.414zm-.28.737c.059.188.145.35.248.49.102.139.248.177.431.117a.335.335 0 0 0 .216-.21.505.505 0 0 0-.005-.343 1.41 1.41 0 0 0-.27-.474c-.119-.134-.254-.171-.41-.118a.328.328 0 0 0-.216.204.542.542 0 0 0 .006.334zm2.07-1.373a.617.617 0 0 1 .534.027.8.8 0 0 1 .356.425c.08.204.07.42-.038.64a.818.818 0 0 1-.464.446.615.615 0 0 1-.534-.032.782.782 0 0 1-.35-.447.804.804 0 0 1 .043-.629.79.79 0 0 1 .453-.43zm-.254.748c.065.182.157.344.265.484.108.134.253.172.437.102a.347.347 0 0 0 .21-.215.512.512 0 0 0-.022-.344 1.426 1.426 0 0 0-.285-.463c-.124-.129-.26-.161-.416-.102a.32.32 0 0 0-.205.21.496.496 0 0 0 .017.328zm1.151-1.328a.69.69 0 0 1-.027-.462.48.48 0 0 1 .291-.312c.124-.048.189-.075.313-.129-.022.162-.092.269-.205.323-.113.053-.167.102-.151.134.232.565.458 1.135.69 1.699.017.038.043.054.076.038a.248.248 0 0 0 .097-.092 1.33 1.33 0 0 0 .113-.183 1.09 1.09 0 0 1-.118.36c-.065.114-.13.189-.206.216-.075.026-.134.026-.188-.011a.365.365 0 0 1-.13-.188c-.22-.56-.334-.834-.555-1.393z" fill="#fff"/></svg>