<svg width="15" height="15" viewBox="0 0 15 15" fill="none" xmlns="http://www.w3.org/2000/svg">
<path d="M6.52992 11.3672H8.03841C8.16784 11.3672 8.27278 11.2622 8.27278 11.1328V7.7371H9.05648C9.17662 7.7371 9.27731 7.64625 9.28961 7.52675L9.42174 6.24437C9.42854 6.17839 9.40706 6.11259 9.36259 6.06334C9.31815 6.01406 9.25493 5.98597 9.1886 5.98597H8.27278V5.46653C8.27278 5.35925 8.30673 5.35122 8.35856 5.35122H9.16953C9.29896 5.35122 9.4039 5.24628 9.4039 5.11685V3.87173C9.4039 3.74265 9.29955 3.63788 9.17047 3.63735L8.05203 3.63281C7.2683 3.63281 6.85004 3.97764 6.63718 4.26688C6.33994 4.6708 6.29556 5.14406 6.29556 5.39021V5.98594H5.81249C5.68306 5.98594 5.57812 6.09088 5.57812 6.22031V7.5027C5.57812 7.63213 5.68306 7.73707 5.81249 7.73707H6.29556V11.1328C6.29556 11.2622 6.40047 11.3672 6.52992 11.3672ZM6.04683 7.26835V6.45472H6.5299C6.65933 6.45472 6.76426 6.34978 6.76426 6.22034V5.39024C6.76426 5.23834 6.78867 4.85188 7.01466 4.54474C7.23104 4.25068 7.58007 4.10159 8.05103 4.10159L8.9351 4.10517V4.8825H8.3585C8.0825 4.8825 7.80398 5.06309 7.80398 5.46656V6.22037C7.80398 6.3498 7.90892 6.45475 8.03835 6.45475H8.9288L8.84496 7.26838H8.03835C7.90892 7.26838 7.80398 7.37332 7.80398 7.50275V10.8984H6.76423V7.50272C6.76423 7.37329 6.6593 7.26835 6.52987 7.26835H6.04683Z" fill="#333333"/>
<path d="M12.8034 2.1968C11.3868 0.780176 9.50335 0 7.5 0C5.4968 0 3.61342 0.780176 2.1968 2.1968C0.780176 3.61342 0 5.4968 0 7.5C0 9.50355 0.780176 11.3871 2.1968 12.8036C3.61333 14.22 5.49671 15 7.5 15C9.50347 15 11.3869 14.22 12.8033 12.8036C14.2199 11.3871 15 9.50358 15 7.5C15 5.49674 14.2199 3.61336 12.8034 2.1968ZM12.4719 12.4721C11.144 13.8 9.37825 14.5312 7.5 14.5312C5.62189 14.5312 3.85623 13.8 2.52823 12.4721C1.20015 11.1441 0.46875 9.37831 0.46875 7.5C0.46875 5.62201 1.20015 3.85635 2.52823 2.52826C3.85635 1.20015 5.62201 0.46875 7.5 0.46875C9.37816 0.46875 11.1439 1.20015 12.4719 2.52823C13.7999 3.85629 14.5312 5.62195 14.5312 7.5C14.5312 9.37837 13.7999 11.1441 12.4719 12.4721Z" fill="#333333"/>
<path d="M12.5987 3.36799C12.5171 3.26744 12.3696 3.25206 12.269 3.33365C12.1685 3.41522 12.1531 3.56281 12.2347 3.6633C13.111 4.74348 13.5937 6.10596 13.5937 7.49976C13.5937 9.1277 12.9598 10.658 11.8089 11.8089C10.658 12.9597 9.12775 13.5935 7.49993 13.5935C5.99817 13.5935 4.55545 13.0425 3.43754 12.0421C3.34109 11.9558 3.19291 11.964 3.1066 12.0604C3.02029 12.1568 3.02849 12.305 3.12494 12.3913C4.32892 13.4688 5.88265 14.0623 7.49993 14.0623C9.25297 14.0623 10.901 13.3797 12.1404 12.1404C13.3798 10.9009 14.0624 9.25288 14.0624 7.49976C14.0624 5.99876 13.5426 4.53143 12.5987 3.36799Z" fill="#333333"/>
<path d="M1.40625 7.5C1.40625 4.13991 4.13991 1.40625 7.5 1.40625C9.00176 1.40625 10.4445 1.95727 11.5624 2.95778C11.6588 3.04415 11.807 3.03589 11.8933 2.93947C11.9796 2.84303 11.9714 2.69484 11.875 2.60854C10.671 1.53094 9.11728 0.9375 7.5 0.9375C5.7472 0.9375 4.09925 1.62015 2.8597 2.8597C1.62015 4.09922 0.9375 5.7472 0.9375 7.5C0.9375 9.00117 1.45734 10.4686 2.40126 11.632C2.44758 11.6891 2.5152 11.7187 2.5834 11.7187C2.63528 11.7187 2.68749 11.7016 2.73094 11.6663C2.83146 11.5847 2.84684 11.4371 2.76527 11.3366C1.88889 10.2565 1.40625 8.89395 1.40625 7.5Z" fill="#333333"/>
</svg>
