<svg width="25" height="25" viewBox="0 0 25 25" fill="none" xmlns="http://www.w3.org/2000/svg">
<path d="M21.3388 3.66136C18.9781 1.30035 15.8388 0 12.5 0C9.16121 0 6.02243 1.30035 3.66136 3.66136C1.30035 6.02243 0 9.16121 0 12.5C0 15.8393 1.30035 18.9782 3.66136 21.3391C6.02219 23.6999 9.16121 25 12.5 25C15.839 25 18.9781 23.6999 21.3388 21.3391C23.6997 18.9782 25 15.8393 25 12.5C25 9.16121 23.6997 6.02219 21.3388 3.66136ZM20.7864 20.7866C18.5732 22.9999 15.6304 24.2187 12.5 24.2187C9.36983 24.2187 6.42703 22.9999 4.21379 20.7866C2.0003 18.5735 0.781307 15.6304 0.781307 12.5C0.781307 9.37007 2.0003 6.42728 4.21379 4.21379C6.42728 2.0003 9.37007 0.781307 12.5 0.781307C15.6302 0.781307 18.573 2.0003 20.7864 4.21379C22.9996 6.42703 24.2187 9.36983 24.2187 12.5C24.2187 15.6307 22.9996 18.5735 20.7864 20.7866Z" fill="#A38B39"/>
<path d="M20.9978 5.61341C20.8619 5.44574 20.6158 5.42005 20.4482 5.55616C20.2806 5.69208 20.2551 5.93811 20.3911 6.10547C21.8516 7.90575 22.656 10.1764 22.656 12.4996C22.656 15.2128 21.5996 17.7634 19.6815 19.6815C17.7634 21.5995 15.2129 22.6557 12.4999 22.6557C9.997 22.6557 7.59235 21.7375 5.72932 20.0701C5.56837 19.9261 5.32161 19.9399 5.17763 20.1006C5.03389 20.2613 5.04744 20.5083 5.20815 20.652C7.21491 22.448 9.80438 23.437 12.4999 23.437C15.4215 23.437 18.1683 22.2995 20.234 20.2339C22.2996 18.1682 23.4373 15.4214 23.4373 12.4996C23.4373 9.99785 22.5709 7.55242 20.9978 5.61341Z" fill="#A38B39"/>
<path d="M2.3435 12.4999C2.3435 6.89969 6.89969 2.3435 12.4999 2.3435C15.0028 2.3435 17.4072 3.26189 19.2704 4.92943C19.4311 5.07341 19.6781 5.05955 19.8219 4.89891C19.9659 4.7382 19.9521 4.4912 19.7914 4.3474C17.7849 2.55145 15.1952 1.5625 12.4999 1.5625C9.57857 1.5625 6.83201 2.70019 4.7661 4.7661C2.70019 6.83194 1.5625 9.57851 1.5625 12.4999C1.5625 15.0018 2.42889 17.4475 4.00194 19.3863C4.07921 19.4817 4.19176 19.531 4.30547 19.531C4.39202 19.531 4.47905 19.5024 4.5515 19.4435C4.71886 19.3077 4.74461 19.0616 4.60875 18.8942C3.14794 17.0939 2.3435 14.823 2.3435 12.4999Z" fill="#A38B39"/>
<path d="M15.7842 6.23438H9.24248C7.58379 6.23438 6.23438 7.58386 6.23438 9.24254V15.7842C6.23438 17.4429 7.58379 18.7924 9.24248 18.7924H15.7842C17.4429 18.7924 18.7922 17.4429 18.7922 15.7842V9.24254C18.7922 7.58386 17.4429 6.23438 15.7842 6.23438ZM18.0002 15.7841C18.0002 17.0061 17.0061 18.0002 15.7842 18.0002H9.24248C8.02062 18.0002 7.02661 17.0061 7.02661 15.7841V9.24254C7.02661 8.02068 8.02068 7.02667 9.24248 7.02667H15.7842C17.0061 7.02667 18.0002 8.02074 18.0002 9.24254V15.7841Z" fill="#A38B39"/>
<path d="M16.0234 8.5293C15.7574 8.5293 15.541 8.74567 15.541 9.01153C15.541 9.2774 15.7574 9.49371 16.0234 9.49371C16.2893 9.49371 16.5056 9.2774 16.5056 9.01153C16.5056 8.74567 16.2893 8.5293 16.0234 8.5293Z" fill="#A38B39"/>
<path d="M12.5115 9.43359C10.8143 9.43359 9.43359 10.8143 9.43359 12.5115C9.43359 14.2087 10.8143 15.5896 12.5115 15.5896C14.2087 15.5896 15.5896 14.2087 15.5896 12.5115C15.5896 10.8143 14.2087 9.43359 12.5115 9.43359ZM12.5115 14.7976C11.251 14.7976 10.2255 13.772 10.2255 12.5115C10.2255 11.2512 11.251 10.2259 12.5115 10.2259C13.7718 10.2259 14.7972 11.2512 14.7972 12.5115C14.7972 13.772 13.7718 14.7976 12.5115 14.7976Z" fill="#A38B39"/>
</svg>
