<svg width="15" height="15" viewBox="0 0 15 15" fill="none" xmlns="http://www.w3.org/2000/svg">
<path d="M9.62566 11C9.33443 11 8.98269 10.927 8.59612 10.7813C7.74786 10.4613 6.82544 9.82933 5.99813 9.00194C5.17083 8.17456 4.53893 7.25181 4.21898 6.40324C3.92775 5.63213 3.92705 4.99923 4.21663 4.70962C4.25853 4.66771 4.30115 4.62298 4.34494 4.57706C4.60933 4.29923 4.91515 3.98348 5.30385 4.00067C5.57695 4.01197 5.84134 4.1815 6.11255 4.5182C6.91208 5.51299 6.55163 5.86758 6.13445 6.27869L6.06052 6.35168C5.99225 6.41996 5.863 6.73594 7.06346 7.93628C7.45569 8.32831 7.78953 8.61509 8.05627 8.78862C8.22461 8.89787 8.52502 9.06269 8.64815 8.93955L8.72231 8.86467C9.1329 8.44792 9.48746 8.08862 10.4819 8.88798C10.8188 9.15875 10.9881 9.42317 10.9994 9.69653C11.0156 10.0926 10.7002 10.3921 10.4219 10.6562C10.3762 10.6998 10.3315 10.7419 10.29 10.7834C10.1455 10.9277 9.91571 11 9.62566 11ZM5.27583 4.23518C4.99473 4.23518 4.74046 4.50266 4.51563 4.73905C4.47019 4.78662 4.42616 4.833 4.38308 4.87609C4.16742 5.09153 4.18955 5.6585 4.43911 6.32036C4.74752 7.13809 5.36035 8.0314 6.16458 8.83571C6.96882 9.64002 7.86181 10.2527 8.67922 10.5611C9.34102 10.8109 9.90794 10.8326 10.1236 10.6167C10.1667 10.5738 10.2126 10.53 10.2597 10.4853C10.5017 10.2553 10.776 9.99485 10.7642 9.70571C10.756 9.50722 10.6114 9.29367 10.3343 9.07116C9.50559 8.4053 9.27416 8.64076 8.88994 9.02972L8.8146 9.10578C8.63167 9.28967 8.33338 9.2494 7.92796 8.98569C7.6478 8.80345 7.30078 8.50608 6.89701 8.10251C5.9009 7.1063 5.58213 6.49695 5.89407 6.18474L5.96918 6.11034C6.35952 5.72608 6.59495 5.49415 5.92892 4.66536C5.7062 4.3887 5.49266 4.24413 5.2942 4.23565C5.28807 4.23542 5.28172 4.23518 5.27583 4.23518Z" fill="#333333" stroke="#333333" stroke-width="0.25"/>
<path d="M12.8033 2.19682C11.3868 0.780209 9.50327 0 7.5 0C5.49673 0 3.61346 0.780209 2.19682 2.19682C0.780209 3.61346 0 5.49673 0 7.5C0 9.50357 0.780209 11.3869 2.19682 12.8034C3.61331 14.2199 5.49673 15 7.5 15C9.50342 15 11.3868 14.2199 12.8033 12.8034C14.2198 11.3869 15 9.50357 15 7.5C15 5.49673 14.2198 3.61331 12.8033 2.19682ZM12.4718 12.472C11.1439 13.7999 9.37825 14.5312 7.5 14.5312C5.6219 14.5312 3.85622 13.7999 2.52827 12.472C1.20018 11.1441 0.468784 9.37825 0.468784 7.5C0.468784 5.62204 1.20018 3.85637 2.52827 2.52827C3.85637 1.20018 5.62204 0.468784 7.5 0.468784C9.3781 0.468784 11.1438 1.20018 12.4718 2.52827C13.7998 3.85622 14.5312 5.6219 14.5312 7.5C14.5312 9.3784 13.7998 11.1441 12.4718 12.472Z" fill="#333333"/>
<path d="M12.5987 3.36804C12.5172 3.26745 12.3695 3.25203 12.2689 3.33369C12.1684 3.41525 12.1531 3.56287 12.2346 3.66328C13.111 4.74345 13.5936 6.10586 13.5936 7.49976C13.5936 9.12767 12.9598 10.658 11.8089 11.8089C10.6581 12.9597 9.12772 13.5934 7.49995 13.5934C5.9982 13.5934 4.55541 13.0425 3.43759 12.042C3.34102 11.9556 3.19297 11.9639 3.10658 12.0603C3.02034 12.1568 3.02847 12.305 3.12489 12.3912C4.32895 13.4688 5.88263 14.0622 7.49995 14.0622C9.25289 14.0622 10.901 13.3797 12.1404 12.1403C13.3797 10.9009 14.0624 9.25284 14.0624 7.49976C14.0624 5.99871 13.5425 4.53145 12.5987 3.36804Z" fill="#333333"/>
<path d="M1.4061 7.49993C1.4061 4.13982 4.13982 1.4061 7.49993 1.4061C9.00168 1.4061 10.4443 1.95714 11.5623 2.95766C11.6587 3.04405 11.8069 3.03573 11.8932 2.93935C11.9795 2.84292 11.9712 2.69472 11.8748 2.60844C10.6709 1.53087 9.11711 0.9375 7.49993 0.9375C5.74714 0.9375 4.0992 1.62011 2.85966 2.85966C1.62011 4.09917 0.9375 5.74711 0.9375 7.49993C0.9375 9.0011 1.45733 10.4685 2.40116 11.6318C2.44753 11.689 2.51506 11.7186 2.58328 11.7186C2.63521 11.7186 2.68743 11.7015 2.7309 11.6661C2.83131 11.5846 2.84677 11.437 2.76525 11.3365C1.88877 10.2564 1.4061 8.8938 1.4061 7.49993Z" fill="#333333"/>
</svg>
